<svg width="305" height="132" viewBox="0 0 305 132" fill="none" xmlns="http://www.w3.org/2000/svg">
<path d="M279.322 66.0002H272.752V34.9502H280.267L293.092 54.6152C293.362 55.0052 293.707 55.5902 294.127 56.3702C294.097 55.9802 294.082 55.3952 294.082 54.6152V34.9502H300.652V66.0002H293.092L280.312 46.4252C279.742 45.5252 279.397 44.9402 279.277 44.6702C279.307 45.0902 279.322 45.6752 279.322 46.4252V66.0002Z" fill="black"/>
<path d="M251.782 66.45C247.102 66.45 243.232 64.95 240.172 61.95C237.112 58.95 235.582 55.125 235.582 50.475C235.582 45.825 237.112 42 240.172 39C243.232 36 247.102 34.5 251.782 34.5C256.432 34.5 260.287 36 263.347 39C266.407 42 267.937 45.825 267.937 50.475C267.937 55.125 266.407 58.95 263.347 61.95C260.287 64.95 256.432 66.45 251.782 66.45ZM251.782 60.285C254.482 60.285 256.687 59.385 258.397 57.585C260.107 55.785 260.962 53.415 260.962 50.475C260.962 47.535 260.107 45.165 258.397 43.365C256.687 41.565 254.482 40.665 251.782 40.665C249.052 40.665 246.832 41.565 245.122 43.365C243.412 45.165 242.557 47.535 242.557 50.475C242.557 53.415 243.412 55.785 245.122 57.585C246.832 59.385 249.052 60.285 251.782 60.285Z" fill="black"/>
<path d="M215.199 66.0002H203.319V34.9502H215.199C220.059 34.9502 224.079 36.3452 227.259 39.1352C230.469 41.8952 232.074 45.6602 232.074 50.4302C232.074 55.2002 230.469 58.9952 227.259 61.8152C224.049 64.6052 220.029 66.0002 215.199 66.0002ZM210.024 41.1152V59.8352H214.839C217.869 59.8352 220.329 59.0402 222.219 57.4502C224.139 55.8302 225.099 53.4902 225.099 50.4302C225.099 47.4002 224.154 45.0902 222.264 43.5002C220.374 41.9102 217.899 41.1152 214.839 41.1152H210.024Z" fill="black"/>
<path d="M182.996 54.255V48.675H197.666V66H192.311V62.535C190.451 65.145 187.256 66.45 182.726 66.45C178.256 66.45 174.566 65.01 171.656 62.13C168.746 59.22 167.291 55.41 167.291 50.7C167.291 45.9 168.821 42 171.881 39C174.971 36 178.901 34.5 183.671 34.5C189.461 34.5 193.931 36.345 197.081 40.035L192.131 44.13C190.241 41.82 187.421 40.665 183.671 40.665C180.881 40.665 178.616 41.58 176.876 43.41C175.136 45.21 174.266 47.64 174.266 50.7C174.266 53.91 175.121 56.385 176.831 58.125C178.571 59.865 180.866 60.735 183.716 60.735C186.086 60.735 188.006 60.24 189.476 59.25C190.946 58.26 191.681 56.865 191.681 55.065V54.255H182.996Z" fill="black"/>
<path d="M141.158 66.0002H134.588V34.9502H142.103L154.928 54.6152C155.198 55.0052 155.543 55.5902 155.963 56.3702C155.933 55.9802 155.918 55.3952 155.918 54.6152V34.9502H162.488V66.0002H154.928L142.148 46.4252C141.578 45.5252 141.233 44.9402 141.113 44.6702C141.143 45.0902 141.158 45.6752 141.158 46.4252V66.0002Z" fill="black"/>
<path d="M128.154 66.0002H121.449V34.9502H128.154V66.0002Z" fill="black"/>
<path d="M111.394 56.0552L117.649 66.0002H109.864L104.239 56.7302C103.789 55.9502 103.399 55.4702 103.069 55.2902C102.739 55.0802 102.169 54.9752 101.359 54.9752H97.0844V66.0002H90.3794V34.9502H104.419C107.779 34.9502 110.494 35.8352 112.564 37.6052C114.634 39.3752 115.669 41.7302 115.669 44.6702C115.669 46.8302 115.129 48.6752 114.049 50.2052C112.999 51.7352 111.484 52.8602 109.504 53.5802C109.984 53.9702 110.614 54.7952 111.394 56.0552ZM97.0844 40.7552V49.3502H103.294C106.894 49.3502 108.694 47.9252 108.694 45.0752C108.694 42.1952 106.894 40.7552 103.294 40.7552H97.0844Z" fill="black"/>
<path d="M80.3251 56.0552L86.5801 66.0002H78.7951L73.1701 56.7302C72.7201 55.9502 72.3301 55.4702 72.0001 55.2902C71.6701 55.0802 71.1001 54.9752 70.2901 54.9752H66.0151V66.0002H59.3101V34.9502H73.3501C76.7101 34.9502 79.4251 35.8352 81.4951 37.6052C83.5651 39.3752 84.6001 41.7302 84.6001 44.6702C84.6001 46.8302 84.0601 48.6752 82.9801 50.2052C81.9301 51.7352 80.4151 52.8602 78.4351 53.5802C78.9151 53.9702 79.5451 54.7952 80.3251 56.0552ZM66.0151 40.7552V49.3502H72.2251C75.8251 49.3502 77.6251 47.9252 77.6251 45.0752C77.6251 42.1952 75.8251 40.7552 72.2251 40.7552H66.0151Z" fill="black"/>
<path d="M55.8019 66.0002H48.6919L46.2169 59.0702H34.0219L31.5469 66.0002H24.4819L36.4969 34.9502H43.8319L55.8019 66.0002ZM39.6019 43.6352L36.0919 53.4002H44.1919L40.6819 43.6352C40.6519 43.5152 40.5919 43.3502 40.5019 43.1402C40.4419 42.9302 40.3819 42.7352 40.3219 42.5552C40.2619 42.3752 40.2019 42.1952 40.1419 42.0152L39.6019 43.6352Z" fill="black"/>
<path d="M10.7319 66.0002H4.02686V34.9502H25.1769V41.1152H10.7319V48.1802H23.1069V54.3002H10.7319V66.0002Z" fill="black"/>
<path d="M166.304 102.17C165.307 102.17 164.378 102.005 163.516 101.677C162.666 101.337 161.981 100.866 161.459 100.266L163.091 98.5996C163.941 99.5629 165.029 100.045 166.355 100.045C167.715 100.045 168.395 99.6026 168.395 98.7186C168.395 98.3446 168.259 98.0556 167.987 97.8516C167.715 97.6476 167.251 97.4663 166.593 97.3076L165.488 97.0696C164.23 96.8089 163.307 96.4066 162.717 95.8626C162.128 95.3186 161.833 94.5933 161.833 93.6866C161.833 92.5759 162.236 91.7033 163.04 91.0686C163.856 90.4226 164.973 90.0996 166.389 90.0996C168.123 90.0996 169.574 90.6719 170.741 91.8166L169.143 93.4826C168.724 93.0066 168.282 92.6779 167.817 92.4966C167.364 92.3039 166.826 92.2076 166.202 92.2076C165.613 92.2076 165.154 92.3266 164.825 92.5646C164.497 92.7913 164.332 93.1086 164.332 93.5166C164.332 93.8679 164.468 94.1456 164.74 94.3496C165.024 94.5536 165.488 94.7293 166.134 94.8766L167.239 95.0976C168.509 95.3696 169.438 95.7833 170.027 96.3386C170.617 96.8939 170.911 97.6363 170.911 98.5656C170.911 99.6649 170.498 100.543 169.67 101.201C168.854 101.847 167.732 102.17 166.304 102.17Z" fill="black"/>
<path d="M150.857 102H148.375V90.2695H151.214L156.059 97.6985C156.161 97.8459 156.291 98.0669 156.45 98.3615C156.438 98.2142 156.433 97.9932 156.433 97.6985V90.2695H158.915V102H156.059L151.231 94.6045C151.015 94.2645 150.885 94.0435 150.84 93.9415C150.851 94.1002 150.857 94.3212 150.857 94.6045V102Z" fill="black"/>
<path d="M145.094 102H142.561V90.2695H145.094V102Z" fill="black"/>
<path d="M129.483 102H127.001V90.2695H130.129L133.155 96.3215L136.181 90.2695H139.292V102H136.81V94.6045C136.81 94.3212 136.816 94.1059 136.827 93.9585C136.691 94.2532 136.584 94.4685 136.504 94.6045L134.209 99.2455H132.118L129.789 94.5875L129.466 93.9585C129.478 94.1059 129.483 94.3269 129.483 94.6215V102Z" fill="black"/>
<path d="M114.135 102.17C112.605 102.17 111.387 101.626 110.48 100.538C109.585 99.4496 109.137 97.9819 109.137 96.1346C109.137 94.2873 109.585 92.8196 110.48 91.7316C111.387 90.6436 112.605 90.0996 114.135 90.0996C115.665 90.0996 116.872 90.6436 117.756 91.7316C118.652 92.8083 119.099 94.2759 119.099 96.1346C119.099 97.9819 118.652 99.4496 117.756 100.538C116.861 101.626 115.654 102.17 114.135 102.17ZM114.135 99.8746C114.895 99.8746 115.49 99.5459 115.92 98.8886C116.351 98.2199 116.566 97.3019 116.566 96.1346C116.566 94.9673 116.351 94.0549 115.92 93.3976C115.49 92.7289 114.895 92.3946 114.135 92.3946C113.365 92.3946 112.758 92.7289 112.316 93.3976C111.886 94.0549 111.67 94.9673 111.67 96.1346C111.67 97.3019 111.886 98.2199 112.316 98.8886C112.758 99.5459 113.365 99.8746 114.135 99.8746Z" fill="black"/>
<path d="M104.178 90.2695H106.269V102H103.753V93.3295C103.231 93.8509 102.393 94.1115 101.237 94.1115V91.7825C102.687 91.7825 103.668 91.2782 104.178 90.2695Z" fill="black"/>
<g clip-path="url(#clip0_1580_594)">
<path d="M201.669 93.2399V95.4499H197.699C197.129 95.4499 196.549 95.2199 196.139 94.8099L193.929 92.5999L191.069 95.4499L193.279 97.6599C193.699 98.0799 193.929 98.6399 193.929 99.2299V104.29H191.719V99.2299L188.399 95.9099C187.979 95.4899 187.749 94.9399 187.749 94.3399C187.749 93.7399 187.979 93.1999 188.399 92.7799L192.039 89.1399C192.469 88.7099 193.179 88.7099 193.609 89.1399L197.699 93.2299H201.669V93.2399Z" fill="black"/>
<path d="M199.458 87.71C199.458 88.94 198.468 89.92 197.248 89.92C196.028 89.92 195.038 88.94 195.038 87.71C195.038 86.48 196.038 85.5 197.248 85.5C198.458 85.5 199.458 86.49 199.458 87.71Z" fill="black"/>
<path d="M203.888 102.08C203.888 104.52 201.908 106.5 199.468 106.5C197.028 106.5 195.048 104.52 195.048 102.08C195.048 99.6402 197.028 97.6602 199.468 97.6602C201.908 97.6602 203.888 99.6502 203.888 102.08Z" fill="black"/>
<path d="M190.618 102.08C190.618 104.52 188.638 106.5 186.198 106.5C183.758 106.5 181.778 104.52 181.778 102.08C181.778 99.6402 183.758 97.6602 186.198 97.6602C188.638 97.6602 190.618 99.6502 190.618 102.08Z" fill="black"/>
</g>
<defs>
<clipPath id="clip0_1580_594">
<rect width="22.11" height="21" fill="white" transform="translate(181.778 85.5)"/>
</clipPath>
</defs>
</svg>
