<svg width="305" height="132" viewBox="0 0 305 132" fill="none" xmlns="http://www.w3.org/2000/svg">
<path d="M279.322 66.0002H272.752V34.9502H280.267L293.092 54.6152C293.362 55.0052 293.707 55.5902 294.127 56.3702C294.097 55.9802 294.082 55.3952 294.082 54.6152V34.9502H300.652V66.0002H293.092L280.312 46.4252C279.742 45.5252 279.397 44.9402 279.277 44.6702C279.307 45.0902 279.322 45.6752 279.322 46.4252V66.0002Z" fill="black"/>
<path d="M251.782 66.45C247.102 66.45 243.232 64.95 240.172 61.95C237.112 58.95 235.582 55.125 235.582 50.475C235.582 45.825 237.112 42 240.172 39C243.232 36 247.102 34.5 251.782 34.5C256.432 34.5 260.287 36 263.347 39C266.407 42 267.937 45.825 267.937 50.475C267.937 55.125 266.407 58.95 263.347 61.95C260.287 64.95 256.432 66.45 251.782 66.45ZM251.782 60.285C254.482 60.285 256.687 59.385 258.397 57.585C260.107 55.785 260.962 53.415 260.962 50.475C260.962 47.535 260.107 45.165 258.397 43.365C256.687 41.565 254.482 40.665 251.782 40.665C249.052 40.665 246.832 41.565 245.122 43.365C243.412 45.165 242.557 47.535 242.557 50.475C242.557 53.415 243.412 55.785 245.122 57.585C246.832 59.385 249.052 60.285 251.782 60.285Z" fill="black"/>
<path d="M215.199 66.0002H203.319V34.9502H215.199C220.059 34.9502 224.079 36.3452 227.259 39.1352C230.469 41.8952 232.074 45.6602 232.074 50.4302C232.074 55.2002 230.469 58.9952 227.259 61.8152C224.049 64.6052 220.029 66.0002 215.199 66.0002ZM210.024 41.1152V59.8352H214.839C217.869 59.8352 220.329 59.0402 222.219 57.4502C224.139 55.8302 225.099 53.4902 225.099 50.4302C225.099 47.4002 224.154 45.0902 222.264 43.5002C220.374 41.9102 217.899 41.1152 214.839 41.1152H210.024Z" fill="black"/>
<path d="M182.996 54.255V48.675H197.666V66H192.311V62.535C190.451 65.145 187.256 66.45 182.726 66.45C178.256 66.45 174.566 65.01 171.656 62.13C168.746 59.22 167.291 55.41 167.291 50.7C167.291 45.9 168.821 42 171.881 39C174.971 36 178.901 34.5 183.671 34.5C189.461 34.5 193.931 36.345 197.081 40.035L192.131 44.13C190.241 41.82 187.421 40.665 183.671 40.665C180.881 40.665 178.616 41.58 176.876 43.41C175.136 45.21 174.266 47.64 174.266 50.7C174.266 53.91 175.121 56.385 176.831 58.125C178.571 59.865 180.866 60.735 183.716 60.735C186.086 60.735 188.006 60.24 189.476 59.25C190.946 58.26 191.681 56.865 191.681 55.065V54.255H182.996Z" fill="black"/>
<path d="M141.158 66.0002H134.588V34.9502H142.103L154.928 54.6152C155.198 55.0052 155.543 55.5902 155.963 56.3702C155.933 55.9802 155.918 55.3952 155.918 54.6152V34.9502H162.488V66.0002H154.928L142.148 46.4252C141.578 45.5252 141.233 44.9402 141.113 44.6702C141.143 45.0902 141.158 45.6752 141.158 46.4252V66.0002Z" fill="black"/>
<path d="M128.154 66.0002H121.449V34.9502H128.154V66.0002Z" fill="black"/>
<path d="M111.394 56.0552L117.649 66.0002H109.864L104.239 56.7302C103.789 55.9502 103.399 55.4702 103.069 55.2902C102.739 55.0802 102.169 54.9752 101.359 54.9752H97.0844V66.0002H90.3794V34.9502H104.419C107.779 34.9502 110.494 35.8352 112.564 37.6052C114.634 39.3752 115.669 41.7302 115.669 44.6702C115.669 46.8302 115.129 48.6752 114.049 50.2052C112.999 51.7352 111.484 52.8602 109.504 53.5802C109.984 53.9702 110.614 54.7952 111.394 56.0552ZM97.0844 40.7552V49.3502H103.294C106.894 49.3502 108.694 47.9252 108.694 45.0752C108.694 42.1952 106.894 40.7552 103.294 40.7552H97.0844Z" fill="black"/>
<path d="M80.3251 56.0552L86.5801 66.0002H78.7951L73.1701 56.7302C72.7201 55.9502 72.3301 55.4702 72.0001 55.2902C71.6701 55.0802 71.1001 54.9752 70.2901 54.9752H66.0151V66.0002H59.3101V34.9502H73.3501C76.7101 34.9502 79.4251 35.8352 81.4951 37.6052C83.5651 39.3752 84.6001 41.7302 84.6001 44.6702C84.6001 46.8302 84.0601 48.6752 82.9801 50.2052C81.9301 51.7352 80.4151 52.8602 78.4351 53.5802C78.9151 53.9702 79.5451 54.7952 80.3251 56.0552ZM66.0151 40.7552V49.3502H72.2251C75.8251 49.3502 77.6251 47.9252 77.6251 45.0752C77.6251 42.1952 75.8251 40.7552 72.2251 40.7552H66.0151Z" fill="black"/>
<path d="M55.8019 66.0002H48.6919L46.2169 59.0702H34.0219L31.5469 66.0002H24.4819L36.4969 34.9502H43.8319L55.8019 66.0002ZM39.6019 43.6352L36.0919 53.4002H44.1919L40.6819 43.6352C40.6519 43.5152 40.5919 43.3502 40.5019 43.1402C40.4419 42.9302 40.3819 42.7352 40.3219 42.5552C40.2619 42.3752 40.2019 42.1952 40.1419 42.0152L39.6019 43.6352Z" fill="black"/>
<path d="M10.7319 66.0002H4.02686V34.9502H25.1769V41.1152H10.7319V48.1802H23.1069V54.3002H10.7319V66.0002Z" fill="black"/>
<path d="M166.556 102.17C165.559 102.17 164.63 102.005 163.768 101.677C162.918 101.337 162.233 100.866 161.711 100.266L163.343 98.5996C164.193 99.5629 165.281 100.045 166.607 100.045C167.967 100.045 168.647 99.6026 168.647 98.7186C168.647 98.3446 168.511 98.0556 168.239 97.8516C167.967 97.6476 167.503 97.4663 166.845 97.3076L165.74 97.0696C164.482 96.8089 163.559 96.4066 162.969 95.8626C162.38 95.3186 162.085 94.5933 162.085 93.6866C162.085 92.5759 162.488 91.7033 163.292 91.0686C164.108 90.4226 165.225 90.0996 166.641 90.0996C168.375 90.0996 169.826 90.6719 170.993 91.8166L169.395 93.4826C168.976 93.0066 168.534 92.6779 168.069 92.4966C167.616 92.3039 167.078 92.2076 166.454 92.2076C165.865 92.2076 165.406 92.3266 165.077 92.5646C164.749 92.7913 164.584 93.1086 164.584 93.5166C164.584 93.8679 164.72 94.1456 164.992 94.3496C165.276 94.5536 165.74 94.7293 166.386 94.8766L167.491 95.0976C168.761 95.3696 169.69 95.7833 170.279 96.3386C170.869 96.8939 171.163 97.6363 171.163 98.5656C171.163 99.6649 170.75 100.543 169.922 101.201C169.106 101.847 167.984 102.17 166.556 102.17Z" fill="black"/>
<path d="M151.108 102H148.626V90.2695H151.465L156.31 97.6985C156.412 97.8459 156.543 98.0669 156.701 98.3615C156.69 98.2142 156.684 97.9932 156.684 97.6985V90.2695H159.166V102H156.31L151.482 94.6045C151.267 94.2645 151.137 94.0435 151.091 93.9415C151.103 94.1002 151.108 94.3212 151.108 94.6045V102Z" fill="black"/>
<path d="M145.346 102H142.812V90.2695H145.346V102Z" fill="black"/>
<path d="M129.735 102H127.253V90.2695H130.381L133.407 96.3215L136.433 90.2695H139.544V102H137.062V94.6045C137.062 94.3212 137.068 94.1059 137.079 93.9585C136.943 94.2532 136.836 94.4685 136.756 94.6045L134.461 99.2455H132.37L130.041 94.5875L129.718 93.9585C129.73 94.1059 129.735 94.3269 129.735 94.6215V102Z" fill="black"/>
<path d="M114.711 102.153C113.283 102.153 112.149 101.83 111.311 101.184C110.483 100.538 110.07 99.6649 110.07 98.5656C110.07 97.9083 110.24 97.3416 110.58 96.8656C110.92 96.3896 111.401 96.0383 112.025 95.8116C111.537 95.5963 111.158 95.2733 110.886 94.8426C110.614 94.4006 110.478 93.9076 110.478 93.3636C110.478 92.3889 110.857 91.6013 111.617 91.0006C112.387 90.3999 113.419 90.0996 114.711 90.0996C116.014 90.0996 117.045 90.3999 117.805 91.0006C118.575 91.6013 118.961 92.3889 118.961 93.3636C118.961 93.9076 118.825 94.4006 118.553 94.8426C118.281 95.2733 117.901 95.5963 117.414 95.8116C118.706 96.2876 119.352 97.2056 119.352 98.5656C119.352 99.6763 118.938 100.555 118.111 101.201C117.283 101.835 116.15 102.153 114.711 102.153ZM114.711 95.0636C115.266 95.0636 115.714 94.9219 116.054 94.6386C116.394 94.3439 116.564 93.9699 116.564 93.5166C116.564 93.0746 116.394 92.7119 116.054 92.4286C115.714 92.1453 115.266 92.0036 114.711 92.0036C114.167 92.0036 113.725 92.1453 113.385 92.4286C113.045 92.7119 112.875 93.0746 112.875 93.5166C112.875 93.9699 113.045 94.3439 113.385 94.6386C113.725 94.9219 114.167 95.0636 114.711 95.0636ZM114.711 100.249C115.368 100.249 115.889 100.101 116.275 99.8066C116.66 99.5006 116.853 99.0926 116.853 98.5826C116.853 98.0726 116.66 97.6646 116.275 97.3586C115.889 97.0413 115.368 96.8826 114.711 96.8826C114.065 96.8826 113.549 97.0413 113.164 97.3586C112.778 97.6646 112.586 98.0726 112.586 98.5826C112.586 99.0813 112.778 99.4836 113.164 99.7896C113.549 100.096 114.065 100.249 114.711 100.249Z" fill="black"/>
<path d="M102.779 102.17C101.249 102.17 100.031 101.626 99.1243 100.538C98.2289 99.4496 97.7812 97.9819 97.7812 96.1346C97.7812 94.2873 98.2289 92.8196 99.1243 91.7316C100.031 90.6436 101.249 90.0996 102.779 90.0996C104.309 90.0996 105.516 90.6436 106.4 91.7316C107.296 92.8083 107.743 94.2759 107.743 96.1346C107.743 97.9819 107.296 99.4496 106.4 100.538C105.505 101.626 104.298 102.17 102.779 102.17ZM102.779 99.8746C103.539 99.8746 104.134 99.5459 104.564 98.8886C104.995 98.2199 105.21 97.3019 105.21 96.1346C105.21 94.9673 104.995 94.0549 104.564 93.3976C104.134 92.7289 103.539 92.3946 102.779 92.3946C102.009 92.3946 101.402 92.7289 100.96 93.3976C100.53 94.0549 100.314 94.9673 100.314 96.1346C100.314 97.3019 100.53 98.2199 100.96 98.8886C101.402 99.5459 102.009 99.8746 102.779 99.8746Z" fill="black"/>
<g clip-path="url(#clip0_1580_638)">
<path d="M188.398 93.88C189.288 91.18 191.828 89.23 194.838 89.23C197.848 89.23 200.388 91.18 201.278 93.88H188.398ZM194.828 102.77C191.828 102.77 189.288 100.82 188.398 98.12H201.268C200.378 100.82 197.828 102.77 194.838 102.77M205.118 93.88C204.138 89.1 199.898 85.5 194.828 85.5C189.758 85.5 185.528 89.1 184.538 93.88H181.938V98.13H184.548C185.528 102.91 189.758 106.5 194.838 106.5C199.918 106.5 204.138 102.91 205.118 98.13H207.738V93.88H205.118Z" fill="black"/>
</g>
<defs>
<clipPath id="clip0_1580_638">
<rect width="25.79" height="21" fill="white" transform="translate(181.938 85.5)"/>
</clipPath>
</defs>
</svg>
