<svg width="305" height="132" viewBox="0 0 305 132" fill="none" xmlns="http://www.w3.org/2000/svg">
<path d="M261.802 66.45C257.122 66.45 253.252 64.95 250.192 61.95C247.132 58.95 245.602 55.125 245.602 50.475C245.602 45.825 247.132 42 250.192 39C253.252 36 257.122 34.5 261.802 34.5C266.452 34.5 270.307 36 273.367 39C276.427 42 277.957 45.825 277.957 50.475C277.957 55.125 276.427 58.95 273.367 61.95C270.307 64.95 266.452 66.45 261.802 66.45ZM261.802 60.285C264.502 60.285 266.707 59.385 268.417 57.585C270.127 55.785 270.982 53.415 270.982 50.475C270.982 47.535 270.127 45.165 268.417 43.365C266.707 41.565 264.502 40.665 261.802 40.665C259.072 40.665 256.852 41.565 255.142 43.365C253.432 45.165 252.577 47.535 252.577 50.475C252.577 53.415 253.432 55.785 255.142 57.585C256.852 59.385 259.072 60.285 261.802 60.285Z" fill="black"/>
<path d="M225.942 66.45C221.262 66.45 217.392 64.95 214.332 61.95C211.272 58.95 209.742 55.125 209.742 50.475C209.742 45.825 211.272 42 214.332 39C217.392 36 221.262 34.5 225.942 34.5C230.592 34.5 234.447 36 237.507 39C240.567 42 242.097 45.825 242.097 50.475C242.097 55.125 240.567 58.95 237.507 61.95C234.447 64.95 230.592 66.45 225.942 66.45ZM225.942 60.285C228.642 60.285 230.847 59.385 232.557 57.585C234.267 55.785 235.122 53.415 235.122 50.475C235.122 47.535 234.267 45.165 232.557 43.365C230.847 41.565 228.642 40.665 225.942 40.665C223.212 40.665 220.992 41.565 219.282 43.365C217.572 45.165 216.717 47.535 216.717 50.475C216.717 53.415 217.572 55.785 219.282 57.585C220.992 59.385 223.212 60.285 225.942 60.285Z" fill="black"/>
<path d="M207.939 66.0002H187.059V34.9502H193.764V59.8352H207.939V66.0002Z" fill="black"/>
<path d="M177.005 56.0552L183.26 66.0002H175.475L169.85 56.7302C169.4 55.9502 169.01 55.4702 168.68 55.2902C168.35 55.0802 167.78 54.9752 166.97 54.9752H162.695V66.0002H155.99V34.9502H170.03C173.39 34.9502 176.105 35.8352 178.175 37.6052C180.245 39.3752 181.28 41.7302 181.28 44.6702C181.28 46.8302 180.74 48.6752 179.66 50.2052C178.61 51.7352 177.095 52.8602 175.115 53.5802C175.595 53.9702 176.225 54.7952 177.005 56.0552ZM162.695 40.7552V49.3502H168.905C172.505 49.3502 174.305 47.9252 174.305 45.0752C174.305 42.1952 172.505 40.7552 168.905 40.7552H162.695Z" fill="black"/>
<path d="M151.112 66.0002H128.612V34.9502H150.887V40.8452H135.317V47.3252H148.457V53.2202H135.317V60.1052H151.112V66.0002Z" fill="black"/>
<path d="M115.049 66.0002H108.389V41.1152H98.894V34.9502H124.544V41.1152H115.049V66.0002Z" fill="black"/>
<path d="M100.978 66.0002H93.8677L91.3927 59.0702H79.1977L76.7227 66.0002H69.6577L81.6727 34.9502H89.0077L100.978 66.0002ZM84.7777 43.6352L81.2677 53.4002H89.3677L85.8577 43.6352C85.8277 43.5152 85.7677 43.3502 85.6777 43.1402C85.6177 42.9302 85.5577 42.7352 85.4977 42.5552C85.4377 42.3752 85.3777 42.1952 85.3177 42.0152L84.7777 43.6352Z" fill="black"/>
<path d="M33.4598 66.0002L25.4048 34.9502H32.2448L37.6448 57.7652C37.6748 57.8252 37.7348 58.0352 37.8248 58.3952C37.9148 58.7552 37.9748 59.0402 38.0048 59.2502C38.0348 59.0402 38.0948 58.7552 38.1848 58.3952C38.2748 58.0352 38.3348 57.8252 38.3648 57.7652L43.8998 34.9502H52.8548L58.2998 57.7652C58.4798 58.6052 58.5848 59.1002 58.6148 59.2502L58.9748 57.7652L64.5548 34.9502H71.3498L63.1148 66.0002H54.0248L48.7148 43.2302L48.3998 41.7902C48.3698 41.9402 48.3098 42.1802 48.2198 42.5102C48.1598 42.8402 48.1148 43.0802 48.0848 43.2302L42.5498 66.0002H33.4598Z" fill="black"/>
<path d="M166.199 102.17C165.202 102.17 164.273 102.005 163.411 101.677C162.561 101.337 161.876 100.866 161.354 100.266L162.986 98.5996C163.836 99.5629 164.924 100.045 166.25 100.045C167.61 100.045 168.29 99.6026 168.29 98.7186C168.29 98.3446 168.154 98.0556 167.882 97.8516C167.61 97.6476 167.146 97.4663 166.488 97.3076L165.383 97.0696C164.125 96.8089 163.202 96.4066 162.612 95.8626C162.023 95.3186 161.728 94.5933 161.728 93.6866C161.728 92.5759 162.131 91.7033 162.935 91.0686C163.751 90.4226 164.868 90.0996 166.284 90.0996C168.018 90.0996 169.469 90.6719 170.636 91.8166L169.038 93.4826C168.619 93.0066 168.177 92.6779 167.712 92.4966C167.259 92.3039 166.721 92.2076 166.097 92.2076C165.508 92.2076 165.049 92.3266 164.72 92.5646C164.392 92.7913 164.227 93.1086 164.227 93.5166C164.227 93.8679 164.363 94.1456 164.635 94.3496C164.919 94.5536 165.383 94.7293 166.029 94.8766L167.134 95.0976C168.404 95.3696 169.333 95.7833 169.922 96.3386C170.512 96.8939 170.806 97.6363 170.806 98.5656C170.806 99.6649 170.393 100.543 169.565 101.201C168.749 101.847 167.627 102.17 166.199 102.17Z" fill="black"/>
<path d="M150.752 102H148.27V90.2695H151.109L155.954 97.6985C156.056 97.8459 156.186 98.0669 156.345 98.3615C156.333 98.2142 156.328 97.9932 156.328 97.6985V90.2695H158.81V102H155.954L151.126 94.6045C150.91 94.2645 150.78 94.0435 150.735 93.9415C150.746 94.1002 150.752 94.3212 150.752 94.6045V102Z" fill="black"/>
<path d="M144.989 102H142.456V90.2695H144.989V102Z" fill="black"/>
<path d="M129.378 102H126.896V90.2695H130.024L133.05 96.3215L136.076 90.2695H139.187V102H136.705V94.6045C136.705 94.3212 136.711 94.1059 136.722 93.9585C136.586 94.2532 136.479 94.4685 136.399 94.6045L134.104 99.2455H132.013L129.684 94.5875L129.361 93.9585C129.373 94.1059 129.378 94.3269 129.378 94.6215V102Z" fill="black"/>
<path d="M119.012 102H110.257V100.011L114.609 96.6786C115.244 96.1799 115.697 95.7266 115.969 95.3186C116.241 94.9106 116.377 94.4743 116.377 94.0096C116.377 93.5109 116.213 93.1086 115.884 92.8026C115.555 92.4853 115.119 92.3266 114.575 92.3266C113.623 92.3266 112.796 92.7799 112.093 93.6866L110.342 92.1566C111.396 90.7853 112.869 90.0996 114.762 90.0996C116.043 90.0996 117.051 90.4396 117.788 91.1196C118.536 91.7883 118.91 92.6893 118.91 93.8226C118.91 94.5706 118.689 95.2789 118.247 95.9476C117.805 96.6163 117.085 97.3359 116.088 98.1066C115.215 98.7753 114.445 99.3419 113.776 99.8066H119.012V102Z" fill="black"/>
<path d="M103.136 102.17C101.606 102.17 100.388 101.626 99.4812 100.538C98.5859 99.4496 98.1382 97.9819 98.1382 96.1346C98.1382 94.2873 98.5859 92.8196 99.4812 91.7316C100.388 90.6436 101.606 90.0996 103.136 90.0996C104.666 90.0996 105.873 90.6436 106.757 91.7316C107.653 92.8083 108.1 94.2759 108.1 96.1346C108.1 97.9819 107.653 99.4496 106.757 100.538C105.862 101.626 104.655 102.17 103.136 102.17ZM103.136 99.8746C103.896 99.8746 104.491 99.5459 104.921 98.8886C105.352 98.2199 105.567 97.3019 105.567 96.1346C105.567 94.9673 105.352 94.0549 104.921 93.3976C104.491 92.7289 103.896 92.3946 103.136 92.3946C102.366 92.3946 101.759 92.7289 101.317 93.3976C100.887 94.0549 100.671 94.9673 100.671 96.1346C100.671 97.3019 100.887 98.2199 101.317 98.8886C101.759 99.5459 102.366 99.8746 103.136 99.8746Z" fill="black"/>
<g clip-path="url(#clip0_1580_624)">
<path d="M188.398 93.88C189.288 91.18 191.828 89.23 194.838 89.23C197.848 89.23 200.388 91.18 201.278 93.88H188.398ZM194.828 102.77C191.828 102.77 189.288 100.82 188.398 98.12H201.268C200.378 100.82 197.828 102.77 194.838 102.77M205.118 93.88C204.138 89.1 199.898 85.5 194.828 85.5C189.758 85.5 185.528 89.1 184.538 93.88H181.938V98.13H184.548C185.528 102.91 189.758 106.5 194.838 106.5C199.918 106.5 204.138 102.91 205.118 98.13H207.738V93.88H205.118Z" fill="black"/>
</g>
<defs>
<clipPath id="clip0_1580_624">
<rect width="25.79" height="21" fill="white" transform="translate(181.938 85.5)"/>
</clipPath>
</defs>
</svg>
