<svg width="305" height="132" viewBox="0 0 305 132" fill="none" xmlns="http://www.w3.org/2000/svg">
<path d="M258.277 66.0002H251.167L248.692 59.0702H236.497L234.022 66.0002H226.957L238.972 34.9502H246.307L258.277 66.0002ZM242.077 43.6352L238.567 53.4002H246.667L243.157 43.6352C243.127 43.5152 243.067 43.3502 242.977 43.1402C242.917 42.9302 242.857 42.7352 242.797 42.5552C242.737 42.3752 242.677 42.1952 242.617 42.0152L242.077 43.6352Z" fill="black"/>
<path d="M223.402 66.0002H216.697V34.9502H223.402V66.0002Z" fill="black"/>
<path d="M206.642 56.0552L212.897 66.0002H205.112L199.487 56.7302C199.037 55.9502 198.647 55.4702 198.317 55.2902C197.987 55.0802 197.417 54.9752 196.607 54.9752H192.332V66.0002H185.627V34.9502H199.667C203.027 34.9502 205.742 35.8352 207.812 37.6052C209.882 39.3752 210.917 41.7302 210.917 44.6702C210.917 46.8302 210.377 48.6752 209.297 50.2052C208.247 51.7352 206.732 52.8602 204.752 53.5802C205.232 53.9702 205.862 54.7952 206.642 56.0552ZM192.332 40.7552V49.3502H198.542C202.142 49.3502 203.942 47.9252 203.942 45.0752C203.942 42.1952 202.142 40.7552 198.542 40.7552H192.332Z" fill="black"/>
<path d="M164.657 66.45C159.977 66.45 156.107 64.95 153.047 61.95C149.987 58.95 148.457 55.125 148.457 50.475C148.457 45.825 149.987 42 153.047 39C156.107 36 159.977 34.5 164.657 34.5C169.307 34.5 173.162 36 176.222 39C179.282 42 180.812 45.825 180.812 50.475C180.812 55.125 179.282 58.95 176.222 61.95C173.162 64.95 169.307 66.45 164.657 66.45ZM164.657 60.285C167.357 60.285 169.562 59.385 171.272 57.585C172.982 55.785 173.837 53.415 173.837 50.475C173.837 47.535 172.982 45.165 171.272 43.365C169.562 41.565 167.357 40.665 164.657 40.665C161.927 40.665 159.707 41.565 157.997 43.365C156.287 45.165 155.432 47.535 155.432 50.475C155.432 53.415 156.287 55.785 157.997 57.585C159.707 59.385 161.927 60.285 164.657 60.285Z" fill="black"/>
<path d="M137.568 66.0002H130.908V41.1152H121.413V34.9502H147.063V41.1152H137.568V66.0002Z" fill="black"/>
<path d="M106.866 66.45C102.216 66.45 98.3613 64.95 95.3013 61.95C92.2713 58.95 90.7563 55.11 90.7563 50.43C90.7563 45.78 92.2713 41.97 95.3013 39C98.3613 36 102.216 34.5 106.866 34.5C112.056 34.5 116.211 36.345 119.331 40.035L114.381 44.13C112.491 41.82 109.986 40.665 106.866 40.665C104.196 40.665 102.006 41.565 100.296 43.365C98.5863 45.165 97.7313 47.52 97.7313 50.43C97.7313 53.4 98.5713 55.785 100.251 57.585C101.931 59.385 104.136 60.285 106.866 60.285C108.546 60.285 110.001 60 111.231 59.43C112.461 58.83 113.661 57.87 114.831 56.55L119.691 60.69C116.661 64.53 112.386 66.45 106.866 66.45Z" fill="black"/>
<path d="M85.8969 66.0002H79.1919V34.9502H85.8969V66.0002Z" fill="black"/>
<path d="M69.0809 34.9502H76.1459L64.5809 66.0002H56.7959L45.2759 34.9502H52.3859L60.1709 57.4052L60.7109 59.1602C60.7709 59.0402 60.8609 58.7702 60.9809 58.3502C61.1009 57.9302 61.2059 57.6302 61.2959 57.4502L69.0809 34.9502Z" fill="black"/>
<path d="M161.699 102.17C160.702 102.17 159.772 102.005 158.911 101.677C158.061 101.337 157.375 100.866 156.854 100.266L158.486 98.5996C159.336 99.5629 160.424 100.045 161.75 100.045C163.11 100.045 163.79 99.6026 163.79 98.7186C163.79 98.3446 163.654 98.0556 163.382 97.8516C163.11 97.6476 162.645 97.4663 161.988 97.3076L160.883 97.0696C159.625 96.8089 158.701 96.4066 158.112 95.8626C157.523 95.3186 157.228 94.5933 157.228 93.6866C157.228 92.5759 157.63 91.7033 158.435 91.0686C159.251 90.4226 160.367 90.0996 161.784 90.0996C163.518 90.0996 164.969 90.6719 166.136 91.8166L164.538 93.4826C164.119 93.0066 163.677 92.6779 163.212 92.4966C162.759 92.3039 162.22 92.2076 161.597 92.2076C161.008 92.2076 160.549 92.3266 160.22 92.5646C159.891 92.7913 159.727 93.1086 159.727 93.5166C159.727 93.8679 159.863 94.1456 160.135 94.3496C160.418 94.5536 160.883 94.7293 161.529 94.8766L162.634 95.0976C163.903 95.3696 164.833 95.7833 165.422 96.3386C166.011 96.8939 166.306 97.6363 166.306 98.5656C166.306 99.6649 165.892 100.543 165.065 101.201C164.249 101.847 163.127 102.17 161.699 102.17Z" fill="black"/>
<path d="M146.251 102H143.769V90.2695H146.608L151.453 97.6985C151.555 97.8459 151.685 98.0669 151.844 98.3615C151.833 98.2142 151.827 97.9932 151.827 97.6985V90.2695H154.309V102H151.453L146.625 94.6045C146.41 94.2645 146.279 94.0435 146.234 93.9415C146.245 94.1002 146.251 94.3212 146.251 94.6045V102Z" fill="black"/>
<path d="M140.488 102H137.955V90.2695H140.488V102Z" fill="black"/>
<path d="M124.878 102H122.396V90.2695H125.524L128.55 96.3215L131.576 90.2695H134.687V102H132.205V94.6045C132.205 94.3212 132.211 94.1059 132.222 93.9585C132.086 94.2532 131.978 94.4685 131.899 94.6045L129.604 99.2455H127.513L125.184 94.5875L124.861 93.9585C124.872 94.1059 124.878 94.3269 124.878 94.6215V102Z" fill="black"/>
<path d="M111.861 90.2695H113.952V102H111.436V93.3295C110.915 93.8509 110.076 94.1115 108.92 94.1115V91.7825C110.371 91.7825 111.351 91.2782 111.861 90.2695Z" fill="black"/>
<path d="M104.437 90.2695H106.528V102H104.012V93.3295C103.49 93.8509 102.652 94.1115 101.496 94.1115V91.7825C102.946 91.7825 103.927 91.2782 104.437 90.2695Z" fill="black"/>
<g clip-path="url(#clip0_1580_645)">
<path d="M183.565 93.88C184.455 91.18 186.995 89.23 190.005 89.23C193.015 89.23 195.555 91.18 196.445 93.88H183.565ZM189.995 102.77C186.995 102.77 184.455 100.82 183.565 98.12H196.435C195.545 100.82 192.995 102.77 190.005 102.77M200.285 93.88C199.305 89.1 195.065 85.5 189.995 85.5C184.925 85.5 180.695 89.1 179.705 93.88H177.105V98.13H179.715C180.695 102.91 184.925 106.5 190.005 106.5C195.085 106.5 199.305 102.91 200.285 98.13H202.905V93.88H200.285Z" fill="black"/>
</g>
<defs>
<clipPath id="clip0_1580_645">
<rect width="25.79" height="21" fill="white" transform="translate(177.105 85.5)"/>
</clipPath>
</defs>
</svg>
