<svg width="305" height="132" viewBox="0 0 305 132" fill="none" xmlns="http://www.w3.org/2000/svg">
<path d="M222.164 91.45C219.524 91.45 217.064 91.015 214.784 90.145C212.534 89.245 210.719 88 209.339 86.41L213.659 82C215.909 84.55 218.789 85.825 222.299 85.825C225.899 85.825 227.699 84.655 227.699 82.315C227.699 81.325 227.339 80.56 226.619 80.02C225.899 79.48 224.669 79 222.929 78.58L220.004 77.95C216.674 77.26 214.229 76.195 212.669 74.755C211.109 73.315 210.329 71.395 210.329 68.995C210.329 66.055 211.394 63.745 213.524 62.065C215.684 60.355 218.639 59.5 222.389 59.5C226.979 59.5 230.819 61.015 233.909 64.045L229.679 68.455C228.569 67.195 227.399 66.325 226.169 65.845C224.969 65.335 223.544 65.08 221.894 65.08C220.334 65.08 219.119 65.395 218.249 66.025C217.379 66.625 216.944 67.465 216.944 68.545C216.944 69.475 217.304 70.21 218.024 70.75C218.774 71.29 220.004 71.755 221.714 72.145L224.639 72.73C227.999 73.45 230.459 74.545 232.019 76.015C233.579 77.485 234.359 79.45 234.359 81.91C234.359 84.82 233.264 87.145 231.074 88.885C228.914 90.595 225.944 91.45 222.164 91.45Z" fill="black"/>
<path d="M191.588 91.4052C187.328 91.3752 184.013 90.2052 181.643 87.8952C179.273 85.5552 178.088 82.3002 178.088 78.1302V59.9502H184.793V77.4552C184.793 79.9152 185.378 81.8202 186.548 83.1702C187.748 84.5202 189.443 85.2102 191.633 85.2402C193.823 85.1802 195.488 84.5052 196.628 83.2152C197.798 81.8952 198.383 80.0052 198.383 77.5452V59.9502H205.088V78.0402C205.088 82.2402 203.903 85.5102 201.533 87.8502C199.163 90.1902 195.848 91.3752 191.588 91.4052Z" fill="black"/>
<path d="M161.472 91.45C156.822 91.45 152.967 89.95 149.907 86.95C146.877 83.95 145.362 80.11 145.362 75.43C145.362 70.78 146.877 66.97 149.907 64C152.967 61 156.822 59.5 161.472 59.5C166.662 59.5 170.817 61.345 173.937 65.035L168.987 69.13C167.097 66.82 164.592 65.665 161.472 65.665C158.802 65.665 156.612 66.565 154.902 68.365C153.192 70.165 152.337 72.52 152.337 75.43C152.337 78.4 153.177 80.785 154.857 82.585C156.537 84.385 158.742 85.285 161.472 85.285C163.152 85.285 164.607 85 165.837 84.43C167.067 83.83 168.267 82.87 169.437 81.55L174.297 85.69C171.267 89.53 166.992 91.45 161.472 91.45Z" fill="black"/>
<path d="M137.323 81.0552L143.578 91.0002H135.793L130.168 81.7302C129.718 80.9502 129.328 80.4702 128.998 80.2902C128.668 80.0802 128.098 79.9752 127.288 79.9752H123.013V91.0002H116.308V59.9502H130.348C133.708 59.9502 136.423 60.8352 138.493 62.6052C140.563 64.3752 141.598 66.7302 141.598 69.6702C141.598 71.8302 141.058 73.6752 139.978 75.2052C138.928 76.7352 137.413 77.8602 135.433 78.5802C135.913 78.9702 136.543 79.7952 137.323 81.0552ZM123.013 65.7552V74.3502H129.223C132.823 74.3502 134.623 72.9252 134.623 70.0752C134.623 67.1952 132.823 65.7552 129.223 65.7552H123.013Z" fill="black"/>
<path d="M109.873 91.0002H103.168V59.9502H109.873V91.0002Z" fill="black"/>
<path d="M86.2819 91.45C81.6319 91.45 77.7769 89.95 74.7169 86.95C71.6869 83.95 70.1719 80.11 70.1719 75.43C70.1719 70.78 71.6869 66.97 74.7169 64C77.7769 61 81.6319 59.5 86.2819 59.5C91.4719 59.5 95.6269 61.345 98.7469 65.035L93.7969 69.13C91.9069 66.82 89.4019 65.665 86.2819 65.665C83.6119 65.665 81.4219 66.565 79.7119 68.365C78.0019 70.165 77.1469 72.52 77.1469 75.43C77.1469 78.4 77.9869 80.785 79.6669 82.585C81.3469 84.385 83.5519 85.285 86.2819 85.285C87.9619 85.285 89.4169 85 90.6469 84.43C91.8769 83.83 93.0769 82.87 94.2469 81.55L99.1069 85.69C96.0769 89.53 91.8019 91.45 86.2819 91.45Z" fill="black"/>
<path d="M229.042 41.0002H217.162V9.9502H229.042C233.902 9.9502 237.922 11.3452 241.102 14.1352C244.312 16.8952 245.917 20.6602 245.917 25.4302C245.917 30.2002 244.312 33.9952 241.102 36.8152C237.892 39.6052 233.872 41.0002 229.042 41.0002ZM223.867 16.1152V34.8352H228.682C231.712 34.8352 234.172 34.0402 236.062 32.4502C237.982 30.8302 238.942 28.4902 238.942 25.4302C238.942 22.4002 237.997 20.0902 236.107 18.5002C234.217 16.9102 231.742 16.1152 228.682 16.1152H223.867Z" fill="black"/>
<path d="M207.108 31.0552L213.363 41.0002H205.578L199.953 31.7302C199.503 30.9502 199.113 30.4702 198.783 30.2902C198.453 30.0802 197.883 29.9752 197.073 29.9752H192.798V41.0002H186.093V9.9502H200.133C203.493 9.9502 206.208 10.8352 208.278 12.6052C210.348 14.3752 211.383 16.7302 211.383 19.6702C211.383 21.8302 210.843 23.6752 209.763 25.2052C208.713 26.7352 207.198 27.8602 205.218 28.5802C205.698 28.9702 206.328 29.7952 207.108 31.0552ZM192.798 15.7552V24.3502H199.008C202.608 24.3502 204.408 22.9252 204.408 20.0752C204.408 17.1952 202.608 15.7552 199.008 15.7552H192.798Z" fill="black"/>
<path d="M165.122 41.45C160.442 41.45 156.572 39.95 153.512 36.95C150.452 33.95 148.922 30.125 148.922 25.475C148.922 20.825 150.452 17 153.512 14C156.572 11 160.442 9.5 165.122 9.5C169.772 9.5 173.627 11 176.687 14C179.747 17 181.277 20.825 181.277 25.475C181.277 30.125 179.747 33.95 176.687 36.95C173.627 39.95 169.772 41.45 165.122 41.45ZM165.122 35.285C167.822 35.285 170.027 34.385 171.737 32.585C173.447 30.785 174.302 28.415 174.302 25.475C174.302 22.535 173.447 20.165 171.737 18.365C170.027 16.565 167.822 15.665 165.122 15.665C162.392 15.665 160.172 16.565 158.462 18.365C156.752 20.165 155.897 22.535 155.897 25.475C155.897 28.415 156.752 30.785 158.462 32.585C160.172 34.385 162.392 35.285 165.122 35.285Z" fill="black"/>
<path d="M132.065 41.0002H125.36V9.9502H146.51V16.1152H132.065V23.1802H144.44V29.3002H132.065V41.0002Z" fill="black"/>
<path d="M99.693 41.0002H91.728L102.303 25.3852L91.908 9.9502H99.918L106.083 19.5352C106.173 19.6552 106.278 19.8202 106.398 20.0302C106.518 20.2102 106.593 20.3302 106.623 20.3902C106.683 20.3002 106.758 20.1652 106.848 19.9852C106.968 19.7752 107.058 19.6252 107.118 19.5352L113.328 9.9502H121.293L110.853 25.3402L121.383 41.0002H113.373L107.118 31.2352C106.998 31.0552 106.818 30.7552 106.578 30.3352C106.338 30.7552 106.158 31.0552 106.038 31.2352L99.693 41.0002Z" fill="black"/>
<path d="M74.9461 41.45C70.2661 41.45 66.3961 39.95 63.3361 36.95C60.2761 33.95 58.7461 30.125 58.7461 25.475C58.7461 20.825 60.2761 17 63.3361 14C66.3961 11 70.2661 9.5 74.9461 9.5C79.5961 9.5 83.4511 11 86.5111 14C89.5711 17 91.1011 20.825 91.1011 25.475C91.1011 30.125 89.5711 33.95 86.5111 36.95C83.4511 39.95 79.5961 41.45 74.9461 41.45ZM74.9461 35.285C77.6461 35.285 79.8511 34.385 81.5611 32.585C83.2711 30.785 84.1261 28.415 84.1261 25.475C84.1261 22.535 83.2711 20.165 81.5611 18.365C79.8511 16.565 77.6461 15.665 74.9461 15.665C72.2161 15.665 69.9961 16.565 68.2861 18.365C66.5761 20.165 65.7211 22.535 65.7211 25.475C65.7211 28.415 66.5761 30.785 68.2861 32.585C69.9961 34.385 72.2161 35.285 74.9461 35.285Z" fill="black"/>
<path d="M163.872 127.17C162.875 127.17 161.946 127.005 161.084 126.677C160.234 126.337 159.549 125.866 159.027 125.266L160.659 123.6C161.509 124.563 162.597 125.045 163.923 125.045C165.283 125.045 165.963 124.603 165.963 123.719C165.963 123.345 165.827 123.056 165.555 122.852C165.283 122.648 164.819 122.466 164.161 122.308L163.056 122.07C161.798 121.809 160.875 121.407 160.285 120.863C159.696 120.319 159.401 119.593 159.401 118.687C159.401 117.576 159.804 116.703 160.608 116.069C161.424 115.423 162.541 115.1 163.957 115.1C165.691 115.1 167.142 115.672 168.309 116.817L166.711 118.483C166.292 118.007 165.85 117.678 165.385 117.497C164.932 117.304 164.394 117.208 163.77 117.208C163.181 117.208 162.722 117.327 162.393 117.565C162.065 117.791 161.9 118.109 161.9 118.517C161.9 118.868 162.036 119.146 162.308 119.35C162.592 119.554 163.056 119.729 163.702 119.877L164.807 120.098C166.077 120.37 167.006 120.783 167.595 121.339C168.185 121.894 168.479 122.636 168.479 123.566C168.479 124.665 168.066 125.543 167.238 126.201C166.422 126.847 165.3 127.17 163.872 127.17Z" fill="black"/>
<path d="M148.424 127H145.942V115.27H148.781L153.626 122.699C153.728 122.846 153.859 123.067 154.017 123.362C154.006 123.214 154 122.993 154 122.699V115.27H156.482V127H153.626L148.798 119.605C148.583 119.265 148.453 119.044 148.407 118.942C148.419 119.1 148.424 119.321 148.424 119.605V127Z" fill="black"/>
<path d="M142.661 127H140.128V115.27H142.661V127Z" fill="black"/>
<path d="M127.051 127H124.569V115.27H127.697L130.723 121.322L133.749 115.27H136.86V127H134.378V119.605C134.378 119.321 134.384 119.106 134.395 118.959C134.259 119.253 134.152 119.469 134.072 119.605L131.777 124.246H129.686L127.357 119.588L127.034 118.959C127.046 119.106 127.051 119.327 127.051 119.622V127Z" fill="black"/>
<path d="M114.034 115.27H116.125V127H113.609V118.33C113.088 118.851 112.249 119.112 111.093 119.112V116.783C112.544 116.783 113.524 116.278 114.034 115.27Z" fill="black"/>
<path d="M106.61 115.27H108.701V127H106.185V118.33C105.664 118.851 104.825 119.112 103.669 119.112V116.783C105.12 116.783 106.1 116.278 106.61 115.27Z" fill="black"/>
<g clip-path="url(#clip0_1580_604)">
<path d="M199.169 118.24V120.45H195.199C194.629 120.45 194.049 120.22 193.639 119.81L191.429 117.6L188.569 120.45L190.779 122.66C191.199 123.08 191.429 123.64 191.429 124.23V129.29H189.219V124.23L185.899 120.91C185.479 120.49 185.249 119.94 185.249 119.34C185.249 118.74 185.479 118.2 185.899 117.78L189.539 114.14C189.969 113.71 190.679 113.71 191.109 114.14L195.199 118.23H199.169V118.24Z" fill="black"/>
<path d="M196.958 112.71C196.958 113.94 195.968 114.92 194.748 114.92C193.528 114.92 192.538 113.94 192.538 112.71C192.538 111.48 193.538 110.5 194.748 110.5C195.958 110.5 196.958 111.49 196.958 112.71Z" fill="black"/>
<path d="M201.388 127.08C201.388 129.52 199.408 131.5 196.968 131.5C194.528 131.5 192.548 129.52 192.548 127.08C192.548 124.64 194.528 122.66 196.968 122.66C199.408 122.66 201.388 124.65 201.388 127.08Z" fill="black"/>
<path d="M188.118 127.08C188.118 129.52 186.138 131.5 183.698 131.5C181.258 131.5 179.278 129.52 179.278 127.08C179.278 124.64 181.258 122.66 183.698 122.66C186.138 122.66 188.118 124.65 188.118 127.08Z" fill="black"/>
</g>
<defs>
<clipPath id="clip0_1580_604">
<rect width="22.11" height="21" fill="white" transform="translate(179.278 110.5)"/>
</clipPath>
</defs>
</svg>
