<svg width="305" height="132" viewBox="0 0 305 132" fill="none" xmlns="http://www.w3.org/2000/svg">
<path d="M283.205 91.0002H271.325V59.9502H283.205C288.065 59.9502 292.085 61.3452 295.265 64.1352C298.475 66.8952 300.08 70.6602 300.08 75.4302C300.08 80.2002 298.475 83.9952 295.265 86.8152C292.055 89.6052 288.035 91.0002 283.205 91.0002ZM278.03 66.1152V84.8352H282.845C285.875 84.8352 288.335 84.0402 290.225 82.4502C292.145 80.8302 293.105 78.4902 293.105 75.4302C293.105 72.4002 292.16 70.0902 290.27 68.5002C288.38 66.9102 285.905 66.1152 282.845 66.1152H278.03Z" fill="black"/>
<path d="M267.816 91.0002H260.706L258.231 84.0702H246.036L243.561 91.0002H236.496L248.511 59.9502H255.846L267.816 91.0002ZM251.616 68.6352L248.106 78.4002H256.206L252.696 68.6352C252.666 68.5152 252.606 68.3502 252.516 68.1402C252.456 67.9302 252.396 67.7352 252.336 67.5552C252.276 67.3752 252.216 67.1952 252.156 67.0152L251.616 68.6352Z" fill="black"/>
<path d="M219.988 91.45C215.308 91.45 211.438 89.95 208.378 86.95C205.318 83.95 203.788 80.125 203.788 75.475C203.788 70.825 205.318 67 208.378 64C211.438 61 215.308 59.5 219.988 59.5C224.638 59.5 228.493 61 231.553 64C234.613 67 236.143 70.825 236.143 75.475C236.143 80.125 234.613 83.95 231.553 86.95C228.493 89.95 224.638 91.45 219.988 91.45ZM219.988 85.285C222.688 85.285 224.893 84.385 226.603 82.585C228.313 80.785 229.168 78.415 229.168 75.475C229.168 72.535 228.313 70.165 226.603 68.365C224.893 66.565 222.688 65.665 219.988 65.665C217.258 65.665 215.038 66.565 213.328 68.365C211.618 70.165 210.763 72.535 210.763 75.475C210.763 78.415 211.618 80.785 213.328 82.585C215.038 84.385 217.258 85.285 219.988 85.285Z" fill="black"/>
<path d="M195.748 81.0552L202.003 91.0002H194.218L188.593 81.7302C188.143 80.9502 187.753 80.4702 187.423 80.2902C187.093 80.0802 186.523 79.9752 185.713 79.9752H181.438V91.0002H174.733V59.9502H188.773C192.133 59.9502 194.848 60.8352 196.918 62.6052C198.988 64.3752 200.023 66.7302 200.023 69.6702C200.023 71.8302 199.483 73.6752 198.403 75.2052C197.353 76.7352 195.838 77.8602 193.858 78.5802C194.338 78.9702 194.968 79.7952 195.748 81.0552ZM181.438 65.7552V74.3502H187.648C191.248 74.3502 193.048 72.9252 193.048 70.0752C193.048 67.1952 191.248 65.7552 187.648 65.7552H181.438Z" fill="black"/>
<path d="M149.92 91.0002H143.26V66.1152H133.765V59.9502H159.415V66.1152H149.92V91.0002Z" fill="black"/>
<path d="M126.622 81.0552L132.877 91.0002H125.092L119.467 81.7302C119.017 80.9502 118.627 80.4702 118.297 80.2902C117.967 80.0802 117.397 79.9752 116.587 79.9752H112.312V91.0002H105.607V59.9502H119.647C123.007 59.9502 125.722 60.8352 127.792 62.6052C129.862 64.3752 130.897 66.7302 130.897 69.6702C130.897 71.8302 130.357 73.6752 129.277 75.2052C128.227 76.7352 126.712 77.8602 124.732 78.5802C125.212 78.9702 125.842 79.7952 126.622 81.0552ZM112.312 65.7552V74.3502H118.522C122.122 74.3502 123.922 72.9252 123.922 70.0752C123.922 67.1952 122.122 65.7552 118.522 65.7552H112.312Z" fill="black"/>
<path d="M85.9658 91.4052C81.7058 91.3752 78.3908 90.2052 76.0208 87.8952C73.6508 85.5552 72.4658 82.3002 72.4658 78.1302V59.9502H79.1708V77.4552C79.1708 79.9152 79.7558 81.8202 80.9258 83.1702C82.1258 84.5202 83.8208 85.2102 86.0108 85.2402C88.2008 85.1802 89.8658 84.5052 91.0058 83.2152C92.1758 81.8952 92.7608 80.0052 92.7608 77.5452V59.9502H99.4658V78.0402C99.4658 82.2402 98.2808 85.5102 95.9108 87.8502C93.5408 90.1902 90.2258 91.3752 85.9658 91.4052Z" fill="black"/>
<path d="M51.7649 91.45C47.0849 91.45 43.2149 89.95 40.1549 86.95C37.0949 83.95 35.5649 80.125 35.5649 75.475C35.5649 70.825 37.0949 67 40.1549 64C43.2149 61 47.0849 59.5 51.7649 59.5C56.4149 59.5 60.2699 61 63.3299 64C66.3899 67 67.9199 70.825 67.9199 75.475C67.9199 80.125 66.3899 83.95 63.3299 86.95C60.2699 89.95 56.4149 91.45 51.7649 91.45ZM51.7649 85.285C54.4649 85.285 56.6699 84.385 58.3799 82.585C60.0899 80.785 60.9449 78.415 60.9449 75.475C60.9449 72.535 60.0899 70.165 58.3799 68.365C56.6699 66.565 54.4649 65.665 51.7649 65.665C49.0349 65.665 46.8149 66.565 45.1049 68.365C43.3949 70.165 42.5399 72.535 42.5399 75.475C42.5399 78.415 43.3949 80.785 45.1049 82.585C46.8149 84.385 49.0349 85.285 51.7649 85.285Z" fill="black"/>
<path d="M20.6935 91.45C16.0435 91.45 12.1885 89.95 9.1285 86.95C6.0985 83.95 4.5835 80.11 4.5835 75.43C4.5835 70.78 6.0985 66.97 9.1285 64C12.1885 61 16.0435 59.5 20.6935 59.5C25.8835 59.5 30.0385 61.345 33.1585 65.035L28.2085 69.13C26.3185 66.82 23.8135 65.665 20.6935 65.665C18.0235 65.665 15.8335 66.565 14.1235 68.365C12.4135 70.165 11.5585 72.52 11.5585 75.43C11.5585 78.4 12.3985 80.785 14.0785 82.585C15.7585 84.385 17.9635 85.285 20.6935 85.285C22.3735 85.285 23.8285 85 25.0585 84.43C26.2885 83.83 27.4885 82.87 28.6585 81.55L33.5185 85.69C30.4885 89.53 26.2135 91.45 20.6935 91.45Z" fill="black"/>
<path d="M265.129 41.0002H258.559V9.9502H266.839L274.849 25.9702L282.859 9.9502H291.094V41.0002H284.524V21.4252C284.524 20.6752 284.539 20.1052 284.569 19.7152C284.209 20.4952 283.924 21.0652 283.714 21.4252L277.639 33.7102H272.104L265.939 21.3802L265.084 19.7152C265.114 20.1052 265.129 20.6902 265.129 21.4702V41.0002Z" fill="black"/>
<path d="M255.05 41.0002H247.94L245.465 34.0702H233.27L230.795 41.0002H223.73L235.745 9.9502H243.08L255.05 41.0002ZM238.85 18.6352L235.34 28.4002H243.44L239.93 18.6352C239.9 18.5152 239.84 18.3502 239.75 18.1402C239.69 17.9302 239.63 17.7352 239.57 17.5552C239.51 17.3752 239.45 17.1952 239.39 17.0152L238.85 18.6352Z" fill="black"/>
<path d="M213.513 22.1452V9.9502H220.218V41.0002H213.513V28.2652H199.653V41.0002H192.948V9.9502H199.653V22.1452H213.513Z" fill="black"/>
<path d="M165.241 41.0002H158.671V9.9502H166.186L179.011 29.6152C179.281 30.0052 179.626 30.5902 180.046 31.3702C180.016 30.9802 180.001 30.3952 180.001 29.6152V9.9502H186.571V41.0002H179.011L166.231 21.4252C165.661 20.5252 165.316 19.9402 165.196 19.6702C165.226 20.0902 165.241 20.6752 165.241 21.4252V41.0002Z" fill="black"/>
<path d="M153.793 41.0002H131.293V9.9502H153.568V15.8452H137.998V22.3252H151.138V28.2202H137.998V35.1052H153.793V41.0002Z" fill="black"/>
<path d="M117.73 41.0002H111.07V16.1152H101.575V9.9502H127.225V16.1152H117.73V41.0002Z" fill="black"/>
<path d="M89.2531 41.0002H82.5931V16.1152H73.0981V9.9502H98.7481V16.1152H89.2531V41.0002Z" fill="black"/>
<path d="M54.4676 41.45C49.7876 41.45 45.9176 39.95 42.8576 36.95C39.7976 33.95 38.2676 30.125 38.2676 25.475C38.2676 20.825 39.7976 17 42.8576 14C45.9176 11 49.7876 9.5 54.4676 9.5C59.1176 9.5 62.9726 11 66.0326 14C69.0926 17 70.6226 20.825 70.6226 25.475C70.6226 30.125 69.0926 33.95 66.0326 36.95C62.9726 39.95 59.1176 41.45 54.4676 41.45ZM54.4676 35.285C57.1676 35.285 59.3726 34.385 61.0826 32.585C62.7926 30.785 63.6476 28.415 63.6476 25.475C63.6476 22.535 62.7926 20.165 61.0826 18.365C59.3726 16.565 57.1676 15.665 54.4676 15.665C51.7376 15.665 49.5176 16.565 47.8076 18.365C46.0976 20.165 45.2426 22.535 45.2426 25.475C45.2426 28.415 46.0976 30.785 47.8076 32.585C49.5176 34.385 51.7376 35.285 54.4676 35.285Z" fill="black"/>
<path d="M27.3781 41.0002H20.7181V16.1152H11.2231V9.9502H36.8731V16.1152H27.3781V41.0002Z" fill="black"/>
<path d="M166.199 127.17C165.202 127.17 164.273 127.005 163.411 126.677C162.561 126.337 161.876 125.866 161.354 125.266L162.986 123.6C163.836 124.563 164.924 125.045 166.25 125.045C167.61 125.045 168.29 124.603 168.29 123.719C168.29 123.345 168.154 123.056 167.882 122.852C167.61 122.648 167.146 122.466 166.488 122.308L165.383 122.07C164.125 121.809 163.202 121.407 162.612 120.863C162.023 120.319 161.728 119.593 161.728 118.687C161.728 117.576 162.131 116.703 162.935 116.069C163.751 115.423 164.868 115.1 166.284 115.1C168.018 115.1 169.469 115.672 170.636 116.817L169.038 118.483C168.619 118.007 168.177 117.678 167.712 117.497C167.259 117.304 166.721 117.208 166.097 117.208C165.508 117.208 165.049 117.327 164.72 117.565C164.392 117.791 164.227 118.109 164.227 118.517C164.227 118.868 164.363 119.146 164.635 119.35C164.919 119.554 165.383 119.729 166.029 119.877L167.134 120.098C168.404 120.37 169.333 120.783 169.922 121.339C170.512 121.894 170.806 122.636 170.806 123.566C170.806 124.665 170.393 125.543 169.565 126.201C168.749 126.847 167.627 127.17 166.199 127.17Z" fill="black"/>
<path d="M150.752 127H148.27V115.27H151.109L155.954 122.699C156.056 122.846 156.186 123.067 156.345 123.362C156.333 123.214 156.328 122.993 156.328 122.699V115.27H158.81V127H155.954L151.126 119.605C150.91 119.265 150.78 119.044 150.735 118.942C150.746 119.1 150.752 119.321 150.752 119.605V127Z" fill="black"/>
<path d="M144.989 127H142.456V115.27H144.989V127Z" fill="black"/>
<path d="M129.378 127H126.896V115.27H130.024L133.05 121.322L136.076 115.27H139.187V127H136.705V119.605C136.705 119.321 136.711 119.106 136.722 118.959C136.586 119.253 136.479 119.469 136.399 119.605L134.104 124.246H132.013L129.684 119.588L129.361 118.959C129.373 119.106 129.378 119.327 129.378 119.622V127Z" fill="black"/>
<path d="M119.012 127H110.257V125.011L114.609 121.679C115.244 121.18 115.697 120.727 115.969 120.319C116.241 119.911 116.377 119.474 116.377 119.01C116.377 118.511 116.213 118.109 115.884 117.803C115.555 117.485 115.119 117.327 114.575 117.327C113.623 117.327 112.796 117.78 112.093 118.687L110.342 117.157C111.396 115.785 112.869 115.1 114.762 115.1C116.043 115.1 117.051 115.44 117.788 116.12C118.536 116.788 118.91 117.689 118.91 118.823C118.91 119.571 118.689 120.279 118.247 120.948C117.805 121.616 117.085 122.336 116.088 123.107C115.215 123.775 114.445 124.342 113.776 124.807H119.012V127Z" fill="black"/>
<path d="M103.136 127.17C101.606 127.17 100.388 126.626 99.4812 125.538C98.5859 124.45 98.1382 122.982 98.1382 121.135C98.1382 119.287 98.5859 117.82 99.4812 116.732C100.388 115.644 101.606 115.1 103.136 115.1C104.666 115.1 105.873 115.644 106.757 116.732C107.653 117.808 108.1 119.276 108.1 121.135C108.1 122.982 107.653 124.45 106.757 125.538C105.862 126.626 104.655 127.17 103.136 127.17ZM103.136 124.875C103.896 124.875 104.491 124.546 104.921 123.889C105.352 123.22 105.567 122.302 105.567 121.135C105.567 119.967 105.352 119.055 104.921 118.398C104.491 117.729 103.896 117.395 103.136 117.395C102.366 117.395 101.759 117.729 101.317 118.398C100.887 119.055 100.671 119.967 100.671 121.135C100.671 122.302 100.887 123.22 101.317 123.889C101.759 124.546 102.366 124.875 103.136 124.875Z" fill="black"/>
<g clip-path="url(#clip0_1580_631)">
<path d="M188.398 118.88C189.288 116.18 191.828 114.23 194.838 114.23C197.848 114.23 200.388 116.18 201.278 118.88H188.398ZM194.828 127.77C191.828 127.77 189.288 125.82 188.398 123.12H201.268C200.378 125.82 197.828 127.77 194.838 127.77M205.118 118.88C204.138 114.1 199.898 110.5 194.828 110.5C189.758 110.5 185.528 114.1 184.538 118.88H181.938V123.13H184.548C185.528 127.91 189.758 131.5 194.838 131.5C199.918 131.5 204.138 127.91 205.118 123.13H207.738V118.88H205.118Z" fill="black"/>
</g>
<defs>
<clipPath id="clip0_1580_631">
<rect width="25.79" height="21" fill="white" transform="translate(181.938 110.5)"/>
</clipPath>
</defs>
</svg>
