<svg width="305" height="132" viewBox="0 0 305 132" fill="none" xmlns="http://www.w3.org/2000/svg">
<path d="M215.001 91.45C212.361 91.45 209.901 91.015 207.621 90.145C205.371 89.245 203.556 88 202.176 86.41L206.496 82C208.746 84.55 211.626 85.825 215.136 85.825C218.736 85.825 220.536 84.655 220.536 82.315C220.536 81.325 220.176 80.56 219.456 80.02C218.736 79.48 217.506 79 215.766 78.58L212.841 77.95C209.511 77.26 207.066 76.195 205.506 74.755C203.946 73.315 203.166 71.395 203.166 68.995C203.166 66.055 204.231 63.745 206.361 62.065C208.521 60.355 211.476 59.5 215.226 59.5C219.816 59.5 223.656 61.015 226.746 64.045L222.516 68.455C221.406 67.195 220.236 66.325 219.006 65.845C217.806 65.335 216.381 65.08 214.731 65.08C213.171 65.08 211.956 65.395 211.086 66.025C210.216 66.625 209.781 67.465 209.781 68.545C209.781 69.475 210.141 70.21 210.861 70.75C211.611 71.29 212.841 71.755 214.551 72.145L217.476 72.73C220.836 73.45 223.296 74.545 224.856 76.015C226.416 77.485 227.196 79.45 227.196 81.91C227.196 84.82 226.101 87.145 223.911 88.885C221.751 90.595 218.781 91.45 215.001 91.45Z" fill="black"/>
<path d="M187.492 91.45C184.852 91.45 182.392 91.015 180.112 90.145C177.862 89.245 176.047 88 174.667 86.41L178.987 82C181.237 84.55 184.117 85.825 187.627 85.825C191.227 85.825 193.027 84.655 193.027 82.315C193.027 81.325 192.667 80.56 191.947 80.02C191.227 79.48 189.997 79 188.257 78.58L185.332 77.95C182.002 77.26 179.557 76.195 177.997 74.755C176.437 73.315 175.657 71.395 175.657 68.995C175.657 66.055 176.722 63.745 178.852 62.065C181.012 60.355 183.967 59.5 187.717 59.5C192.307 59.5 196.147 61.015 199.237 64.045L195.007 68.455C193.897 67.195 192.727 66.325 191.497 65.845C190.297 65.335 188.872 65.08 187.222 65.08C185.662 65.08 184.447 65.395 183.577 66.025C182.707 66.625 182.272 67.465 182.272 68.545C182.272 69.475 182.632 70.21 183.352 70.75C184.102 71.29 185.332 71.755 187.042 72.145L189.967 72.73C193.327 73.45 195.787 74.545 197.347 76.015C198.907 77.485 199.687 79.45 199.687 81.91C199.687 84.82 198.592 87.145 196.402 88.885C194.242 90.595 191.272 91.45 187.492 91.45Z" fill="black"/>
<path d="M155.586 91.45C150.906 91.45 147.036 89.95 143.976 86.95C140.916 83.95 139.386 80.125 139.386 75.475C139.386 70.825 140.916 67 143.976 64C147.036 61 150.906 59.5 155.586 59.5C160.236 59.5 164.091 61 167.151 64C170.211 67 171.741 70.825 171.741 75.475C171.741 80.125 170.211 83.95 167.151 86.95C164.091 89.95 160.236 91.45 155.586 91.45ZM155.586 85.285C158.286 85.285 160.491 84.385 162.201 82.585C163.911 80.785 164.766 78.415 164.766 75.475C164.766 72.535 163.911 70.165 162.201 68.365C160.491 66.565 158.286 65.665 155.586 65.665C152.856 65.665 150.636 66.565 148.926 68.365C147.216 70.165 146.361 72.535 146.361 75.475C146.361 78.415 147.216 80.785 148.926 82.585C150.636 84.385 152.856 85.285 155.586 85.285Z" fill="black"/>
<path d="M131.346 81.0552L137.601 91.0002H129.816L124.191 81.7302C123.741 80.9502 123.351 80.4702 123.021 80.2902C122.691 80.0802 122.121 79.9752 121.311 79.9752H117.036V91.0002H110.331V59.9502H124.371C127.731 59.9502 130.446 60.8352 132.516 62.6052C134.586 64.3752 135.621 66.7302 135.621 69.6702C135.621 71.8302 135.081 73.6752 134.001 75.2052C132.951 76.7352 131.436 77.8602 129.456 78.5802C129.936 78.9702 130.566 79.7952 131.346 81.0552ZM117.036 65.7552V74.3502H123.246C126.846 74.3502 128.646 72.9252 128.646 70.0752C128.646 67.1952 126.846 65.7552 123.246 65.7552H117.036Z" fill="black"/>
<path d="M93.445 91.45C88.795 91.45 84.94 89.95 81.88 86.95C78.85 83.95 77.335 80.11 77.335 75.43C77.335 70.78 78.85 66.97 81.88 64C84.94 61 88.795 59.5 93.445 59.5C98.635 59.5 102.79 61.345 105.91 65.035L100.96 69.13C99.07 66.82 96.565 65.665 93.445 65.665C90.775 65.665 88.585 66.565 86.875 68.365C85.165 70.165 84.31 72.52 84.31 75.43C84.31 78.4 85.15 80.785 86.83 82.585C88.51 84.385 90.715 85.285 93.445 85.285C95.125 85.285 96.58 85 97.81 84.43C99.04 83.83 100.24 82.87 101.41 81.55L106.27 85.69C103.24 89.53 98.965 91.45 93.445 91.45Z" fill="black"/>
<path d="M214.1 41.45C211.46 41.45 209 41.015 206.72 40.145C204.47 39.245 202.655 38 201.275 36.41L205.595 32C207.845 34.55 210.725 35.825 214.235 35.825C217.835 35.825 219.635 34.655 219.635 32.315C219.635 31.325 219.275 30.56 218.555 30.02C217.835 29.48 216.605 29 214.865 28.58L211.94 27.95C208.61 27.26 206.165 26.195 204.605 24.755C203.045 23.315 202.265 21.395 202.265 18.995C202.265 16.055 203.33 13.745 205.46 12.065C207.62 10.355 210.575 9.5 214.325 9.5C218.915 9.5 222.755 11.015 225.845 14.045L221.615 18.455C220.505 17.195 219.335 16.325 218.105 15.845C216.905 15.335 215.48 15.08 213.83 15.08C212.27 15.08 211.055 15.395 210.185 16.025C209.315 16.625 208.88 17.465 208.88 18.545C208.88 19.475 209.24 20.21 209.96 20.75C210.71 21.29 211.94 21.755 213.65 22.145L216.575 22.73C219.935 23.45 222.395 24.545 223.955 26.015C225.515 27.485 226.295 29.45 226.295 31.91C226.295 34.82 225.2 37.145 223.01 38.885C220.85 40.595 217.88 41.45 214.1 41.45Z" fill="black"/>
<path d="M194.603 9.67969C195.893 9.67969 196.913 10.1447 197.663 11.0747C198.443 11.9747 198.833 13.1447 198.833 14.5847C198.833 15.8747 198.488 17.2097 197.798 18.5897C197.108 19.9397 196.268 21.1397 195.278 22.1897H191.228C192.758 20.4797 193.733 18.9797 194.153 17.6897C193.133 17.5697 192.263 17.1497 191.543 16.4297C190.853 15.6797 190.508 14.7647 190.508 13.6847C190.508 12.5447 190.898 11.5997 191.678 10.8497C192.458 10.0697 193.433 9.67969 194.603 9.67969Z" fill="black"/>
<path d="M172.559 29.255V23.675H187.229V41H181.874V37.535C180.014 40.145 176.819 41.45 172.289 41.45C167.819 41.45 164.129 40.01 161.219 37.13C158.309 34.22 156.854 30.41 156.854 25.7C156.854 20.9 158.384 17 161.444 14C164.534 11 168.464 9.5 173.234 9.5C179.024 9.5 183.494 11.345 186.644 15.035L181.694 19.13C179.804 16.82 176.984 15.665 173.234 15.665C170.444 15.665 168.179 16.58 166.439 18.41C164.699 20.21 163.829 22.64 163.829 25.7C163.829 28.91 164.684 31.385 166.394 33.125C168.134 34.865 170.429 35.735 173.279 35.735C175.649 35.735 177.569 35.24 179.039 34.25C180.509 33.26 181.244 31.865 181.244 30.065V29.255H172.559Z" fill="black"/>
<path d="M130.722 41.0002H124.152V9.9502H131.667L144.492 29.6152C144.762 30.0052 145.107 30.5902 145.527 31.3702C145.497 30.9802 145.482 30.3952 145.482 29.6152V9.9502H152.052V41.0002H144.492L131.712 21.4252C131.142 20.5252 130.797 19.9402 130.677 19.6702C130.707 20.0902 130.722 20.6752 130.722 21.4252V41.0002Z" fill="black"/>
<path d="M117.717 41.0002H111.012V9.9502H117.717V41.0002Z" fill="black"/>
<path d="M95.201 22.9102L107.396 41.0002H99.656L90.791 27.7702L87.731 31.1452C86.951 31.9852 86.546 33.0952 86.516 34.4752V41.0002H79.811V9.9502H86.516V24.2602C86.756 23.8402 87.446 22.9702 88.586 21.6502L98.756 9.9502H106.901L95.201 22.9102Z" fill="black"/>
<path d="M165.931 127.17C164.934 127.17 164.004 127.005 163.143 126.677C162.293 126.337 161.607 125.866 161.086 125.266L162.718 123.6C163.568 124.563 164.656 125.045 165.982 125.045C167.342 125.045 168.022 124.603 168.022 123.719C168.022 123.345 167.886 123.056 167.614 122.852C167.342 122.648 166.877 122.466 166.22 122.308L165.115 122.07C163.857 121.809 162.933 121.407 162.344 120.863C161.755 120.319 161.46 119.593 161.46 118.687C161.46 117.576 161.862 116.703 162.667 116.069C163.483 115.423 164.599 115.1 166.016 115.1C167.75 115.1 169.201 115.672 170.368 116.817L168.77 118.483C168.351 118.007 167.909 117.678 167.444 117.497C166.991 117.304 166.452 117.208 165.829 117.208C165.24 117.208 164.781 117.327 164.452 117.565C164.123 117.791 163.959 118.109 163.959 118.517C163.959 118.868 164.095 119.146 164.367 119.35C164.65 119.554 165.115 119.729 165.761 119.877L166.866 120.098C168.135 120.37 169.065 120.783 169.654 121.339C170.243 121.894 170.538 122.636 170.538 123.566C170.538 124.665 170.124 125.543 169.297 126.201C168.481 126.847 167.359 127.17 165.931 127.17Z" fill="black"/>
<path d="M150.483 127H148.001V115.27H150.84L155.685 122.699C155.787 122.846 155.917 123.067 156.076 123.362C156.065 123.214 156.059 122.993 156.059 122.699V115.27H158.541V127H155.685L150.857 119.605C150.642 119.265 150.511 119.044 150.466 118.942C150.477 119.1 150.483 119.321 150.483 119.605V127Z" fill="black"/>
<path d="M144.72 127H142.187V115.27H144.72V127Z" fill="black"/>
<path d="M129.11 127H126.628V115.27H129.756L132.782 121.322L135.808 115.27H138.919V127H136.437V119.605C136.437 119.321 136.443 119.106 136.454 118.959C136.318 119.253 136.21 119.469 136.131 119.605L133.836 124.246H131.745L129.416 119.588L129.093 118.959C129.104 119.106 129.11 119.327 129.11 119.622V127Z" fill="black"/>
<path d="M114.9 119.435C116.09 119.435 117.042 119.78 117.756 120.472C118.47 121.163 118.827 122.075 118.827 123.209C118.827 124.421 118.413 125.385 117.586 126.099C116.758 126.813 115.665 127.17 114.305 127.17C112.82 127.17 111.647 126.677 110.786 125.691C109.936 124.705 109.511 123.35 109.511 121.628C109.511 119.554 109.97 117.95 110.888 116.817C111.817 115.672 113.12 115.1 114.798 115.1C116.464 115.1 117.761 115.593 118.691 116.579L117.11 118.16C116.452 117.502 115.67 117.174 114.764 117.174C113.891 117.174 113.205 117.502 112.707 118.16C112.219 118.817 111.976 119.735 111.976 120.914V120.965C112.236 120.5 112.627 120.132 113.149 119.86C113.681 119.576 114.265 119.435 114.9 119.435ZM114.322 125.249C114.945 125.249 115.438 125.073 115.801 124.722C116.175 124.37 116.362 123.906 116.362 123.328C116.362 122.75 116.175 122.285 115.801 121.934C115.438 121.582 114.945 121.407 114.322 121.407C113.71 121.407 113.217 121.582 112.843 121.934C112.48 122.285 112.299 122.75 112.299 123.328C112.299 123.906 112.48 124.37 112.843 124.722C113.217 125.073 113.71 125.249 114.322 125.249Z" fill="black"/>
<path d="M104.551 115.27H106.642V127H104.126V118.33C103.605 118.851 102.766 119.112 101.61 119.112V116.783C103.061 116.783 104.041 116.278 104.551 115.27Z" fill="black"/>
<g clip-path="url(#clip0_1580_614)">
<path d="M201.169 118.24V120.45H197.199C196.629 120.45 196.049 120.22 195.639 119.81L193.429 117.6L190.569 120.45L192.779 122.66C193.199 123.08 193.429 123.64 193.429 124.23V129.29H191.219V124.23L187.899 120.91C187.479 120.49 187.249 119.94 187.249 119.34C187.249 118.74 187.479 118.2 187.899 117.78L191.539 114.14C191.969 113.71 192.679 113.71 193.109 114.14L197.199 118.23H201.169V118.24Z" fill="black"/>
<path d="M198.958 112.71C198.958 113.94 197.968 114.92 196.748 114.92C195.528 114.92 194.538 113.94 194.538 112.71C194.538 111.48 195.538 110.5 196.748 110.5C197.958 110.5 198.958 111.49 198.958 112.71Z" fill="black"/>
<path d="M203.388 127.08C203.388 129.52 201.408 131.5 198.968 131.5C196.528 131.5 194.548 129.52 194.548 127.08C194.548 124.64 196.528 122.66 198.968 122.66C201.408 122.66 203.388 124.65 203.388 127.08Z" fill="black"/>
<path d="M190.118 127.08C190.118 129.52 188.138 131.5 185.698 131.5C183.258 131.5 181.278 129.52 181.278 127.08C181.278 124.64 183.258 122.66 185.698 122.66C188.138 122.66 190.118 124.65 190.118 127.08Z" fill="black"/>
</g>
<defs>
<clipPath id="clip0_1580_614">
<rect width="22.11" height="21" fill="white" transform="translate(181.278 110.5)"/>
</clipPath>
</defs>
</svg>
