<svg width="305" height="132" viewBox="0 0 305 132" fill="none" xmlns="http://www.w3.org/2000/svg">
<path d="M235.421 91.0002H212.921V59.9502H235.196V65.8452H219.626V72.3252H232.766V78.2202H219.626V85.1052H235.421V91.0002Z" fill="black"/>
<path d="M192.598 79.255V73.675H207.268V91H201.913V87.535C200.053 90.145 196.858 91.45 192.328 91.45C187.858 91.45 184.168 90.01 181.258 87.13C178.348 84.22 176.893 80.41 176.893 75.7C176.893 70.9 178.423 67 181.483 64C184.573 61 188.503 59.5 193.273 59.5C199.063 59.5 203.533 61.345 206.683 65.035L201.733 69.13C199.843 66.82 197.023 65.665 193.273 65.665C190.483 65.665 188.218 66.58 186.478 68.41C184.738 70.21 183.868 72.64 183.868 75.7C183.868 78.91 184.723 81.385 186.433 83.125C188.173 84.865 190.468 85.735 193.318 85.735C195.688 85.735 197.608 85.24 199.078 84.25C200.548 83.26 201.283 81.865 201.283 80.065V79.255H192.598Z" fill="black"/>
<path d="M156.51 91.0002H144.63V59.9502H156.51C161.37 59.9502 165.39 61.3452 168.57 64.1352C171.78 66.8952 173.385 70.6602 173.385 75.4302C173.385 80.2002 171.78 83.9952 168.57 86.8152C165.36 89.6052 161.34 91.0002 156.51 91.0002ZM151.335 66.1152V84.8352H156.15C159.18 84.8352 161.64 84.0402 163.53 82.4502C165.45 80.8302 166.41 78.4902 166.41 75.4302C166.41 72.4002 165.465 70.0902 163.575 68.5002C161.685 66.9102 159.21 66.1152 156.15 66.1152H151.335Z" fill="black"/>
<path d="M138.195 91.0002H131.49V59.9502H138.195V91.0002Z" fill="black"/>
<path d="M121.436 81.0552L127.691 91.0002H119.906L114.281 81.7302C113.831 80.9502 113.441 80.4702 113.111 80.2902C112.781 80.0802 112.211 79.9752 111.401 79.9752H107.126V91.0002H100.421V59.9502H114.461C117.821 59.9502 120.536 60.8352 122.606 62.6052C124.676 64.3752 125.711 66.7302 125.711 69.6702C125.711 71.8302 125.171 73.6752 124.091 75.2052C123.041 76.7352 121.526 77.8602 119.546 78.5802C120.026 78.9702 120.656 79.7952 121.436 81.0552ZM107.126 65.7552V74.3502H113.336C116.936 74.3502 118.736 72.9252 118.736 70.0752C118.736 67.1952 116.936 65.7552 113.336 65.7552H107.126Z" fill="black"/>
<path d="M84.3478 91.0002H70.7578V59.9502H83.6728C86.9428 59.9502 89.4928 60.6552 91.3228 62.0652C93.1828 63.4452 94.1128 65.3802 94.1128 67.8702C94.1128 71.2302 92.4628 73.5402 89.1628 74.8002C93.2728 75.7002 95.3278 78.1752 95.3278 82.2252C95.3278 84.9852 94.3528 87.1452 92.4028 88.7052C90.4828 90.2352 87.7978 91.0002 84.3478 91.0002ZM77.4628 65.3952V72.5052H82.9978C84.4078 72.5052 85.4878 72.2052 86.2378 71.6052C87.0178 70.9752 87.4078 70.0902 87.4078 68.9502C87.4078 67.8102 87.0178 66.9402 86.2378 66.3402C85.4878 65.7102 84.4078 65.3952 82.9978 65.3952H77.4628ZM77.4628 77.9502V85.5552H83.5378C85.0978 85.5552 86.2828 85.2252 87.0928 84.5652C87.9328 83.9052 88.3528 82.9602 88.3528 81.7302C88.3528 80.5002 87.9478 79.5702 87.1378 78.9402C86.3278 78.2802 85.1578 77.9502 83.6278 77.9502H77.4628Z" fill="black"/>
<path d="M226.742 41.0002H220.172V9.9502H227.687L240.512 29.6152C240.782 30.0052 241.127 30.5902 241.547 31.3702C241.517 30.9802 241.502 30.3952 241.502 29.6152V9.9502H248.072V41.0002H240.512L227.732 21.4252C227.162 20.5252 226.817 19.9402 226.697 19.6702C226.727 20.0902 226.742 20.6752 226.742 21.4252V41.0002Z" fill="black"/>
<path d="M199.201 41.45C194.521 41.45 190.651 39.95 187.591 36.95C184.531 33.95 183.001 30.125 183.001 25.475C183.001 20.825 184.531 17 187.591 14C190.651 11 194.521 9.5 199.201 9.5C203.851 9.5 207.706 11 210.766 14C213.826 17 215.356 20.825 215.356 25.475C215.356 30.125 213.826 33.95 210.766 36.95C207.706 39.95 203.851 41.45 199.201 41.45ZM199.201 35.285C201.901 35.285 204.106 34.385 205.816 32.585C207.526 30.785 208.381 28.415 208.381 25.475C208.381 22.535 207.526 20.165 205.816 18.365C204.106 16.565 201.901 15.665 199.201 15.665C196.471 15.665 194.251 16.565 192.541 18.365C190.831 20.165 189.976 22.535 189.976 25.475C189.976 28.415 190.831 30.785 192.541 32.585C194.251 34.385 196.471 35.285 199.201 35.285Z" fill="black"/>
<path d="M162.618 41.0002H150.738V9.9502H162.618C167.478 9.9502 171.498 11.3452 174.678 14.1352C177.888 16.8952 179.493 20.6602 179.493 25.4302C179.493 30.2002 177.888 33.9952 174.678 36.8152C171.468 39.6052 167.448 41.0002 162.618 41.0002ZM157.443 16.1152V34.8352H162.258C165.288 34.8352 167.748 34.0402 169.638 32.4502C171.558 30.8302 172.518 28.4902 172.518 25.4302C172.518 22.4002 171.573 20.0902 169.683 18.5002C167.793 16.9102 165.318 16.1152 162.258 16.1152H157.443Z" fill="black"/>
<path d="M123.031 41.0002H116.461V9.9502H123.976L136.801 29.6152C137.071 30.0052 137.416 30.5902 137.836 31.3702C137.806 30.9802 137.791 30.3952 137.791 29.6152V9.9502H144.361V41.0002H136.801L124.021 21.4252C123.451 20.5252 123.106 19.9402 122.986 19.6702C123.016 20.0902 123.031 20.6752 123.031 21.4252V41.0002Z" fill="black"/>
<path d="M95.49 41.45C90.81 41.45 86.94 39.95 83.88 36.95C80.82 33.95 79.29 30.125 79.29 25.475C79.29 20.825 80.82 17 83.88 14C86.94 11 90.81 9.5 95.49 9.5C100.14 9.5 103.995 11 107.055 14C110.115 17 111.645 20.825 111.645 25.475C111.645 30.125 110.115 33.95 107.055 36.95C103.995 39.95 100.14 41.45 95.49 41.45ZM95.49 35.285C98.19 35.285 100.395 34.385 102.105 32.585C103.815 30.785 104.67 28.415 104.67 25.475C104.67 22.535 103.815 20.165 102.105 18.365C100.395 16.565 98.19 15.665 95.49 15.665C92.76 15.665 90.54 16.565 88.83 18.365C87.12 20.165 86.265 22.535 86.265 25.475C86.265 28.415 87.12 30.785 88.83 32.585C90.54 34.385 92.76 35.285 95.49 35.285Z" fill="black"/>
<path d="M77.4874 41.0002H56.6074V9.9502H63.3124V34.8352H77.4874V41.0002Z" fill="black"/>
<path d="M166.304 127.17C165.307 127.17 164.378 127.005 163.516 126.677C162.666 126.337 161.981 125.866 161.459 125.266L163.091 123.6C163.941 124.563 165.029 125.045 166.355 125.045C167.715 125.045 168.395 124.603 168.395 123.719C168.395 123.345 168.259 123.056 167.987 122.852C167.715 122.648 167.251 122.466 166.593 122.308L165.488 122.07C164.23 121.809 163.307 121.407 162.717 120.863C162.128 120.319 161.833 119.593 161.833 118.687C161.833 117.576 162.236 116.703 163.04 116.069C163.856 115.423 164.973 115.1 166.389 115.1C168.123 115.1 169.574 115.672 170.741 116.817L169.143 118.483C168.724 118.007 168.282 117.678 167.817 117.497C167.364 117.304 166.826 117.208 166.202 117.208C165.613 117.208 165.154 117.327 164.825 117.565C164.497 117.791 164.332 118.109 164.332 118.517C164.332 118.868 164.468 119.146 164.74 119.35C165.024 119.554 165.488 119.729 166.134 119.877L167.239 120.098C168.509 120.37 169.438 120.783 170.027 121.339C170.617 121.894 170.911 122.636 170.911 123.566C170.911 124.665 170.498 125.543 169.67 126.201C168.854 126.847 167.732 127.17 166.304 127.17Z" fill="black"/>
<path d="M150.857 127H148.375V115.27H151.214L156.059 122.699C156.161 122.846 156.291 123.067 156.45 123.362C156.438 123.214 156.433 122.993 156.433 122.699V115.27H158.915V127H156.059L151.231 119.605C151.015 119.265 150.885 119.044 150.84 118.942C150.851 119.1 150.857 119.321 150.857 119.605V127Z" fill="black"/>
<path d="M145.094 127H142.561V115.27H145.094V127Z" fill="black"/>
<path d="M129.483 127H127.001V115.27H130.129L133.155 121.322L136.181 115.27H139.292V127H136.81V119.605C136.81 119.321 136.816 119.106 136.827 118.959C136.691 119.253 136.584 119.469 136.504 119.605L134.209 124.246H132.118L129.789 119.588L129.466 118.959C129.478 119.106 129.483 119.327 129.483 119.622V127Z" fill="black"/>
<path d="M114.135 127.17C112.605 127.17 111.387 126.626 110.48 125.538C109.585 124.45 109.137 122.982 109.137 121.135C109.137 119.287 109.585 117.82 110.48 116.732C111.387 115.644 112.605 115.1 114.135 115.1C115.665 115.1 116.872 115.644 117.756 116.732C118.652 117.808 119.099 119.276 119.099 121.135C119.099 122.982 118.652 124.45 117.756 125.538C116.861 126.626 115.654 127.17 114.135 127.17ZM114.135 124.875C114.895 124.875 115.49 124.546 115.92 123.889C116.351 123.22 116.566 122.302 116.566 121.135C116.566 119.967 116.351 119.055 115.92 118.398C115.49 117.729 114.895 117.395 114.135 117.395C113.365 117.395 112.758 117.729 112.316 118.398C111.886 119.055 111.67 119.967 111.67 121.135C111.67 122.302 111.886 123.22 112.316 123.889C112.758 124.546 113.365 124.875 114.135 124.875Z" fill="black"/>
<path d="M104.178 115.27H106.269V127H103.753V118.33C103.231 118.851 102.393 119.112 101.237 119.112V116.783C102.687 116.783 103.668 116.278 104.178 115.27Z" fill="black"/>
<g clip-path="url(#clip0_1580_584)">
<path d="M201.669 118.24V120.45H197.699C197.129 120.45 196.549 120.22 196.139 119.81L193.929 117.6L191.069 120.45L193.279 122.66C193.699 123.08 193.929 123.64 193.929 124.23V129.29H191.719V124.23L188.399 120.91C187.979 120.49 187.749 119.94 187.749 119.34C187.749 118.74 187.979 118.2 188.399 117.78L192.039 114.14C192.469 113.71 193.179 113.71 193.609 114.14L197.699 118.23H201.669V118.24Z" fill="black"/>
<path d="M199.458 112.71C199.458 113.94 198.468 114.92 197.248 114.92C196.028 114.92 195.038 113.94 195.038 112.71C195.038 111.48 196.038 110.5 197.248 110.5C198.458 110.5 199.458 111.49 199.458 112.71Z" fill="black"/>
<path d="M203.888 127.08C203.888 129.52 201.908 131.5 199.468 131.5C197.028 131.5 195.048 129.52 195.048 127.08C195.048 124.64 197.028 122.66 199.468 122.66C201.908 122.66 203.888 124.65 203.888 127.08Z" fill="black"/>
<path d="M190.618 127.08C190.618 129.52 188.638 131.5 186.198 131.5C183.758 131.5 181.778 129.52 181.778 127.08C181.778 124.64 183.758 122.66 186.198 122.66C188.638 122.66 190.618 124.65 190.618 127.08Z" fill="black"/>
</g>
<defs>
<clipPath id="clip0_1580_584">
<rect width="22.11" height="21" fill="white" transform="translate(181.778 110.5)"/>
</clipPath>
</defs>
</svg>
