<?xml version="1.0" encoding="UTF-8"?>
<svg id="Layer_1" xmlns="http://www.w3.org/2000/svg" version="1.1" viewBox="0 0 304 132">
  <!-- Generator: Adobe Illustrator 29.2.1, SVG Export Plug-In . SVG Version: 2.1.0 Build 116)  -->
  <path d="M77.2,41.4c-4.7,0-8.5-1.5-11.6-4.5-3-3-4.5-6.8-4.5-11.5s1.5-8.5,4.5-11.4c3.1-3,6.9-4.5,11.6-4.5s9.3,1.8,12.5,5.5l-4.9,4.1c-1.9-2.3-4.4-3.5-7.5-3.5s-4.9.9-6.6,2.7c-1.7,1.8-2.6,4.2-2.6,7.1s.8,5.4,2.5,7.2,3.9,2.7,6.6,2.7,3.1-.3,4.4-.9c1.2-.6,2.4-1.6,3.6-2.9l4.9,4.1c-3,3.8-7.3,5.8-12.8,5.8ZM108.3,41.4c-4.7,0-8.6-1.5-11.6-4.5-3.1-3-4.6-6.8-4.6-11.5s1.5-8.5,4.6-11.5c3.1-3,6.9-4.5,11.6-4.5s8.5,1.5,11.6,4.5c3.1,3,4.6,6.8,4.6,11.5s-1.5,8.5-4.6,11.5c-3.1,3-6.9,4.5-11.6,4.5ZM108.3,35.3c2.7,0,4.9-.9,6.6-2.7s2.6-4.2,2.6-7.1-.9-5.3-2.6-7.1c-1.7-1.8-3.9-2.7-6.6-2.7s-5,.9-6.7,2.7c-1.7,1.8-2.6,4.2-2.6,7.1s.9,5.3,2.6,7.1c1.7,1.8,3.9,2.7,6.7,2.7ZM148.6,9.9h7.1l-11.6,31.1h-7.8l-11.5-31.1h7.1l7.8,22.5.5,1.8c0-.1.2-.4.3-.8.1-.4.2-.7.3-.9l7.8-22.5ZM181.2,41h-22.5V9.9h22.3v5.9h-15.6v6.5h13.1v5.9h-13.1v6.9h15.8v5.9ZM192.6,41h-6.6V9.9h7.5l12.8,19.7c.3.4.6,1,1,1.8,0-.4,0-1,0-1.8V9.9h6.6v31.1h-7.6l-12.8-19.6c-.6-.9-.9-1.5-1-1.8,0,.4,0,1,0,1.8v19.6ZM234.2,41h-6.7v-24.9h-9.5v-6.2h25.7v6.2h-9.5v24.9ZM73,79.3v-5.6h14.7v17.3h-5.4v-3.5c-1.9,2.6-5.1,3.9-9.6,3.9s-8.2-1.4-11.1-4.3c-2.9-2.9-4.4-6.7-4.4-11.4s1.5-8.7,4.6-11.7c3.1-3,7-4.5,11.8-4.5s10.3,1.8,13.4,5.5l-4.9,4.1c-1.9-2.3-4.7-3.5-8.5-3.5s-5.1.9-6.8,2.7c-1.7,1.8-2.6,4.2-2.6,7.3s.9,5.7,2.6,7.4c1.7,1.7,4,2.6,6.9,2.6s4.3-.5,5.8-1.5c1.5-1,2.2-2.4,2.2-4.2v-.8h-8.7ZM121.7,91h-7.1l-2.5-6.9h-12.2l-2.5,6.9h-7.1l12-31h7.3l12,31ZM105.5,68.6l-3.5,9.8h8.1l-3.5-9.8c0-.1,0-.3-.2-.5,0-.2-.1-.4-.2-.6,0-.2-.1-.4-.2-.5l-.5,1.6ZM146.3,81.1l6.3,9.9h-7.8l-5.6-9.3c-.4-.8-.8-1.3-1.2-1.4-.3-.2-.9-.3-1.7-.3h-4.3v11h-6.7v-31h14c3.4,0,6.1.9,8.1,2.7s3.1,4.1,3.1,7.1-.5,4-1.6,5.5c-1.1,1.5-2.6,2.7-4.5,3.4.5.4,1.1,1.2,1.9,2.5ZM132,65.8v8.6h6.2c3.6,0,5.4-1.4,5.4-4.3s-1.8-4.3-5.4-4.3h-6.2ZM168.2,91h-11.9v-31h11.9c4.9,0,8.9,1.4,12.1,4.2,3.2,2.8,4.8,6.5,4.8,11.3s-1.6,8.6-4.8,11.4c-3.2,2.8-7.2,4.2-12.1,4.2ZM163,66.1v18.7h4.8c3,0,5.5-.8,7.4-2.4,1.9-1.6,2.9-4,2.9-7s-.9-5.3-2.8-6.9-4.4-2.4-7.4-2.4h-4.8ZM212.4,91h-22.5v-31h22.3v5.9h-15.6v6.5h13.1v5.9h-13.1v6.9h15.8v5.9ZM223.8,91h-6.6v-31h7.5l12.8,19.7c.3.4.6,1,1,1.8,0-.4,0-1,0-1.8v-19.7h6.6v31h-7.6l-12.8-19.6c-.6-.9-.9-1.5-1-1.8,0,.4,0,1,0,1.8v19.6Z"/>
  <path d="M116.1,119.4c2.4,0,3.9,1.5,3.9,3.8s-1.8,4-4.5,4-4.8-2.1-4.8-5.5,1.9-6.5,5.3-6.5,3,.5,3.9,1.5l-1.6,1.6c-.7-.7-1.4-1-2.3-1-1.7,0-2.8,1.4-2.8,3.7h0c.5-.9,1.6-1.5,2.9-1.5ZM115.5,125.2c1.3,0,2-.8,2-1.9s-.8-1.9-2-1.9-2,.8-2,1.9.8,1.9,2,1.9ZM130.3,127h-2.5v-11.7h3.1l3,6.1,3-6.1h3.1v11.7h-2.5v-7.4c0-.2,0-.4,0-.6-.1.2-.2.4-.3.6l-2.3,4.6h-2.1l-2.3-4.7-.3-.6c0,.2,0,.4,0,.7v7.4ZM145.9,127h-2.5v-11.7h2.5v11.7ZM151.7,127h-2.5v-11.7h2.8l4.8,7.4c.2.2.3.4.4.7,0-.2,0-.4,0-.7v-7.4h2.5v11.7h-2.9l-4.8-7.4c-.1-.2-.3-.4-.4-.7,0,.2,0,.4,0,.7v7.4ZM167.1,127.2c-2,0-3.8-.7-4.8-1.9l1.6-1.7c.9,1,2,1.4,3.3,1.4s2-.5,2-1.3-.5-1.1-1.8-1.4l-1.1-.2c-2.5-.5-3.7-1.5-3.7-3.4s1.7-3.6,4.6-3.6,3.2.6,4.4,1.7l-1.6,1.7c-.9-1-1.8-1.3-2.9-1.3s-1.9.5-1.9,1.3.6,1.1,1.8,1.4l1.1.2c2.5.5,3.7,1.6,3.7,3.5s-1.7,3.6-4.6,3.6Z"/>
  <path d="M189.6,111.5c1,0,1.8.8,1.8,1.9s-.8,1.9-1.8,1.9-1.8-.8-1.8-1.9.8-1.9,1.8-1.9ZM190.1,120.2h0c.2.6.5,1,.8,1.3.3.4.8.6,1.2.8h0l1.6.6.6-1.8-1.6-.6h0c-.3-.1-.5-.3-.6-.4-.2-.2-.3-.3-.4-.6h0s-.5-1.2-.5-1.2h0c-.4-1.3-1.6-2-2.7-2-.3,0-.5,0-.8,0h0l-1.9.6c-.8.2-1.5.8-1.9,1.5-.5.9-1.2,2-1.2,2l1.5,1.1s.7-1.1,1.2-2c.3-.4.5-.6.9-.7l.9-.3-.6,3.2c-.2.7,0,1.3.4,1.8l2.5,3v.2c.1,0,1.5,3.9,1.5,3.9h1.9c-.3-.9-1.2-3.3-1.6-4.5l-2.1-3.2v-.3c0,0,.6-3,.6-3l.3.7h0ZM185.5,126.9l-2.6,3.6h2l2-2.5.7-2.3-1.3-1.6-.8,2.8h0Z"/>
  <path d="M103.7,127.2c-1.5,0-2.7-.5-3.7-1.6-.9-1.1-1.3-2.6-1.3-4.4s.4-3.3,1.3-4.4c.9-1.1,2.1-1.6,3.7-1.6s2.7.5,3.6,1.6c.9,1.1,1.3,2.5,1.3,4.4s-.4,3.3-1.3,4.4c-.9,1.1-2.1,1.6-3.6,1.6ZM103.7,124.9c.8,0,1.4-.3,1.8-1,.4-.7.6-1.6.6-2.8s-.2-2.1-.6-2.7c-.4-.7-1-1-1.8-1s-1.4.3-1.8,1c-.4.7-.6,1.6-.6,2.7s.2,2.1.6,2.8c.4.7,1,1,1.8,1Z"/>
</svg>