<?xml version="1.0" encoding="UTF-8"?>
<svg id="Layer_1" xmlns="http://www.w3.org/2000/svg" version="1.1" viewBox="0 0 305 132">
  <!-- Generator: Adobe Illustrator 29.2.1, SVG Export Plug-In . SVG Version: 2.1.0 Build 116)  -->
  <path d="M65.4,41.4c-9.3,0-16.1-6.6-16.1-16s6.8-15.9,16.1-15.9,9.4,2,12.5,5.5l-4.9,4.1c-1.8-2.2-4.6-3.5-7.5-3.5-5.3,0-9.1,3.9-9.1,9.8s3.7,9.9,9.1,9.9,5.7-1.2,8-3.7l4.9,4.1c-2.9,3.7-7.3,5.8-12.8,5.8ZM102.9,22.1v-12.2h6.7v31.1h-6.7v-12.7h-13.9v12.7h-6.7V9.9h6.7v12.2h13.9ZM144.4,41h-7.1l-2.5-6.9h-12.2l-2.5,6.9h-7.1l12-31.1h7.3l12,31.1ZM128.2,18.6l-3.5,9.8h8.1l-3.5-9.8c-.2-.5-.3-1-.5-1.6-.2.6-.4,1.1-.5,1.6ZM168.9,31.1l6.3,9.9h-7.8l-5.6-9.3c-.9-1.6-1.3-1.8-2.9-1.8h-4.3v11h-6.7V9.9h14c6.7,0,11.2,3.8,11.2,9.7s-2.2,7.5-6.2,8.9c.7.5,1.2,1.3,1.9,2.5ZM154.6,15.8v8.6h6.2c3.5,0,5.4-1.5,5.4-4.3s-1.9-4.3-5.4-4.3h-6.2ZM185.7,41h-6.7V9.9h6.7v31.1ZM198.7,41h-6.6V9.9h7.5l12.8,19.7c.4.6.7,1.2,1,1.8,0-.6,0-1.2,0-1.8V9.9h6.6v31.1h-7.6l-12.8-19.6c-.4-.6-.7-1.1-1-1.8,0,.6,0,1.2,0,1.8v19.6ZM240.5,29.3v-5.6h14.7v17.3h-5.4v-3.5c-1.9,2.7-5.1,3.9-9.6,3.9-8.8,0-15.4-6.2-15.4-15.8s6.9-16.2,16.4-16.2,10.3,1.9,13.4,5.5l-4.9,4.1c-1.8-2.2-4.7-3.5-8.5-3.5-5.5,0-9.4,3.9-9.4,10s3.9,10,9.4,10,8-1.9,8-5.7v-.8h-8.7ZM93.8,91.4c-9.3,0-16.1-6.6-16.1-16s6.8-15.9,16.1-15.9,9.5,2,12.5,5.5l-4.9,4.1c-1.8-2.2-4.6-3.5-7.5-3.5-5.3,0-9.1,3.9-9.1,9.8s3.7,9.9,9.1,9.9,5.7-1.2,8-3.7l4.9,4.1c-2.9,3.7-7.3,5.8-12.8,5.8ZM131.7,81.1l6.3,9.9h-7.8l-5.6-9.3c-.9-1.6-1.3-1.8-2.9-1.8h-4.3v11h-6.7v-31h14c6.7,0,11.2,3.8,11.2,9.7s-2.2,7.5-6.2,8.9c.7.5,1.2,1.3,1.9,2.5ZM117.4,65.8v8.6h6.2c3.5,0,5.4-1.5,5.4-4.3s-1.9-4.3-5.4-4.3h-6.2ZM155.9,91.4c-9.4,0-16.2-6.7-16.2-16s6.8-16,16.2-16,16.2,6.7,16.2,16-6.9,16-16.2,16ZM155.9,85.3c5.4,0,9.2-3.9,9.2-9.8s-3.8-9.8-9.2-9.8-9.2,3.9-9.2,9.8,3.8,9.8,9.2,9.8ZM187.8,91.4c-5.2,0-10-1.8-12.8-5l4.3-4.4c2.4,2.7,5.3,3.8,8.6,3.8s5.4-1.3,5.4-3.5-1.3-2.9-4.8-3.7l-2.9-.6c-6.6-1.4-9.7-4.1-9.7-9s4.5-9.5,12.1-9.5,8.5,1.6,11.5,4.5l-4.2,4.4c-2.3-2.6-4.6-3.4-7.8-3.4s-4.9,1.3-4.9,3.5,1.5,2.8,4.8,3.6l2.9.6c6.7,1.4,9.7,4.2,9.7,9.2s-4.6,9.5-12.2,9.5ZM215.3,91.4c-5.2,0-10-1.8-12.8-5l4.3-4.4c2.4,2.7,5.3,3.8,8.6,3.8s5.4-1.3,5.4-3.5-1.3-2.9-4.8-3.7l-2.9-.6c-6.6-1.4-9.7-4.1-9.7-9s4.5-9.5,12.1-9.5,8.5,1.6,11.5,4.5l-4.2,4.4c-2.3-2.6-4.6-3.4-7.8-3.4s-4.9,1.3-4.9,3.5,1.5,2.8,4.8,3.6l2.9.6c6.7,1.4,9.7,4.2,9.7,9.2s-4.6,9.5-12.2,9.5Z"/>
  <path d="M118.1,119.4c2.4,0,3.9,1.5,3.9,3.8s-1.8,4-4.5,4-4.8-2.1-4.8-5.5,1.9-6.5,5.3-6.5,3,.5,3.9,1.5l-1.6,1.6c-.7-.7-1.4-1-2.3-1-1.7,0-2.8,1.4-2.8,3.7h0c.5-.9,1.6-1.5,2.9-1.5ZM117.5,125.2c1.3,0,2-.8,2-1.9s-.8-1.9-2-1.9-2,.8-2,1.9.8,1.9,2,1.9ZM105.7,127.2c-1.5,0-2.7-.5-3.7-1.6-.9-1.1-1.3-2.6-1.3-4.4s.4-3.3,1.3-4.4c.9-1.1,2.1-1.6,3.7-1.6s2.7.5,3.6,1.6c.9,1.1,1.3,2.5,1.3,4.4s-.4,3.3-1.3,4.4c-.9,1.1-2.1,1.6-3.6,1.6ZM105.7,124.9c.8,0,1.4-.3,1.8-1,.4-.7.6-1.6.6-2.8s-.2-2.1-.6-2.7c-.4-.7-1-1-1.8-1s-1.4.3-1.8,1c-.4.7-.6,1.6-.6,2.7s.2,2.1.6,2.8c.4.7,1,1,1.8,1ZM131,127h-2.5v-11.7h3.1l3,6.1,3-6.1h3.1v11.7h-2.5v-7.4c0-.2,0-.4,0-.6-.1.2-.2.4-.3.6l-2.3,4.6h-2.1l-2.3-4.7-.3-.6c0,.2,0,.4,0,.7v7.4ZM146.6,127h-2.5v-11.7h2.5v11.7ZM152.4,127h-2.5v-11.7h2.8l4.8,7.4c.2.2.3.4.4.7,0-.2,0-.4,0-.7v-7.4h2.5v11.7h-2.9l-4.8-7.4c-.1-.2-.3-.4-.4-.7,0,.2,0,.4,0,.7v7.4ZM167.8,127.2c-2,0-3.8-.7-4.8-1.9l1.6-1.7c.9,1,2,1.4,3.3,1.4s2-.5,2-1.3-.5-1.1-1.8-1.4l-1.1-.2c-2.5-.5-3.7-1.5-3.7-3.4s1.7-3.6,4.6-3.6,3.2.6,4.4,1.7l-1.6,1.7c-.9-1-1.8-1.3-2.9-1.3s-1.9.5-1.9,1.3.6,1.1,1.8,1.4l1.1.2c2.5.5,3.7,1.6,3.7,3.5s-1.7,3.6-4.6,3.6Z"/>
  <path d="M190.3,111.5c1,0,1.8.8,1.8,1.9s-.8,1.9-1.8,1.9-1.8-.8-1.8-1.9.8-1.9,1.8-1.9ZM190.8,120.2h0c.2.6.5,1,.8,1.3.3.4.8.6,1.2.8h0l1.6.6.6-1.8-1.6-.6h0c-.3-.1-.5-.3-.6-.4-.2-.2-.3-.3-.3-.6h0s-.5-1.2-.5-1.2h0c-.4-1.3-1.6-2-2.7-2-.3,0-.5,0-.8,0h0l-1.9.6c-.8.2-1.5.8-1.9,1.5-.5.9-1.2,2-1.2,2l1.5,1.1s.7-1.1,1.2-2c.3-.4.5-.6.9-.7l.9-.3-.6,3.2c-.2.7,0,1.3.4,1.8l2.5,3v.2c.1,0,1.5,3.9,1.5,3.9h1.9c-.3-.9-1.2-3.3-1.6-4.5l-2.1-3.2v-.3c0,0,.6-3,.6-3l.3.7h0ZM186.1,126.9l-2.6,3.6h2l2-2.5.7-2.3-1.3-1.6-.8,2.8h0Z"/>
</svg>