<?xml version="1.0" encoding="UTF-8"?>
<svg id="Layer_1" xmlns="http://www.w3.org/2000/svg" version="1.1" viewBox="0 0 305 132">
  <!-- Generator: Adobe Illustrator 29.2.1, SVG Export Plug-In . SVG Version: 2.1.0 Build 116)  -->
  <path d="M57.7,41h-20.9V9.9h6.7v24.9h14.2v6.2ZM84.4,41h-22.5V9.9h22.3v5.9h-15.6v6.5h13.1v5.9h-13.1v6.9h15.8v5.9ZM96,41h-6.7V9.9h6.7v31.1ZM116.9,41.4c-9.3,0-16.1-6.6-16.1-16s6.8-15.9,16.1-15.9,9.5,2,12.5,5.5l-4.9,4.1c-1.8-2.2-4.6-3.5-7.5-3.5-5.3,0-9.1,3.9-9.1,9.8s3.7,9.9,9.1,9.9,5.7-1.2,8-3.7l4.9,4.1c-2.9,3.7-7.3,5.8-12.8,5.8ZM156.3,41h-22.5V9.9h22.3v5.9h-15.6v6.5h13.1v5.9h-13.1v6.9h15.8v5.9ZM172.1,41.4c-5.2,0-10-1.8-12.8-5l4.3-4.4c2.4,2.7,5.3,3.8,8.6,3.8s5.4-1.3,5.4-3.5-1.3-2.9-4.8-3.7l-2.9-.6c-6.6-1.4-9.7-4.1-9.7-9s4.5-9.5,12.1-9.5,8.5,1.6,11.5,4.5l-4.2,4.4c-2.3-2.6-4.6-3.4-7.8-3.4s-4.9,1.3-4.9,3.5,1.5,2.8,4.8,3.6l2.9.6c6.7,1.4,9.7,4.2,9.7,9.2s-4.6,9.5-12.2,9.5ZM202.2,41h-6.7v-24.9h-9.5v-6.2h25.6v6.2h-9.5v24.9ZM238.3,41h-22.5V9.9h22.3v5.9h-15.6v6.5h13.1v5.9h-13.1v6.9h15.8v5.9ZM264.2,31.1l6.3,9.9h-7.8l-5.6-9.3c-.9-1.6-1.3-1.8-2.9-1.8h-4.3v11h-6.7V9.9h14c6.7,0,11.2,3.8,11.2,9.7s-2.2,7.5-6.2,8.9c.7.5,1.2,1.3,1.9,2.5ZM249.9,15.8v8.6h6.2c3.5,0,5.4-1.5,5.4-4.3s-1.9-4.3-5.4-4.3h-6.2ZM73.5,91.4c-5.2,0-10-1.8-12.8-5l4.3-4.4c2.4,2.7,5.3,3.8,8.6,3.8s5.4-1.3,5.4-3.5-1.3-2.9-4.8-3.7l-2.9-.6c-6.6-1.4-9.7-4.1-9.7-9s4.5-9.5,12.1-9.5,8.5,1.6,11.5,4.5l-4.2,4.4c-2.3-2.6-4.6-3.4-7.8-3.4s-4.9,1.3-4.9,3.5,1.5,2.8,4.8,3.6l2.9.6c6.7,1.4,9.7,4.2,9.7,9.2s-4.6,9.5-12.2,9.5ZM121.4,75.5c0,4.3-1.5,8.1-4,10.8.9,1.7,1.6,3.6,2.2,5.8l-6,1.5c-.3-1.5-.7-2.7-1-3.7-2.2,1-4.6,1.5-7.3,1.5-9.4,0-16.2-6.7-16.2-16s6.8-16,16.2-16,16.2,6.7,16.2,16ZM105.3,65.7c-5.4,0-9.2,3.8-9.2,10.1s.4,4,1.2,5.6c1.9-2.2,4.6-3.6,8.1-3.6s5.9,1.2,8.1,3.4c.7-1.5,1.1-3.3,1.1-5.4,0-6.3-3.8-10.1-9.2-10.1ZM100.2,84.7c1.4.9,3.2,1.4,5.1,1.4s3.6-.5,4.9-1.3c-1.2-1.5-2.9-2.3-4.9-2.3s-3.7.8-5.1,2.2ZM139.5,91.4c-8.5,0-13.5-4.9-13.5-13.3v-18.2h6.7v17.5c0,4.9,2.4,7.7,6.8,7.8,4.4,0,6.8-2.8,6.8-7.7v-17.6h6.7v18.1c0,8.4-4.9,13.3-13.5,13.4ZM186.5,91h-7.1l-2.5-6.9h-12.2l-2.5,6.9h-7.1l12-31h7.3l12,31ZM170.3,68.6l-3.5,9.8h8.1l-3.5-9.8c-.2-.5-.3-1-.5-1.6-.2.6-.4,1.1-.5,1.6ZM211.1,81.1l6.3,9.9h-7.8l-5.6-9.3c-.9-1.6-1.3-1.8-2.9-1.8h-4.3v11h-6.7v-31h14c6.7,0,11.2,3.8,11.2,9.7s-2.2,7.5-6.2,8.9c.7.5,1.2,1.3,1.9,2.5ZM196.8,65.8v8.6h6.2c3.5,0,5.4-1.5,5.4-4.3s-1.9-4.3-5.4-4.3h-6.2ZM243.6,91h-22.5v-31h22.3v5.9h-15.6v6.5h13.1v5.9h-13.1v6.9h15.8v5.9Z"/>
  <path d="M134.2,127h-2.5v-11.7h3.1l3,6.1,3-6.1h3.1v11.7h-2.5v-7.4c0-.2,0-.4,0-.6-.1.2-.2.4-.3.6l-2.3,4.6h-2.1l-2.3-4.7-.3-.6c0,.2,0,.4,0,.7v7.4ZM149.8,127h-2.5v-11.7h2.5v11.7ZM155.5,127h-2.5v-11.7h2.8l4.8,7.4c.2.2.3.4.4.7,0-.2,0-.4,0-.7v-7.4h2.5v11.7h-2.9l-4.8-7.4c-.1-.2-.3-.4-.4-.7,0,.2,0,.4,0,.7v7.4ZM171,127.2c-2,0-3.8-.7-4.8-1.9l1.6-1.7c.9,1,2,1.4,3.3,1.4s2-.5,2-1.3-.5-1.1-1.8-1.4l-1.1-.2c-2.5-.5-3.7-1.5-3.7-3.4s1.7-3.6,4.6-3.6,3.2.6,4.4,1.7l-1.6,1.7c-.9-1-1.8-1.3-2.9-1.3s-1.9.5-1.9,1.3.6,1.1,1.8,1.4l1.1.2c2.5.5,3.7,1.6,3.7,3.5s-1.7,3.6-4.6,3.6Z"/>
  <path d="M193.4,111.5c1,0,1.8.8,1.8,1.9s-.8,1.9-1.8,1.9-1.8-.8-1.8-1.9.8-1.9,1.8-1.9ZM193.9,120.2h0c.2.6.5,1,.8,1.3.4.4.8.6,1.2.8h0l1.6.6.6-1.8-1.6-.6h0c-.3-.1-.5-.3-.6-.4-.2-.2-.3-.3-.3-.6h0s-.5-1.2-.5-1.2h0c-.4-1.3-1.6-2-2.7-2-.3,0-.5,0-.8,0h0l-1.9.6c-.8.2-1.5.8-1.9,1.5-.5.9-1.2,2-1.2,2l1.5,1.1s.7-1.1,1.2-2c.3-.4.5-.6.9-.7l.9-.3-.6,3.2c-.2.7,0,1.3.4,1.8l2.5,3v.2c.1,0,1.5,3.9,1.5,3.9h1.9c-.3-.9-1.2-3.3-1.6-4.5l-2.1-3.2v-.3c0,0,.6-3,.6-3l.3.7h0ZM189.3,126.9l-2.6,3.6h2l2-2.5.7-2.3-1.3-1.6-.8,2.8h0Z"/>
  <path d="M114.6,122.8c1.3,0,2.4-.6,2.9-1.5h0c0,2.4-1.1,3.8-2.8,3.8s-1.7-.3-2.3-1l-1.6,1.6c.9,1,2.2,1.5,3.9,1.5,3.4,0,5.3-2.4,5.3-6.5s-1.8-5.5-4.8-5.5-4.5,1.5-4.5,4,1.5,3.8,3.9,3.8ZM115.2,117c1.2,0,2,.8,2,1.9s-.8,1.9-2,1.9-2-.8-2-1.9.8-1.9,2-1.9Z"/>
  <path d="M103.7,127.2c-1.5,0-2.7-.5-3.7-1.6-.9-1.1-1.3-2.6-1.3-4.4s.4-3.3,1.3-4.4c.9-1.1,2.1-1.6,3.7-1.6s2.7.5,3.6,1.6c.9,1.1,1.3,2.5,1.3,4.4s-.4,3.3-1.3,4.4c-.9,1.1-2.1,1.6-3.6,1.6ZM103.7,124.9c.8,0,1.4-.3,1.8-1,.4-.7.6-1.6.6-2.8s-.2-2.1-.6-2.7c-.4-.7-1-1-1.8-1s-1.4.3-1.8,1c-.4.7-.6,1.6-.6,2.7s.2,2.1.6,2.8c.4.7,1,1,1.8,1Z"/>
</svg>