<?xml version="1.0" encoding="UTF-8"?>
<svg id="Layer_1" xmlns="http://www.w3.org/2000/svg" version="1.1" viewBox="0 0 304 82">
  <!-- Generator: Adobe Illustrator 29.2.1, SVG Export Plug-In . SVG Version: 2.1.0 Build 116)  -->
  <path d="M33.1,41l-8.1-31.1h6.8l5.4,22.8c0,.4.3.9.4,1.5,0-.5.3-1.1.4-1.5l5.5-22.8h9l5.4,22.8c0,.4.2.9.3,1.5l.4-1.5,5.6-22.8h6.8l-8.2,31.1h-9.1l-5.3-22.8-.3-1.4c0,.4-.2,1-.3,1.4l-5.5,22.8h-9.1ZM100.6,41h-7.1l-2.5-6.9h-12.2l-2.5,6.9h-7.1l12-31.1h7.3l12,31.1ZM84.4,18.6l-3.5,9.8h8.1l-3.5-9.8c-.2-.5-.3-1-.5-1.6-.2.6-.4,1.1-.5,1.6ZM114.7,41h-6.7v-24.9h-9.5v-6.2h25.7v6.2h-9.5v24.9ZM150.8,41h-22.5V9.9h22.3v5.9h-15.6v6.5h13.1v5.9h-13.1v6.9h15.8v5.9ZM176.7,31.1l6.3,9.9h-7.8l-5.6-9.3c-.9-1.6-1.3-1.8-2.9-1.8h-4.3v11h-6.7V9.9h14c6.7,0,11.2,3.8,11.2,9.7s-2.2,7.5-6.2,8.9c.7.5,1.2,1.3,1.9,2.5ZM162.4,15.8v8.6h6.2c3.5,0,5.4-1.5,5.4-4.3s-1.9-4.3-5.4-4.3h-6.2ZM207.6,41h-20.9V9.9h6.7v24.9h14.2v6.2ZM225.6,41.4c-9.4,0-16.2-6.7-16.2-16s6.8-16,16.2-16,16.2,6.7,16.2,16-6.9,16-16.2,16ZM225.6,35.3c5.4,0,9.2-3.9,9.2-9.8s-3.8-9.8-9.2-9.8-9.2,3.9-9.2,9.8,3.8,9.8,9.2,9.8ZM261.5,41.4c-9.4,0-16.2-6.7-16.2-16s6.8-16,16.2-16,16.2,6.7,16.2,16-6.9,16-16.2,16ZM261.5,35.3c5.4,0,9.2-3.9,9.2-9.8s-3.8-9.8-9.2-9.8-9.2,3.9-9.2,9.8,3.8,9.8,9.2,9.8Z"/>
  <path d="M109.6,65.3h2.1v11.7h-2.5v-8.7c-.6.6-1.5.8-2.5.8v-2.3c1.3,0,2.4-.5,2.9-1.5ZM133.9,77h-2.5v-11.7h3.1l3,6.1,3-6.1h3.1v11.7h-2.5v-7.4c0-.2,0-.4,0-.6-.1.2-.2.4-.3.6l-2.3,4.6h-2.1l-2.3-4.7-.3-.6c0,.2,0,.4,0,.7v7.4ZM149.5,77h-2.5v-11.7h2.5v11.7ZM155.2,77h-2.5v-11.7h2.8l4.8,7.4c.2.2.3.4.4.7,0-.2,0-.4,0-.7v-7.4h2.5v11.7h-2.9l-4.8-7.4c-.1-.2-.3-.4-.4-.7,0,.2,0,.4,0,.7v7.4ZM170.7,77.2c-2,0-3.8-.7-4.8-1.9l1.6-1.7c.9,1,2,1.4,3.3,1.4s2-.5,2-1.3-.5-1.1-1.8-1.4l-1.1-.2c-2.5-.5-3.7-1.5-3.7-3.4s1.7-3.6,4.6-3.6,3.2.6,4.4,1.7l-1.6,1.7c-.9-1-1.8-1.3-2.9-1.3s-1.9.5-1.9,1.3.6,1.1,1.8,1.4l1.1.2c2.5.5,3.7,1.6,3.7,3.5s-1.7,3.6-4.6,3.6Z"/>
  <path d="M193.1,61.5c1,0,1.8.8,1.8,1.9s-.8,1.9-1.8,1.9-1.8-.8-1.8-1.9.8-1.9,1.8-1.9ZM193.6,70.2h0c.2.6.5,1,.8,1.3.3.4.8.6,1.2.8h0l1.6.6.6-1.8-1.6-.6h0c-.3-.1-.5-.3-.6-.4-.2-.2-.3-.3-.4-.6h0s-.5-1.2-.5-1.2h0c-.4-1.3-1.6-2-2.7-2-.3,0-.5,0-.8,0h0l-1.9.6c-.8.2-1.5.8-1.9,1.5-.5.9-1.2,2-1.2,2l1.5,1.1s.7-1.1,1.2-2c.3-.4.5-.6.9-.7l.9-.3-.6,3.2c-.2.7,0,1.3.4,1.8l2.5,3v.2c.1,0,1.5,3.9,1.5,3.9h1.9c-.3-.9-1.2-3.3-1.6-4.5l-2.1-3.2v-.3c0,0,.6-3,.6-3l.3.7h0ZM189,76.9l-2.6,3.6h2l2-2.5.7-2.3-1.3-1.6-.8,2.8h0Z"/>
  <path d="M119,77.2c-1.5,0-2.7-.5-3.7-1.6-.9-1.1-1.3-2.6-1.3-4.4s.4-3.3,1.3-4.4c.9-1.1,2.1-1.6,3.7-1.6s2.7.5,3.6,1.6c.9,1.1,1.3,2.5,1.3,4.4s-.4,3.3-1.3,4.4c-.9,1.1-2.1,1.6-3.6,1.6ZM119,74.9c.8,0,1.4-.3,1.8-1,.4-.7.6-1.6.6-2.8s-.2-2.1-.6-2.7c-.4-.7-1-1-1.8-1s-1.4.3-1.8,1c-.4.7-.6,1.6-.6,2.7s.2,2.1.6,2.8c.4.7,1,1,1.8,1Z"/>
</svg>