<svg width="304" height="140" viewBox="0 0 304 140" fill="none" xmlns="http://www.w3.org/2000/svg">
<g clip-path="url(#clip0_1588_1391)">
<path d="M65.15 92.9802C64.09 92.9802 63.11 92.8002 62.21 92.4502C61.3 92.1002 60.58 91.6002 60.02 90.9602L61.75 89.2002C62.65 90.2202 63.8 90.7302 65.21 90.7302C66.62 90.7302 67.37 90.2602 67.37 89.3302C67.37 88.9302 67.23 88.6302 66.94 88.4102C66.65 88.1902 66.16 88.0002 65.46 87.8302L64.29 87.5802C62.96 87.3002 61.98 86.8802 61.36 86.3002C60.74 85.7202 60.42 84.9602 60.42 84.0002C60.42 82.8202 60.85 81.9002 61.71 81.2202C62.57 80.5402 63.75 80.2002 65.25 80.2002C67.09 80.2002 68.62 80.8102 69.86 82.0202L68.17 83.7802C67.73 83.2802 67.26 82.9202 66.77 82.7302C66.28 82.5302 65.71 82.4302 65.05 82.4302C64.43 82.4302 63.94 82.5502 63.59 82.8002C63.24 83.0502 63.07 83.3802 63.07 83.8202C63.07 84.1902 63.22 84.4902 63.51 84.7002C63.8 84.9202 64.29 85.1002 64.98 85.2602L66.15 85.4902C67.49 85.7802 68.48 86.2202 69.1 86.8002C69.72 87.3802 70.04 88.1702 70.04 89.1602C70.04 90.3202 69.6 91.2502 68.73 91.9402C67.86 92.6302 66.67 92.9802 65.16 92.9802H65.15Z" fill="black"/>
<path d="M84.68 86.5902C84.68 88.2902 84.15 89.7402 83.08 90.9302C83.42 91.5902 83.71 92.3602 83.96 93.2502L81.55 93.8602C81.45 93.4002 81.32 92.9102 81.14 92.3702C80.25 92.7802 79.28 92.9802 78.22 92.9802C76.35 92.9802 74.8 92.3802 73.58 91.1802C72.36 89.9802 71.74 88.4502 71.74 86.5902C71.74 84.7302 72.35 83.2002 73.58 82.0002C74.8 80.8002 76.35 80.2002 78.22 80.2002C80.09 80.2002 81.62 80.8002 82.85 82.0002C84.08 83.2002 84.69 84.7302 84.69 86.5902H84.68ZM80.87 83.7502C80.19 83.0202 79.31 82.6602 78.21 82.6602C77.11 82.6602 76.23 83.0202 75.55 83.7502C74.87 84.4802 74.52 85.4602 74.52 86.6902C74.52 87.5302 74.68 88.2702 74.99 88.9202C75.82 87.9502 76.89 87.4602 78.21 87.4602C79.53 87.4602 80.57 87.9202 81.45 88.8302C81.74 88.2302 81.88 87.5202 81.88 86.6902C81.88 85.4502 81.54 84.4702 80.86 83.7502H80.87ZM76.18 90.2802C76.77 90.6402 77.45 90.8202 78.21 90.8202C78.97 90.8202 79.62 90.6502 80.17 90.3002C79.7 89.6902 79.05 89.3802 78.23 89.3802C77.41 89.3802 76.75 89.6802 76.18 90.2802Z" fill="black"/>
<path d="M94.8499 92.7999H92.1699V80.3799H100.63V82.8499H94.8499V85.6799H99.7999V88.1299H94.8499V92.8099V92.7999Z" fill="black"/>
<path d="M108.62 92.7999H105.96V82.8499H102.16V80.3799H112.42V82.8499H108.62V92.7999Z" fill="black"/>
<path d="M125.45 92.9802C123.58 92.9802 122.03 92.3802 120.81 91.1802C119.59 89.9802 118.97 88.4502 118.97 86.5902C118.97 84.7302 119.58 83.2002 120.81 82.0002C122.03 80.8002 123.58 80.2002 125.45 80.2002C127.32 80.2002 128.85 80.8002 130.08 82.0002C131.31 83.2002 131.92 84.7302 131.92 86.5902C131.92 88.4502 131.31 89.9802 130.08 91.1802C128.86 92.3802 127.31 92.9802 125.45 92.9802ZM125.45 90.5102C126.53 90.5102 127.41 90.1502 128.1 89.4302C128.78 88.7102 129.13 87.7602 129.13 86.5902C129.13 85.4202 128.79 84.4702 128.1 83.7502C127.42 83.0302 126.53 82.6702 125.45 82.6702C124.37 82.6702 123.47 83.0302 122.79 83.7502C122.11 84.4702 121.76 85.4202 121.76 86.5902C121.76 87.7602 122.1 88.7102 122.79 89.4302C123.47 90.1502 124.36 90.5102 125.45 90.5102Z" fill="black"/>
<path d="M137.06 92.7999H134.38V80.3799H142.84V82.8499H137.06V85.6799H142.01V88.1299H137.06V92.8099V92.7999Z" fill="black"/>
<path d="M155.98 92.9802C154.11 92.9802 152.56 92.3802 151.34 91.1802C150.12 89.9802 149.5 88.4502 149.5 86.5902C149.5 84.7302 150.11 83.2002 151.34 82.0002C152.56 80.8002 154.11 80.2002 155.98 80.2002C157.85 80.2002 159.38 80.8002 160.61 82.0002C161.84 83.2002 162.45 84.7302 162.45 86.5902C162.45 88.4502 161.84 89.9802 160.61 91.1802C159.39 92.3802 157.84 92.9802 155.98 92.9802ZM155.98 90.5102C157.06 90.5102 157.94 90.1502 158.63 89.4302C159.31 88.7102 159.66 87.7602 159.66 86.5902C159.66 85.4202 159.32 84.4702 158.63 83.7502C157.95 83.0302 157.06 82.6702 155.98 82.6702C154.9 82.6702 154 83.0302 153.32 83.7502C152.64 84.4702 152.29 85.4202 152.29 86.5902C152.29 87.7602 152.63 88.7102 153.32 89.4302C154 90.1502 154.89 90.5102 155.98 90.5102Z" fill="black"/>
<path d="M170.12 92.9599C168.42 92.9499 167.09 92.4799 166.14 91.5499C165.19 90.6199 164.72 89.3199 164.72 87.6499V80.3799H167.4V87.3799C167.4 88.3599 167.64 89.1299 168.11 89.6699C168.58 90.2099 169.26 90.4899 170.13 90.4999C171.01 90.4799 171.67 90.1999 172.14 89.6799C172.6 89.1599 172.83 88.4099 172.83 87.4199V80.3799H175.51V87.6199C175.51 89.2999 175.04 90.6099 174.09 91.5399C173.14 92.4799 171.82 92.9499 170.11 92.9599H170.12Z" fill="black"/>
<path d="M183.88 92.7999H181.22V82.8499H177.42V80.3799H187.68V82.8499H183.88V92.7999Z" fill="black"/>
<path d="M194.37 92.7999H189.62V80.3799H194.37C196.31 80.3799 197.92 80.9299 199.2 82.0499C200.48 83.1599 201.12 84.6699 201.12 86.5799C201.12 88.4899 200.48 89.9999 199.19 91.1199C197.9 92.2399 196.3 92.7999 194.37 92.7999ZM192.3 82.8399V90.3299H194.23C195.44 90.3299 196.43 90.0099 197.19 89.3699C197.95 88.7299 198.33 87.7899 198.33 86.5699C198.33 85.3499 197.95 84.4299 197.2 83.7999C196.44 83.1599 195.45 82.8499 194.23 82.8499H192.3V82.8399Z" fill="black"/>
<path d="M209.4 92.9802C207.53 92.9802 205.98 92.3802 204.76 91.1802C203.54 89.9802 202.92 88.4502 202.92 86.5902C202.92 84.7302 203.53 83.2002 204.76 82.0002C205.98 80.8002 207.53 80.2002 209.4 80.2002C211.27 80.2002 212.8 80.8002 214.03 82.0002C215.26 83.2002 215.87 84.7302 215.87 86.5902C215.87 88.4502 215.26 89.9802 214.03 91.1802C212.81 92.3802 211.26 92.9802 209.4 92.9802ZM209.4 90.5102C210.48 90.5102 211.36 90.1502 212.05 89.4302C212.73 88.7102 213.08 87.7602 213.08 86.5902C213.08 85.4202 212.74 84.4702 212.05 83.7502C211.37 83.0302 210.48 82.6702 209.4 82.6702C208.32 82.6702 207.42 83.0302 206.74 83.7502C206.06 84.4702 205.71 85.4202 205.71 86.5902C205.71 87.7602 206.05 88.7102 206.74 89.4302C207.42 90.1502 208.31 90.5102 209.4 90.5102Z" fill="black"/>
<path d="M224.14 92.9802C222.27 92.9802 220.72 92.3802 219.5 91.1802C218.28 89.9802 217.66 88.4502 217.66 86.5902C217.66 84.7302 218.27 83.2002 219.5 82.0002C220.72 80.8002 222.27 80.2002 224.14 80.2002C226.01 80.2002 227.54 80.8002 228.77 82.0002C230 83.2002 230.61 84.7302 230.61 86.5902C230.61 88.4502 230 89.9802 228.77 91.1802C227.55 92.3802 226 92.9802 224.14 92.9802ZM224.14 90.5102C225.22 90.5102 226.1 90.1502 226.79 89.4302C227.47 88.7102 227.82 87.7602 227.82 86.5902C227.82 85.4202 227.48 84.4702 226.79 83.7502C226.11 83.0302 225.22 82.6702 224.14 82.6702C223.06 82.6702 222.16 83.0302 221.48 83.7502C220.8 84.4702 220.45 85.4202 220.45 86.5902C220.45 87.7602 220.79 88.7102 221.48 89.4302C222.16 90.1502 223.05 90.5102 224.14 90.5102Z" fill="black"/>
<path d="M241.48 88.8199L243.98 92.7999H240.87L238.62 89.0899C238.44 88.7799 238.28 88.5799 238.15 88.5099C238.02 88.4299 237.79 88.3899 237.47 88.3899H235.76V92.7999H233.08V80.3799H238.7C240.04 80.3799 241.13 80.7299 241.96 81.4399C242.79 82.1499 243.2 83.0899 243.2 84.2699C243.2 85.1299 242.99 85.8699 242.56 86.4799C242.13 87.0899 241.52 87.5399 240.73 87.8299C240.92 87.9899 241.17 88.3199 241.49 88.8199H241.48ZM235.75 82.6999V86.1399H238.23C239.67 86.1399 240.39 85.5699 240.39 84.4299C240.39 83.2899 239.67 82.6999 238.23 82.6999H235.75Z" fill="black"/>
<path d="M83.22 114.4H80.56V104.45H76.76V101.98H87.02V104.45H83.22V114.4Z" fill="black"/>
<path d="M97.96 114.4H88.96V101.98H97.87V104.34H91.64V106.93H96.9V109.29H91.64V112.04H97.96V114.4Z" fill="black"/>
<path d="M108.98 110.42L111.48 114.4H108.37L106.12 110.69C105.94 110.38 105.78 110.18 105.65 110.11C105.52 110.03 105.29 109.99 104.97 109.99H103.26V114.4H100.58V101.98H106.2C107.54 101.98 108.63 102.33 109.46 103.04C110.29 103.75 110.7 104.69 110.7 105.87C110.7 106.73 110.49 107.47 110.06 108.08C109.63 108.69 109.02 109.14 108.23 109.43C108.42 109.59 108.67 109.92 108.99 110.42H108.98ZM103.26 104.3V107.74H105.74C107.18 107.74 107.9 107.17 107.9 106.03C107.9 104.89 107.18 104.3 105.74 104.3H103.26Z" fill="black"/>
<path d="M121.88 110.42L124.38 114.4H121.27L119.02 110.69C118.84 110.38 118.68 110.18 118.55 110.11C118.42 110.03 118.19 109.99 117.87 109.99H116.16V114.4H113.48V101.98H119.1C120.44 101.98 121.53 102.33 122.36 103.04C123.19 103.75 123.6 104.69 123.6 105.87C123.6 106.73 123.39 107.47 122.96 108.08C122.53 108.69 121.92 109.14 121.13 109.43C121.32 109.59 121.57 109.92 121.89 110.42H121.88ZM116.16 104.3V107.74H118.64C120.08 107.74 120.8 107.17 120.8 106.03C120.8 104.89 120.08 104.3 118.64 104.3H116.16Z" fill="black"/>
<path d="M138.25 114.4H135.41L134.42 111.63H129.54L128.55 114.4H125.72L130.53 101.98H133.46L138.25 114.4ZM131.77 105.45L130.37 109.36H133.61L132.21 105.45C132.21 105.45 132.18 105.34 132.15 105.25C132.12 105.16 132.09 105.09 132.07 105.02C132.05 104.95 132.02 104.88 132 104.8L131.78 105.45H131.77Z" fill="black"/>
<path d="M145.36 114.58C143.5 114.58 141.96 113.98 140.74 112.78C139.52 111.58 138.91 110.04 138.91 108.17C138.91 106.3 139.52 104.78 140.74 103.59C141.96 102.4 143.5 101.8 145.36 101.8C147.44 101.8 149.1 102.54 150.35 104.01L148.37 105.65C147.61 104.73 146.61 104.26 145.36 104.26C144.29 104.26 143.42 104.62 142.73 105.34C142.05 106.06 141.7 107 141.7 108.17C141.7 109.34 142.03 110.31 142.71 111.03C143.38 111.75 144.26 112.11 145.36 112.11C146.03 112.11 146.61 111.99 147.11 111.76C147.6 111.53 148.08 111.14 148.55 110.62L150.49 112.28C149.28 113.82 147.57 114.58 145.36 114.58Z" fill="black"/>
<path d="M161.48 114.4H152.48V101.98H161.39V104.34H155.16V106.93H160.42V109.29H155.16V112.04H161.48V114.4Z" fill="black"/>
<path d="M173.36 114.58C172.3 114.58 171.32 114.4 170.42 114.05C169.51 113.7 168.79 113.2 168.23 112.56L169.96 110.8C170.86 111.82 172.01 112.33 173.42 112.33C174.83 112.33 175.58 111.86 175.58 110.93C175.58 110.53 175.44 110.23 175.15 110.01C174.86 109.79 174.37 109.6 173.67 109.43L172.5 109.18C171.17 108.9 170.19 108.48 169.57 107.9C168.95 107.32 168.63 106.56 168.63 105.6C168.63 104.42 169.06 103.5 169.92 102.82C170.78 102.14 171.96 101.8 173.46 101.8C175.3 101.8 176.83 102.41 178.07 103.62L176.38 105.38C175.94 104.88 175.47 104.52 174.98 104.33C174.49 104.13 173.92 104.03 173.26 104.03C172.64 104.03 172.15 104.15 171.8 104.4C171.45 104.65 171.28 104.98 171.28 105.42C171.28 105.79 171.43 106.09 171.72 106.3C172.01 106.52 172.5 106.7 173.19 106.86L174.36 107.09C175.7 107.38 176.69 107.82 177.31 108.4C177.93 108.98 178.25 109.77 178.25 110.76C178.25 111.92 177.81 112.85 176.94 113.54C176.07 114.23 174.88 114.58 173.37 114.58H173.36Z" fill="black"/>
<path d="M185.86 101.98C187.35 101.98 188.53 102.36 189.41 103.11C190.29 103.86 190.72 104.89 190.72 106.17C190.72 107.45 190.27 108.55 189.38 109.34C188.49 110.13 187.29 110.53 185.79 110.53H183.4V114.4H180.72V101.98H185.87H185.86ZM183.39 108.15H185.57C186.3 108.15 186.88 107.98 187.3 107.64C187.72 107.3 187.93 106.84 187.93 106.26C187.93 105.68 187.73 105.19 187.32 104.86C186.91 104.53 186.34 104.36 185.61 104.36H183.4V108.16L183.39 108.15Z" fill="black"/>
<path d="M203.46 114.4H200.62L199.63 111.63H194.75L193.76 114.4H190.93L195.74 101.98H198.67L203.46 114.4ZM196.98 105.45L195.58 109.36H198.82L197.42 105.45C197.42 105.45 197.39 105.34 197.36 105.25C197.33 105.16 197.3 105.09 197.28 105.02C197.26 104.95 197.23 104.88 197.21 104.8L196.99 105.45H196.98Z" fill="black"/>
<path d="M210.57 114.58C208.71 114.58 207.17 113.98 205.95 112.78C204.73 111.58 204.12 110.04 204.12 108.17C204.12 106.3 204.73 104.78 205.95 103.59C207.17 102.4 208.71 101.8 210.57 101.8C212.65 101.8 214.31 102.54 215.56 104.01L213.58 105.65C212.82 104.73 211.82 104.26 210.57 104.26C209.5 104.26 208.63 104.62 207.94 105.34C207.26 106.06 206.91 107 206.91 108.17C206.91 109.34 207.24 110.31 207.92 111.03C208.59 111.75 209.47 112.11 210.57 112.11C211.24 112.11 211.82 111.99 212.32 111.76C212.81 111.53 213.29 111.14 213.76 110.62L215.7 112.28C214.49 113.82 212.78 114.58 210.57 114.58Z" fill="black"/>
<path d="M226.7 114.4H217.7V101.98H226.61V104.34H220.38V106.93H225.64V109.29H220.38V112.04H226.7V114.4Z" fill="black"/>
<path d="M102 36.4802C105.15 36.4802 107.67 37.4002 109.56 39.2302C111.45 41.0602 112.39 43.4802 112.39 46.4702C112.39 49.6802 111.3 52.2302 109.1 54.1202C106.91 56.0102 104.02 56.9502 100.42 56.9502C96.49 56.9502 93.39 55.6402 91.13 53.0302C88.87 50.4202 87.73 46.8402 87.73 42.2702C87.73 36.7802 88.95 32.5302 91.4 29.5102C93.84 26.4902 97.29 24.9902 101.73 24.9902C106.17 24.9902 109.57 26.3002 112.04 28.9102L107.85 33.1002C106.11 31.3602 104.04 30.4902 101.64 30.4902C99.24 30.4902 97.52 31.3602 96.22 33.1002C94.91 34.8402 94.26 37.2702 94.26 40.3902V40.5202C94.95 39.2902 95.99 38.3102 97.39 37.5702C98.78 36.8402 100.32 36.4702 102 36.4702V36.4802ZM100.47 51.8702C102.12 51.8702 103.43 51.4102 104.41 50.4702C105.38 49.5402 105.87 48.3102 105.87 46.7802C105.87 45.2502 105.38 44.0202 104.41 43.0902C103.43 42.1602 102.12 41.6902 100.47 41.6902C98.82 41.6902 97.55 42.1602 96.58 43.0902C95.61 44.0202 95.12 45.2502 95.12 46.7802C95.12 48.3102 95.61 49.5402 96.58 50.4702C97.55 51.4002 98.85 51.8702 100.47 51.8702Z" fill="black"/>
<path d="M121.03 48.8501C122.35 48.8501 123.39 49.3101 124.16 50.2201C124.93 51.1401 125.31 52.3301 125.31 53.8001C125.31 55.0601 124.96 56.3701 124.25 57.7401C123.54 59.1101 122.7 60.3101 121.71 61.3601H117.66C119.25 59.5901 120.24 58.0901 120.63 56.8601C119.58 56.7401 118.71 56.3101 118.02 55.5801C117.33 54.8501 116.99 53.9401 116.99 52.8601C116.99 51.7201 117.37 50.7701 118.14 50.0001C118.9 49.2301 119.87 48.8501 121.04 48.8501H121.03Z" fill="black"/>
<path d="M143.71 36.4802C146.86 36.4802 149.38 37.4002 151.27 39.2302C153.16 41.0602 154.1 43.4802 154.1 46.4702C154.1 49.6802 153.01 52.2302 150.81 54.1202C148.62 56.0102 145.73 56.9502 142.13 56.9502C138.2 56.9502 135.1 55.6402 132.84 53.0302C130.58 50.4202 129.44 46.8402 129.44 42.2702C129.44 36.7802 130.66 32.5302 133.11 29.5102C135.55 26.4902 139 24.9902 143.44 24.9902C147.88 24.9902 151.28 26.3002 153.75 28.9102L149.56 33.1002C147.82 31.3602 145.75 30.4902 143.35 30.4902C140.95 30.4902 139.23 31.3602 137.93 33.1002C136.62 34.8402 135.97 37.2702 135.97 40.3902V40.5202C136.66 39.2902 137.7 38.3102 139.1 37.5702C140.49 36.8402 142.03 36.4702 143.71 36.4702V36.4802ZM142.18 51.8702C143.83 51.8702 145.14 51.4102 146.12 50.4702C147.09 49.5402 147.58 48.3102 147.58 46.7802C147.58 45.2502 147.09 44.0202 146.12 43.0902C145.14 42.1602 143.83 41.6902 142.18 41.6902C140.53 41.6902 139.26 42.1602 138.29 43.0902C137.32 44.0202 136.83 45.2502 136.83 46.7802C136.83 48.3102 137.32 49.5402 138.29 50.4702C139.26 51.4002 140.56 51.8702 142.18 51.8702Z" fill="black"/>
<path d="M171.61 56.95C167.56 56.95 164.34 55.51 161.96 52.63C159.58 49.75 158.38 45.87 158.38 40.98C158.38 36.09 159.57 32.21 161.96 29.32C164.34 26.44 167.56 25 171.61 25C175.66 25 178.86 26.43 181.22 29.3C183.57 32.17 184.75 36.06 184.75 40.98C184.75 45.9 183.56 49.75 181.2 52.63C178.83 55.51 175.63 56.95 171.62 56.95H171.61ZM171.61 50.88C173.62 50.88 175.19 50 176.33 48.25C177.47 46.49 178.04 44.07 178.04 40.98C178.04 37.89 177.47 35.47 176.33 33.71C175.19 31.95 173.62 31.08 171.61 31.08C169.6 31.08 167.97 31.96 166.82 33.71C165.67 35.46 165.09 37.89 165.09 40.98C165.09 44.07 165.67 46.49 166.82 48.25C167.98 50 169.57 50.88 171.61 50.88Z" fill="black"/>
<path d="M202.8 56.95C198.75 56.95 195.53 55.51 193.15 52.63C190.77 49.75 189.57 45.87 189.57 40.98C189.57 36.09 190.76 32.21 193.15 29.32C195.53 26.44 198.75 25 202.8 25C206.85 25 210.05 26.43 212.41 29.3C214.76 32.17 215.94 36.06 215.94 40.98C215.94 45.9 214.75 49.75 212.39 52.63C210.02 55.51 206.82 56.95 202.81 56.95H202.8ZM202.8 50.88C204.81 50.88 206.38 50 207.52 48.25C208.66 46.49 209.23 44.07 209.23 40.98C209.23 37.89 208.66 35.47 207.52 33.71C206.38 31.95 204.81 31.08 202.8 31.08C200.79 31.08 199.16 31.96 198.01 33.71C196.86 35.46 196.28 37.89 196.28 40.98C196.28 44.07 196.86 46.49 198.01 48.25C199.17 50 200.76 50.88 202.8 50.88Z" fill="black"/>
</g>
<defs>
<clipPath id="clip0_1588_1391">
<rect width="183.96" height="89.58" fill="white" transform="translate(60.02 25)"/>
</clipPath>
</defs>
</svg>
