<svg width="304" height="140" viewBox="0 0 304 140" fill="none" xmlns="http://www.w3.org/2000/svg">
<g clip-path="url(#clip0_1588_1451)">
<path d="M33.3201 111.1C31.4501 111.1 29.9001 110.5 28.6801 109.3C27.4601 108.1 26.8401 106.57 26.8401 104.71C26.8401 102.85 27.4501 101.32 28.6801 100.12C29.9001 98.9198 31.4501 98.3198 33.3201 98.3198C35.1901 98.3198 36.7201 98.9198 37.9501 100.12C39.1801 101.32 39.7901 102.85 39.7901 104.71C39.7901 106.57 39.1801 108.1 37.9501 109.3C36.7301 110.5 35.1801 111.1 33.3201 111.1ZM33.3201 108.64C34.4001 108.64 35.2801 108.28 35.9701 107.56C36.6501 106.84 37.0001 105.89 37.0001 104.72C37.0001 103.55 36.6601 102.6 35.9701 101.88C35.2901 101.16 34.4001 100.8 33.3201 100.8C32.2401 100.8 31.3401 101.16 30.6601 101.88C29.9801 102.6 29.6301 103.55 29.6301 104.72C29.6301 105.89 29.9701 106.84 30.6601 107.56C31.3401 108.28 32.2301 108.64 33.3201 108.64Z" fill="black"/>
<path d="M44.93 110.92H42.25V98.5H50.71V100.97H44.93V103.8H49.88V106.25H44.93V110.93V110.92Z" fill="black"/>
<path d="M63.8101 111.1C61.9501 111.1 60.4101 110.5 59.1901 109.3C57.9701 108.1 57.3601 106.56 57.3601 104.69C57.3601 102.82 57.9701 101.3 59.1901 100.11C60.4101 98.9198 61.9501 98.3198 63.8101 98.3198C65.8901 98.3198 67.5501 99.0598 68.8001 100.53L66.8201 102.17C66.0601 101.25 65.0601 100.78 63.8101 100.78C62.7401 100.78 61.8701 101.14 61.1801 101.86C60.5001 102.58 60.1501 103.52 60.1501 104.69C60.1501 105.86 60.4801 106.83 61.1601 107.55C61.8301 108.27 62.7101 108.63 63.8101 108.63C64.4801 108.63 65.0601 108.51 65.5601 108.28C66.0501 108.05 66.5301 107.66 67.0001 107.14L68.9401 108.8C67.7301 110.34 66.0201 111.1 63.8101 111.1Z" fill="black"/>
<path d="M76.52 111.1C74.65 111.1 73.1 110.5 71.88 109.3C70.66 108.1 70.04 106.57 70.04 104.71C70.04 102.85 70.65 101.32 71.88 100.12C73.1 98.9198 74.65 98.3198 76.52 98.3198C78.39 98.3198 79.92 98.9198 81.15 100.12C82.38 101.32 82.99 102.85 82.99 104.71C82.99 106.57 82.38 108.1 81.15 109.3C79.93 110.5 78.38 111.1 76.52 111.1ZM76.52 108.64C77.6 108.64 78.48 108.28 79.17 107.56C79.85 106.84 80.2 105.89 80.2 104.72C80.2 103.55 79.86 102.6 79.17 101.88C78.49 101.16 77.6 100.8 76.52 100.8C75.44 100.8 74.54 101.16 73.86 101.88C73.18 102.6 72.83 103.55 72.83 104.72C72.83 105.89 73.17 106.84 73.86 107.56C74.54 108.28 75.43 108.64 76.52 108.64Z" fill="black"/>
<path d="M88.0802 110.92H85.4502V98.5H88.4602L93.5902 106.37C93.7002 106.53 93.8402 106.76 94.0002 107.07C93.9902 106.91 93.9802 106.68 93.9802 106.37V98.5H96.6102V110.92H93.5902L88.4802 103.09C88.2502 102.73 88.1102 102.5 88.0702 102.39C88.0802 102.56 88.0902 102.79 88.0902 103.09V110.92H88.0802Z" fill="black"/>
<path d="M104.01 111.1C102.95 111.1 101.97 110.92 101.07 110.57C100.16 110.22 99.4401 109.72 98.8801 109.08L100.61 107.32C101.51 108.34 102.66 108.85 104.07 108.85C105.48 108.85 106.23 108.38 106.23 107.45C106.23 107.05 106.09 106.75 105.8 106.53C105.51 106.31 105.02 106.12 104.32 105.95L103.15 105.7C101.82 105.42 100.84 105 100.22 104.42C99.6001 103.84 99.2801 103.08 99.2801 102.12C99.2801 100.94 99.7101 100.02 100.57 99.3398C101.43 98.6598 102.61 98.3198 104.11 98.3198C105.95 98.3198 107.48 98.9298 108.72 100.14L107.03 101.9C106.59 101.4 106.12 101.04 105.63 100.85C105.14 100.65 104.57 100.55 103.91 100.55C103.29 100.55 102.8 100.67 102.45 100.92C102.1 101.17 101.93 101.5 101.93 101.94C101.93 102.31 102.08 102.61 102.37 102.82C102.66 103.04 103.15 103.22 103.84 103.38L105.01 103.61C106.35 103.9 107.34 104.34 107.96 104.92C108.58 105.5 108.9 106.29 108.9 107.28C108.9 108.44 108.46 109.37 107.59 110.06C106.72 110.75 105.53 111.1 104.02 111.1H104.01Z" fill="black"/>
<path d="M116.93 110.92H114.27V100.97H110.47V98.5H120.73V100.97H116.93V110.92Z" fill="black"/>
<path d="M131.08 106.95L133.58 110.93H130.47L128.22 107.22C128.04 106.91 127.88 106.71 127.75 106.64C127.62 106.56 127.39 106.52 127.07 106.52H125.36V110.93H122.68V98.5098H128.3C129.64 98.5098 130.73 98.8598 131.56 99.5698C132.39 100.28 132.8 101.22 132.8 102.4C132.8 103.26 132.59 104 132.16 104.61C131.73 105.22 131.12 105.67 130.33 105.96C130.52 106.12 130.77 106.45 131.09 106.95H131.08ZM125.35 100.83V104.27H127.83C129.27 104.27 129.99 103.7 129.99 102.56C129.99 101.42 129.27 100.83 127.83 100.83H125.35Z" fill="black"/>
<path d="M140.71 111.09C139.01 111.08 137.68 110.61 136.73 109.68C135.78 108.75 135.31 107.45 135.31 105.78V98.5098H137.99V105.51C137.99 106.49 138.23 107.26 138.7 107.8C139.17 108.34 139.85 108.62 140.72 108.63C141.6 108.61 142.26 108.33 142.73 107.81C143.19 107.29 143.42 106.54 143.42 105.55V98.5098H146.1V105.75C146.1 107.43 145.63 108.74 144.68 109.67C143.73 110.61 142.41 111.08 140.7 111.09H140.71Z" fill="black"/>
<path d="M154.87 111.1C153.01 111.1 151.47 110.5 150.25 109.3C149.03 108.1 148.42 106.56 148.42 104.69C148.42 102.82 149.03 101.3 150.25 100.11C151.47 98.9198 153.01 98.3198 154.87 98.3198C156.95 98.3198 158.61 99.0598 159.86 100.53L157.88 102.17C157.12 101.25 156.12 100.78 154.87 100.78C153.8 100.78 152.93 101.14 152.24 101.86C151.56 102.58 151.21 103.52 151.21 104.69C151.21 105.86 151.54 106.83 152.22 107.55C152.89 108.27 153.77 108.63 154.87 108.63C155.54 108.63 156.12 108.51 156.62 108.28C157.11 108.05 157.59 107.66 158.06 107.14L160 108.8C158.79 110.34 157.08 111.1 154.87 111.1Z" fill="black"/>
<path d="M167.87 110.92H165.21V100.97H161.41V98.5H171.67V100.97H167.87V110.92Z" fill="black"/>
<path d="M176.29 110.92H173.61V98.5H176.29V110.92Z" fill="black"/>
<path d="M185.22 111.1C183.35 111.1 181.8 110.5 180.58 109.3C179.36 108.1 178.74 106.57 178.74 104.71C178.74 102.85 179.35 101.32 180.58 100.12C181.8 98.9198 183.35 98.3198 185.22 98.3198C187.09 98.3198 188.62 98.9198 189.85 100.12C191.08 101.32 191.69 102.85 191.69 104.71C191.69 106.57 191.08 108.1 189.85 109.3C188.63 110.5 187.08 111.1 185.22 111.1ZM185.22 108.64C186.3 108.64 187.18 108.28 187.87 107.56C188.55 106.84 188.9 105.89 188.9 104.72C188.9 103.55 188.56 102.6 187.87 101.88C187.19 101.16 186.3 100.8 185.22 100.8C184.14 100.8 183.24 101.16 182.56 101.88C181.88 102.6 181.53 103.55 181.53 104.72C181.53 105.89 181.87 106.84 182.56 107.56C183.24 108.28 184.13 108.64 185.22 108.64Z" fill="black"/>
<path d="M196.78 110.92H194.15V98.5H197.16L202.29 106.37C202.4 106.53 202.54 106.76 202.7 107.07C202.69 106.91 202.68 106.68 202.68 106.37V98.5H205.31V110.92H202.29L197.18 103.09C196.95 102.73 196.81 102.5 196.77 102.39C196.78 102.56 196.79 102.79 196.79 103.09V110.92H196.78Z" fill="black"/>
<path d="M215.5 110.92L212.28 98.5H215.02L217.18 107.63C217.18 107.63 217.22 107.74 217.25 107.88C217.28 108.02 217.31 108.14 217.32 108.22C217.33 108.14 217.36 108.02 217.39 107.88C217.42 107.74 217.45 107.65 217.46 107.63L219.67 98.5H223.25L225.43 107.63C225.5 107.97 225.54 108.16 225.56 108.22L225.7 107.63L227.93 98.5H230.65L227.36 110.92H223.72L221.6 101.81L221.47 101.23C221.46 101.29 221.44 101.39 221.41 101.52C221.38 101.65 221.36 101.75 221.35 101.81L219.14 110.92H215.5Z" fill="black"/>
<path d="M243.2 110.92H240.36L239.37 108.15H234.49L233.5 110.92H230.67L235.48 98.5H238.41L243.2 110.92ZM236.72 101.98L235.32 105.89H238.56L237.16 101.98C237.16 101.98 237.13 101.87 237.1 101.78C237.07 101.69 237.04 101.62 237.02 101.55C237 101.48 236.97 101.41 236.95 101.33L236.73 101.98H236.72Z" fill="black"/>
<path d="M249.51 111.1C248.45 111.1 247.47 110.92 246.57 110.57C245.66 110.22 244.94 109.72 244.38 109.08L246.11 107.32C247.01 108.34 248.16 108.85 249.57 108.85C250.98 108.85 251.73 108.38 251.73 107.45C251.73 107.05 251.59 106.75 251.3 106.53C251.01 106.31 250.52 106.12 249.82 105.95L248.65 105.7C247.32 105.42 246.34 105 245.72 104.42C245.1 103.84 244.78 103.08 244.78 102.12C244.78 100.94 245.21 100.02 246.07 99.3398C246.93 98.6598 248.11 98.3198 249.61 98.3198C251.45 98.3198 252.98 98.9298 254.22 100.14L252.53 101.9C252.09 101.4 251.62 101.04 251.13 100.85C250.64 100.65 250.07 100.55 249.41 100.55C248.79 100.55 248.3 100.67 247.95 100.92C247.6 101.17 247.43 101.5 247.43 101.94C247.43 102.31 247.58 102.61 247.87 102.82C248.16 103.04 248.65 103.22 249.34 103.38L250.51 103.61C251.85 103.9 252.84 104.34 253.46 104.92C254.08 105.5 254.4 106.29 254.4 107.28C254.4 108.44 253.96 109.37 253.09 110.06C252.22 110.75 251.03 111.1 249.52 111.1H249.51Z" fill="black"/>
<path d="M262.42 110.92H259.76V100.97H255.96V98.5H266.22V100.97H262.42V110.92Z" fill="black"/>
<path d="M277.16 110.92H268.16V98.5H277.07V100.86H270.84V103.45H276.1V105.81H270.84V108.56H277.16V110.92Z" fill="black"/>
<path d="M34.51 132.52H29.76V120.1H34.51C36.45 120.1 38.06 120.65 39.34 121.77C40.62 122.88 41.26 124.39 41.26 126.3C41.26 128.21 40.62 129.72 39.33 130.84C38.04 131.96 36.44 132.52 34.51 132.52ZM32.44 122.57V130.06H34.37C35.58 130.06 36.57 129.74 37.33 129.1C38.09 128.46 38.47 127.52 38.47 126.3C38.47 125.08 38.09 124.16 37.34 123.53C36.58 122.89 35.59 122.58 34.37 122.58H32.44V122.57Z" fill="black"/>
<path d="M46.3902 132.52H43.7102V120.1H46.3902V132.52Z" fill="black"/>
<path d="M57.6501 120.1H60.4801L55.8501 132.52H52.7401L48.1301 120.1H50.9701L54.0801 129.08L54.3001 129.78C54.3001 129.78 54.3601 129.62 54.4101 129.46C54.4601 129.3 54.5001 129.17 54.5401 129.1L57.6501 120.1Z" fill="black"/>
<path d="M71.24 132.52H62.24V120.1H71.15V122.46H64.92V125.05H70.18V127.41H64.92V130.16H71.24V132.52Z" fill="black"/>
<path d="M82.2601 128.55L84.7601 132.53H81.6501L79.4001 128.82C79.2201 128.51 79.0601 128.31 78.9301 128.24C78.8001 128.16 78.5701 128.12 78.2501 128.12H76.5401V132.53H73.8601V120.11H79.4801C80.8201 120.11 81.9101 120.46 82.7401 121.17C83.5701 121.88 83.9801 122.82 83.9801 124C83.9801 124.86 83.7701 125.6 83.3401 126.21C82.9101 126.82 82.3001 127.27 81.5101 127.56C81.7001 127.72 81.9501 128.05 82.2701 128.55H82.2601ZM76.5401 122.43V125.87H79.0201C80.4601 125.87 81.1801 125.3 81.1801 124.16C81.1801 123.02 80.4601 122.43 79.0201 122.43H76.5401Z" fill="black"/>
<path d="M92.18 132.52H89.52V122.57H85.72V120.1H95.98V122.57H92.18V132.52Z" fill="black"/>
<path d="M106.92 132.52H97.9202V120.1H106.83V122.46H100.6V125.05H105.86V127.41H100.6V130.16H106.92V132.52Z" fill="black"/>
<path d="M114.28 132.52H109.53V120.1H114.28C116.22 120.1 117.83 120.65 119.11 121.77C120.39 122.88 121.03 124.39 121.03 126.3C121.03 128.21 120.39 129.72 119.1 130.84C117.81 131.96 116.21 132.52 114.28 132.52ZM112.21 122.57V130.06H114.14C115.35 130.06 116.34 129.74 117.1 129.1C117.86 128.46 118.24 127.52 118.24 126.3C118.24 125.08 117.86 124.16 117.11 123.53C116.35 122.89 115.36 122.58 114.14 122.58H112.21V122.57Z" fill="black"/>
<path d="M131.2 132.52H128.52V120.1H136.98V122.57H131.2V125.4H136.15V127.85H131.2V132.53V132.52Z" fill="black"/>
<path d="M147.56 128.55L150.06 132.53H146.95L144.7 128.82C144.52 128.51 144.36 128.31 144.23 128.24C144.1 128.16 143.87 128.12 143.55 128.12H141.84V132.53H139.16V120.11H144.78C146.12 120.11 147.21 120.46 148.04 121.17C148.87 121.88 149.28 122.82 149.28 124C149.28 124.86 149.07 125.6 148.64 126.21C148.21 126.82 147.6 127.27 146.81 127.56C147 127.72 147.25 128.05 147.57 128.55H147.56ZM141.84 122.43V125.87H144.32C145.76 125.87 146.48 125.3 146.48 124.16C146.48 123.02 145.76 122.43 144.32 122.43H141.84Z" fill="black"/>
<path d="M157.66 132.7C155.79 132.7 154.24 132.1 153.02 130.9C151.8 129.7 151.18 128.17 151.18 126.31C151.18 124.45 151.79 122.92 153.02 121.72C154.24 120.52 155.79 119.92 157.66 119.92C159.53 119.92 161.06 120.52 162.29 121.72C163.52 122.92 164.13 124.45 164.13 126.31C164.13 128.17 163.52 129.7 162.29 130.9C161.07 132.1 159.52 132.7 157.66 132.7ZM157.66 130.24C158.74 130.24 159.62 129.88 160.31 129.16C160.99 128.44 161.34 127.49 161.34 126.32C161.34 125.15 161 124.2 160.31 123.48C159.63 122.76 158.74 122.4 157.66 122.4C156.58 122.4 155.68 122.76 155 123.48C154.32 124.2 153.97 125.15 153.97 126.32C153.97 127.49 154.31 128.44 155 129.16C155.68 129.88 156.57 130.24 157.66 130.24Z" fill="black"/>
<path d="M169.22 132.52H166.59V120.1H169.9L173.1 126.51L176.3 120.1H179.59V132.52H176.96V124.69C176.96 124.39 176.96 124.16 176.98 124.01C176.84 124.32 176.72 124.55 176.64 124.69L174.21 129.6H172L169.53 124.67L169.19 124C169.2 124.16 169.21 124.39 169.21 124.7V132.51L169.22 132.52Z" fill="black"/>
<path d="M196.07 132.52H187.72V120.1H190.4V130.05H196.07V132.52Z" fill="black"/>
<path d="M209.99 132.52H207.15L206.16 129.75H201.28L200.29 132.52H197.46L202.27 120.1H205.2L209.99 132.52ZM203.51 123.58L202.11 127.49H205.35L203.95 123.58C203.95 123.58 203.92 123.47 203.89 123.38C203.86 123.29 203.83 123.22 203.81 123.15C203.79 123.08 203.76 123.01 203.74 122.93L203.52 123.58H203.51Z" fill="black"/>
<path d="M214.45 132.52H211.82V120.1H214.83L219.96 127.97C220.07 128.13 220.21 128.36 220.37 128.67C220.36 128.51 220.35 128.28 220.35 127.97V120.1H222.98V132.52H219.96L214.85 124.69C214.62 124.33 214.48 124.1 214.44 123.99C214.45 124.16 214.46 124.39 214.46 124.69V132.52H214.45Z" fill="black"/>
<path d="M230.85 132.52H226.1V120.1H230.85C232.79 120.1 234.4 120.65 235.68 121.77C236.96 122.88 237.6 124.39 237.6 126.3C237.6 128.21 236.96 129.72 235.67 130.84C234.38 131.96 232.78 132.52 230.85 132.52ZM228.78 122.57V130.06H230.71C231.92 130.06 232.91 129.74 233.67 129.1C234.43 128.46 234.81 127.52 234.81 126.3C234.81 125.08 234.43 124.16 233.68 123.53C232.92 122.89 231.93 122.58 230.71 122.58H228.78V122.57Z" fill="black"/>
<path d="M242.69 132.52H240.01V120.1H248.47V122.57H242.69V125.4H247.64V127.85H242.69V132.53V132.52Z" fill="black"/>
<path d="M253.33 132.52H250.65V120.1H253.33V132.52Z" fill="black"/>
<path d="M264.8 132.52H256.45V120.1H259.13V130.05H264.8V132.52Z" fill="black"/>
<path d="M275.11 132.52H266.76V120.1H269.44V130.05H275.11V132.52Z" fill="black"/>
<path d="M105.37 20.6002H102.71V10.6502H98.9102V8.18018H109.17V10.6502H105.37V20.6002Z" fill="black"/>
<path d="M121.2 20.6002H118.36L117.37 17.8302H112.49L111.5 20.6002H108.67L113.47 8.18018H116.4L121.19 20.6002H121.2ZM114.72 11.6502L113.32 15.5602H116.56L115.16 11.6502C115.16 11.6502 115.13 11.5402 115.1 11.4502C115.07 11.3602 115.04 11.2902 115.02 11.2202C115 11.1502 114.97 11.0802 114.95 11.0002L114.73 11.6502H114.72Z" fill="black"/>
<path d="M131.44 16.6202L133.94 20.6002H130.83L128.58 16.8902C128.4 16.5802 128.24 16.3802 128.11 16.3102C127.98 16.2302 127.75 16.1902 127.43 16.1902H125.72V20.6002H123.04V8.18018H128.66C130 8.18018 131.09 8.53018 131.92 9.24018C132.75 9.95018 133.16 10.8902 133.16 12.0702C133.16 12.9302 132.95 13.6702 132.52 14.2802C132.09 14.8902 131.48 15.3402 130.69 15.6302C130.88 15.7902 131.13 16.1202 131.45 16.6202H131.44ZM125.71 10.5002V13.9402H128.19C129.63 13.9402 130.35 13.3702 130.35 12.2302C130.35 11.0902 129.63 10.5002 128.19 10.5002H125.71Z" fill="black"/>
<path d="M141.41 15.9V13.67H147.28V20.6H145.14V19.21C144.4 20.25 143.12 20.78 141.31 20.78C139.5 20.78 138.05 20.2 136.88 19.04C135.71 17.88 135.13 16.36 135.13 14.48C135.13 12.6 135.74 11 136.97 9.8C138.2 8.6 139.77 8 141.68 8C144 8 145.78 8.74 147.04 10.21L145.06 11.85C144.3 10.93 143.18 10.46 141.68 10.46C140.56 10.46 139.66 10.82 138.96 11.55C138.26 12.28 137.92 13.25 137.92 14.47C137.92 15.75 138.26 16.74 138.95 17.44C139.64 18.14 140.56 18.48 141.7 18.48C142.65 18.48 143.42 18.28 144 17.89C144.59 17.49 144.88 16.94 144.88 16.22V15.9H141.41Z" fill="black"/>
<path d="M159.19 20.6002H150.19V8.18018H159.1V10.5402H152.87V13.1302H158.13V15.4902H152.87V18.2402H159.19V20.6002Z" fill="black"/>
<path d="M167.26 20.6002H164.6V10.6502H160.8V8.18018H171.06V10.6502H167.26V20.6002Z" fill="black"/>
<path d="M175.68 20.6002H173V8.18018H175.68V20.6002Z" fill="black"/>
<path d="M181.4 20.6002H178.77V8.18018H181.78L186.91 16.0502C187.02 16.2102 187.16 16.4402 187.32 16.7502C187.31 16.5902 187.3 16.3602 187.3 16.0502V8.18018H189.93V20.6002H186.91L181.8 12.7702C181.57 12.4102 181.43 12.1802 181.39 12.0702C181.4 12.2402 181.41 12.4702 181.41 12.7702V20.6002H181.4Z" fill="black"/>
<path d="M198.7 15.9V13.67H204.57V20.6H202.43V19.21C201.69 20.25 200.41 20.78 198.6 20.78C196.79 20.78 195.34 20.2 194.17 19.04C193 17.88 192.42 16.36 192.42 14.48C192.42 12.6 193.03 11 194.26 9.8C195.49 8.6 197.06 8 198.97 8C201.29 8 203.07 8.74 204.33 10.21L202.35 11.85C201.59 10.93 200.47 10.46 198.97 10.46C197.85 10.46 196.95 10.82 196.25 11.55C195.55 12.28 195.21 13.25 195.21 14.47C195.21 15.75 195.55 16.74 196.24 17.44C196.93 18.14 197.85 18.48 198.99 18.48C199.94 18.48 200.71 18.28 201.29 17.89C201.88 17.49 202.17 16.94 202.17 16.22V15.9H198.7Z" fill="black"/>
<path d="M115.98 43.1299C119.91 43.1299 123.01 44.4299 125.27 47.0499C127.53 49.6599 128.67 53.2499 128.67 57.7999C128.67 63.2899 127.46 67.5399 125.02 70.5599C122.59 73.5699 119.15 75.0799 114.72 75.0799C110.29 75.0799 106.78 73.7699 104.33 71.1599L108.47 66.9699C110.3 68.7099 112.41 69.5799 114.81 69.5799C117.21 69.5799 118.88 68.7099 120.19 66.9699C121.49 65.2299 122.15 62.7999 122.15 59.6799V59.5499C121.46 60.7799 120.42 61.7599 119.02 62.4999C117.62 63.2399 116.09 63.5999 114.41 63.5999C111.26 63.5999 108.74 62.6899 106.85 60.8599C104.96 59.0299 104.02 56.6099 104.02 53.6099C104.02 50.3999 105.11 47.8499 107.31 45.9599C109.5 44.0699 112.39 43.1299 115.99 43.1299H115.98ZM115.93 58.3799C117.55 58.3799 118.85 57.9199 119.82 56.9899C120.79 56.0599 121.28 54.8299 121.28 53.2999C121.28 51.7699 120.79 50.5399 119.82 49.6099C118.85 48.6799 117.55 48.2099 115.93 48.2099C114.31 48.2099 112.97 48.6799 111.99 49.6099C111.01 50.5399 110.53 51.7699 110.53 53.2999C110.53 54.8299 111.02 56.0599 111.99 56.9899C112.96 57.9199 114.28 58.3799 115.93 58.3799Z" fill="black"/>
<path d="M146.67 54.2898C149.7 54.2898 152.17 55.2098 154.07 57.0598C155.98 58.8998 156.93 61.3098 156.93 64.2798C156.93 67.4898 155.85 70.0898 153.69 72.0898C151.53 74.0898 148.68 75.0798 145.14 75.0798C139.53 75.0798 135.52 73.1298 133.13 69.2298L137.59 65.4498C139.57 68.1498 141.92 69.4998 144.66 69.4998C146.4 69.4998 147.77 69.0398 148.78 68.0998C149.78 67.1698 150.29 65.9098 150.29 64.3198C150.29 62.7298 149.82 61.5298 148.89 60.6298C147.96 59.7298 146.7 59.2798 145.11 59.2798C142.98 59.2798 141.29 60.1098 140.03 61.7498H134.09L135.57 43.5698H154.83V49.3298H140.92L140.34 56.3998C141.96 54.9898 144.08 54.2798 146.68 54.2798L146.67 54.2898Z" fill="black"/>
<path d="M174.28 57.4801C172.67 59.0701 170.67 59.8601 168.27 59.8601C165.87 59.8601 163.87 59.0701 162.26 57.4801C160.65 55.8901 159.85 53.9001 159.85 51.4901C159.85 49.0801 160.64 47.0601 162.24 45.4801C163.83 43.9001 165.84 43.1201 168.27 43.1201C170.7 43.1201 172.71 43.9101 174.3 45.4801C175.89 47.0601 176.68 49.0601 176.68 51.4901C176.68 53.9201 175.88 55.8901 174.27 57.4801H174.28ZM165.75 54.4501C166.38 55.1901 167.22 55.5501 168.27 55.5501C169.32 55.5501 170.16 55.1801 170.79 54.4501C171.42 53.7201 171.73 52.7301 171.73 51.5001C171.73 50.2701 171.42 49.2901 170.79 48.5501C170.16 47.8101 169.32 47.4501 168.27 47.4501C167.22 47.4501 166.38 47.8201 165.75 48.5501C165.12 49.2801 164.8 50.2701 164.8 51.5001C164.8 52.7301 165.12 53.7101 165.75 54.4501ZM173.26 74.6301H167.95L187.07 43.5801H192.38L173.26 74.6301ZM192.16 75.0801C189.73 75.0801 187.72 74.2901 186.13 72.7201C184.54 71.1401 183.75 69.1401 183.75 66.7101C183.75 64.2801 184.55 62.3201 186.16 60.7501C187.76 59.1801 189.77 58.3901 192.17 58.3901C194.57 58.3901 196.56 59.1801 198.15 60.7501C199.74 62.3301 200.54 64.3101 200.54 66.7101C200.54 69.1101 199.74 71.1101 198.15 72.7001C196.56 74.2901 194.57 75.0801 192.17 75.0801H192.16ZM189.62 69.6601C190.26 70.4001 191.11 70.7601 192.16 70.7601C193.21 70.7601 194.05 70.3901 194.68 69.6601C195.31 68.9301 195.63 67.9401 195.63 66.7101C195.63 65.4801 195.31 64.5401 194.68 63.8101C194.05 63.0801 193.21 62.7101 192.16 62.7101C191.11 62.7101 190.26 63.0801 189.62 63.8101C188.97 64.5501 188.65 65.5101 188.65 66.7101C188.65 67.9101 188.97 68.9201 189.62 69.6601Z" fill="black"/>
</g>
<defs>
<clipPath id="clip0_1588_1451">
<rect width="250.32" height="124.7" fill="white" transform="translate(26.8401 8)"/>
</clipPath>
</defs>
</svg>
