<svg width="304" height="140" viewBox="0 0 304 140" fill="none" xmlns="http://www.w3.org/2000/svg">
<g clip-path="url(#clip0_1588_1245)">
<path d="M214.75 83.2998C215.29 82.9598 215.97 82.8198 216.65 82.7598C218.14 82.6898 219.5 83.2998 220.79 84.0498C221.67 84.5298 222.62 84.3898 223.1 83.6398C223.51 82.8898 223.3 82.0098 222.42 81.4698C220.79 80.4498 218.28 79.9098 216.99 79.9098C215.7 79.9098 214.68 80.1798 213.6 80.6598C211.63 81.5398 210.61 83.1698 210.61 85.4098C210.61 87.6498 211.7 89.0098 213.67 89.7598C214.62 90.0998 215.71 90.3698 216.73 90.7098C217.68 91.0498 218.7 91.3198 219.65 91.7298C220.33 91.9998 220.67 92.6098 220.67 93.3598C220.67 94.5098 219.92 95.3298 218.63 95.5998C216.39 96.0098 214.42 95.3298 212.65 93.9698C211.83 93.3598 210.88 93.4898 210.34 94.1698C209.8 94.8498 210 95.7998 210.88 96.4098C212.17 97.3598 213.6 97.9698 215.09 98.3098C217.2 98.7198 219.3 98.7198 221.27 97.6998C223.17 96.7498 224.05 95.0498 223.99 92.9498C223.92 90.9098 222.97 89.5498 221.2 88.8098C220.11 88.3398 218.96 88.0598 217.87 87.6498C216.85 87.3098 215.77 87.0398 214.81 86.5598C213.52 85.8798 213.45 84.0498 214.74 83.2998M199.88 85.9498C199.88 83.6398 198.93 81.8698 196.76 80.9198C196.01 80.5798 195.13 80.3798 194.31 80.3098C191.73 80.2398 189.22 80.2398 186.64 80.2398C185.69 80.2398 185.08 80.9898 185.08 81.9998V96.8098C185.08 97.8298 185.83 98.5798 186.78 98.5098C187.73 98.4398 188.34 97.7598 188.34 96.7398V92.6698C188.34 92.1898 188.48 92.0598 188.95 92.0598H191.73C192.14 92.0598 192.34 92.1998 192.61 92.5398C193.42 93.5598 194.17 94.5098 194.99 95.5298C195.6 96.3398 196.21 97.1598 196.82 97.9098C197.43 98.6598 198.52 98.7298 199.2 98.1798C199.88 97.6398 199.95 96.7498 199.34 95.9398C199.27 95.7998 199.14 95.5998 199 95.4598C197.98 94.0998 196.96 92.8098 195.88 91.4498C196.29 91.3098 196.56 91.1798 196.76 91.0398C198.87 90.0198 199.88 88.2498 199.88 85.9498ZM196.62 85.8898C196.69 87.1098 196.28 88.0598 195.19 88.6098C194.65 88.9498 193.9 89.0898 193.22 89.1498C191.73 89.2898 190.3 89.2198 188.87 89.2198C188.46 89.2198 188.33 89.0098 188.33 88.6098V86.1598C188.33 85.3398 188.33 84.5298 188.26 83.7098C188.26 83.2998 188.4 83.1698 188.8 83.1698C190.29 83.1698 191.86 83.0998 193.35 83.1698C193.82 83.1698 194.3 83.3098 194.71 83.4398C195.86 83.7798 196.54 84.5998 196.61 85.8898M179.91 12.1298C180.05 12.0598 180.18 11.9898 180.32 11.9298C180.32 11.8598 180.25 11.7898 180.18 11.7298C179.91 11.7998 179.57 11.9298 179.3 11.9998C177.13 12.7498 174.89 13.4898 172.64 14.1698C171.21 14.6498 170.53 14.1698 170.2 12.7498C169.72 10.6398 169.32 8.53977 168.84 6.49977C168.77 6.02977 168.64 5.54977 168.5 5.00977C168.3 5.20977 168.3 5.41977 168.23 5.61977C167.69 7.99977 167.21 10.3698 166.67 12.7498C166.33 14.2398 165.65 14.6498 164.16 14.1698C161.85 13.4298 159.54 12.6798 157.23 11.9298C157.03 11.9298 156.82 11.8598 156.62 11.7898C156.69 11.9298 156.82 12.0598 156.89 12.1298C158.79 13.8298 160.69 15.5298 162.59 17.2898C163.61 18.2398 163.54 18.9898 162.59 19.9398C162.05 20.4798 161.44 21.0298 160.82 21.5698C159.39 22.8598 158.04 24.0798 156.61 25.3698C156.62 25.3898 156.62 25.3998 156.63 25.4098C156.82 25.3498 157.04 25.2898 157.22 25.2298C159.53 24.4798 161.84 23.7398 164.15 22.9898C165.57 22.5798 166.25 22.9898 166.59 24.4198C167 26.2498 167.41 28.1498 167.81 29.9898C167.95 30.6698 168.15 31.4198 168.29 32.1598C168.49 32.0198 168.49 31.8198 168.56 31.6198C169.1 29.2398 169.58 26.8698 170.12 24.4898C170.46 22.9998 171.14 22.5898 172.57 23.0598C173.86 23.4698 175.08 23.8698 176.3 24.2798C177.59 24.6898 178.88 25.0998 180.17 25.4998C179.63 24.8198 179.01 24.2798 178.4 23.7298C177.04 22.5098 175.68 21.2798 174.32 20.0598C173.17 18.9698 173.17 18.2298 174.25 17.2098C174.32 17.0698 174.45 17.0098 174.52 16.9398C176.35 15.3098 178.12 13.7498 179.89 12.1198M156.64 25.4098C156.64 25.4098 156.58 25.4298 156.55 25.4398C156.65 25.4898 156.66 25.4598 156.64 25.4098ZM163.75 94.6498C163.82 93.6298 163.75 92.5498 163.75 91.5298C163.75 90.8964 164.043 90.5798 164.63 90.5798H171.49C172.44 90.5798 173.05 89.8998 172.98 89.0198C172.91 88.2698 172.3 87.7298 171.35 87.7298H164.42C163.87 87.7298 163.74 87.5898 163.74 87.0498C163.81 85.9598 163.81 84.8798 163.74 83.7898C163.74 83.2498 163.87 83.0398 164.49 83.0398H172.64C173.52 83.0398 174.13 82.4298 174.13 81.6098C174.13 80.8598 173.52 80.2498 172.64 80.1798H162.66C161.03 80.1798 160.49 80.7198 160.49 82.3498V96.2698C160.49 97.6998 161.1 98.3098 162.53 98.3098H172.38C172.65 98.3098 172.92 98.3098 173.13 98.2398C173.81 98.0998 174.28 97.5598 174.28 96.8798C174.35 96.1998 173.87 95.5898 173.19 95.4498C172.92 95.3798 172.58 95.3798 172.31 95.3798H164.57C163.96 95.3798 163.75 95.2398 163.75 94.6298M170.54 45.7498C165.24 40.7898 159.88 35.8998 154.58 31.0098C150.44 27.2098 146.36 23.3998 142.22 19.5998C141.34 18.7798 140.32 18.4498 139.16 18.6498C137.26 18.9198 136.1 20.4198 136.1 22.3898V59.9498C136.1 61.0998 136.51 62.0498 137.39 62.7998C138.54 63.7498 139.9 63.9498 141.26 63.2798C142.62 62.6698 143.3 61.5098 143.3 60.0198V30.5498C143.5 30.6898 143.64 30.7498 143.64 30.8898C145.07 32.1798 146.49 33.5398 147.92 34.8298C153.35 39.7898 158.72 44.7398 164.15 49.6998C164.49 49.9698 164.62 50.2398 164.62 50.7198V59.9598C164.62 60.2998 164.62 60.7098 164.69 61.0498C165.16 62.8198 166.79 63.9698 168.49 63.7698C170.39 63.5698 171.82 62.1398 171.82 60.1698V48.6198C171.82 47.4698 171.35 46.5198 170.53 45.7698M136.24 80.1098C134.88 80.1098 134.27 80.7198 134.27 82.0798V96.3398C134.27 97.6998 134.88 98.3098 136.24 98.3098C138.41 98.3098 140.66 98.3798 142.83 98.3098C144.39 98.3098 145.89 98.0398 147.31 97.2198C150.09 95.5898 150.3 90.8998 147.17 89.4098C146.83 89.2698 146.42 89.0698 146.01 88.8698C146.21 88.7998 146.28 88.7298 146.42 88.5298C147.98 87.5098 148.66 86.0898 148.46 84.2498C148.25 82.4798 147.24 81.3298 145.61 80.6498C145 80.3798 144.32 80.1698 143.64 80.1698C141.13 80.0998 138.68 80.0998 136.24 80.0998M137.6 91.1798C137.6 90.7698 137.74 90.6398 138.14 90.6398C139.84 90.6398 141.54 90.5698 143.23 90.6398C143.77 90.6398 144.32 90.7798 144.79 90.9798C145.74 91.3198 146.22 92.0698 146.22 93.0898C146.22 94.1098 145.68 94.8598 144.73 95.1898C144.12 95.3898 143.44 95.3898 142.76 95.5298H140.52C139.7 95.5298 138.96 95.4598 138.21 95.5998C137.8 95.5998 137.6 95.4598 137.6 94.9898V91.1898V91.1798ZM137.53 83.7098C137.53 83.2398 137.73 83.0998 138.14 83.0998C138.89 83.0998 139.57 83.0998 140.31 83.0298C141.26 83.0998 142.21 83.0298 143.16 83.2998C144.79 83.4998 145.61 84.8598 145.06 86.2898C144.86 86.8998 144.45 87.3098 143.84 87.5098C143.23 87.7198 142.62 87.9198 141.94 87.9198C140.65 87.9898 139.36 87.9198 138.14 87.9198C137.73 87.9198 137.53 87.7798 137.53 87.3098V83.7098ZM123.75 96.4098C121.51 91.3798 119.2 86.3598 116.96 81.3298C116.55 80.5098 115.94 80.0398 114.99 80.0398C114.04 80.0398 113.36 80.4498 112.95 81.3298L106.23 96.4098C106.03 96.6798 106.03 97.0898 106.09 97.4298C106.23 98.0398 106.77 98.4498 107.38 98.5198C108.06 98.6598 108.74 98.3198 109.01 97.6398C109.49 96.6198 109.96 95.5998 110.37 94.5798C110.57 94.1698 110.78 94.0398 111.19 94.0398H118.79C119.2 94.0398 119.4 94.1098 119.54 94.5198C119.95 95.4698 120.42 96.4898 120.83 97.4398C121.1 98.1198 121.64 98.5298 122.39 98.5298C123.55 98.5298 124.29 97.3798 123.75 96.4298M118.11 91.0498H111.86C112.88 88.6698 113.9 86.3598 114.98 83.9198C116.07 86.3698 117.09 88.6698 118.1 91.0498M95.84 96.4098V82.0798C95.84 81.8098 95.84 81.4698 95.77 81.1998C95.57 80.5898 95.16 80.2498 94.48 80.1098C93.87 80.0398 93.33 80.1798 92.99 80.7198C92.72 81.1298 92.58 81.5998 92.58 82.0798V92.3998C92.51 92.3998 92.44 92.3998 92.51 92.4698C92.44 92.3298 92.31 92.2698 92.24 92.1298C89.59 88.7998 87.01 85.4098 84.43 82.0798C84.09 81.5998 83.75 81.0598 83.27 80.6498C82.66 79.9698 81.84 79.9698 81.03 80.2398C80.35 80.5098 80.01 80.9898 80.01 81.7298V96.9398C80.01 97.2098 80.15 97.6198 80.35 97.8898C80.76 98.4998 81.44 98.7098 82.12 98.4298C82.8 98.1598 83.14 97.6098 83.14 96.8698V85.7298C83.55 85.9298 83.75 86.1998 83.96 86.4798C86.81 90.1498 89.6 93.8198 92.45 97.4798C93.13 98.3598 93.94 98.6298 94.83 98.2998C95.51 98.0298 95.85 97.4798 95.85 96.3998" fill="black"/>
<path d="M110.8 126.73C112.01 126.73 113 127.1 113.76 127.84C114.52 128.58 114.9 129.54 114.9 130.73C114.9 132.01 114.47 133.06 113.6 133.85C112.74 134.65 111.6 135.05 110.18 135.05C107.94 135.05 106.33 134.27 105.37 132.71L107.15 131.2C107.94 132.28 108.88 132.82 109.98 132.82C110.68 132.82 111.22 132.63 111.63 132.26C112.03 131.89 112.23 131.38 112.23 130.75C112.23 130.12 112.04 129.63 111.67 129.27C111.3 128.91 110.79 128.73 110.16 128.73C109.31 128.73 108.63 129.06 108.13 129.72H105.75L106.34 122.45H114.04V124.75H108.48L108.25 127.58C108.9 127.02 109.74 126.73 110.79 126.73H110.8Z" fill="black"/>
<path d="M119.58 127.03L118.5 128.56L116.9 127.41L118 125.99L116.36 125.47L116.95 123.6L118.62 124.18L118.6 122.45H120.58L120.56 124.16L122.2 123.6L122.81 125.47L121.17 125.99L122.27 127.41L120.65 128.56L119.57 127.03H119.58Z" fill="black"/>
<path d="M138.66 130.89L141.16 134.87H138.05L135.8 131.16C135.62 130.85 135.46 130.65 135.33 130.58C135.2 130.5 134.97 130.46 134.65 130.46H132.94V134.87H130.26V122.45H135.88C137.22 122.45 138.31 122.8 139.14 123.51C139.97 124.22 140.38 125.16 140.38 126.34C140.38 127.2 140.17 127.94 139.74 128.55C139.31 129.16 138.71 129.61 137.91 129.9C138.1 130.06 138.35 130.39 138.67 130.89H138.66ZM132.93 124.77V128.21H135.41C136.85 128.21 137.57 127.64 137.57 126.5C137.57 125.36 136.85 124.77 135.41 124.77H132.93Z" fill="black"/>
<path d="M155.02 134.86H152.18L151.19 132.09H146.31L145.32 134.86H142.49L147.3 122.44H150.23L155.02 134.86ZM148.54 125.92L147.14 129.83H150.38L148.98 125.92C148.98 125.92 148.95 125.81 148.92 125.72C148.89 125.64 148.86 125.56 148.84 125.49C148.82 125.42 148.79 125.35 148.77 125.27L148.55 125.92H148.54Z" fill="black"/>
<path d="M161 134.86H158.34V124.91H154.54V122.44H164.8V124.91H161V134.86Z" fill="black"/>
<path d="M169.42 134.86H166.74V122.44H169.42V134.86Z" fill="black"/>
<path d="M175.16 134.86H172.53V122.44H175.54L180.67 130.31C180.78 130.47 180.92 130.7 181.08 131.01C181.07 130.85 181.06 130.62 181.06 130.31V122.44H183.69V134.86H180.67L175.56 127.03C175.33 126.67 175.19 126.44 175.15 126.33C175.16 126.5 175.17 126.73 175.17 127.03V134.86H175.16Z" fill="black"/>
<path d="M192.46 130.17V127.94H198.33V134.87H196.19V133.48C195.45 134.52 194.17 135.05 192.36 135.05C190.55 135.05 189.1 134.47 187.93 133.31C186.77 132.15 186.18 130.63 186.18 128.75C186.18 126.87 186.79 125.27 188.03 124.07C189.26 122.87 190.83 122.27 192.74 122.27C195.06 122.27 196.84 123.01 198.1 124.48L196.12 126.12C195.36 125.2 194.24 124.73 192.74 124.73C191.62 124.73 190.72 125.09 190.02 125.82C189.32 126.55 188.98 127.52 188.98 128.74C188.98 130.02 189.32 131.01 190.02 131.71C190.71 132.41 191.62 132.75 192.76 132.75C193.71 132.75 194.48 132.55 195.06 132.16C195.64 131.77 195.94 131.21 195.94 130.49V130.17H192.47H192.46Z" fill="black"/>
</g>
<defs>
<clipPath id="clip0_1588_1245">
<rect width="143.98" height="130.04" fill="white" transform="translate(80.01 5)"/>
</clipPath>
</defs>
</svg>
