<svg width="304" height="140" viewBox="0 0 304 140" fill="none" xmlns="http://www.w3.org/2000/svg">
<g clip-path="url(#clip0_1588_1278)">
<path d="M101.635 99.8199L104.135 103.8H101.025L98.7749 100.09C98.5949 99.7799 98.4349 99.5799 98.3049 99.5099C98.1749 99.4299 97.9449 99.3899 97.6249 99.3899H95.9149V103.8H93.2349V91.3799H98.8549C100.195 91.3799 101.285 91.7299 102.115 92.4399C102.945 93.1499 103.355 94.0899 103.355 95.2699C103.355 96.1299 103.145 96.8699 102.715 97.4799C102.285 98.0899 101.675 98.5399 100.885 98.8299C101.075 98.9899 101.325 99.3199 101.645 99.8199H101.635ZM95.9149 93.6999V97.1399H98.3949C99.8349 97.1399 100.555 96.5699 100.555 95.4299C100.555 94.2899 99.8349 93.6999 98.3949 93.6999H95.9149Z" fill="black"/>
<path d="M108.795 103.8H106.115V91.3799H108.795V103.8Z" fill="black"/>
<path d="M120.065 91.3799H122.895L118.265 103.8H115.155L110.545 91.3799H113.385L116.495 100.36L116.715 101.06C116.715 101.06 116.775 100.9 116.825 100.74C116.875 100.57 116.915 100.45 116.955 100.38L120.065 91.3799Z" fill="black"/>
<path d="M133.635 103.8H124.635V91.3799H133.545V93.7399H127.315V96.3299H132.575V98.6899H127.315V101.44H133.635V103.8Z" fill="black"/>
<path d="M144.655 99.8199L147.155 103.8H144.045L141.795 100.09C141.615 99.7799 141.455 99.5799 141.325 99.5099C141.195 99.4299 140.965 99.3899 140.645 99.3899H138.935V103.8H136.255V91.3799H141.875C143.215 91.3799 144.305 91.7299 145.135 92.4399C145.965 93.1499 146.375 94.0899 146.375 95.2699C146.375 96.1299 146.165 96.8699 145.735 97.4799C145.305 98.0899 144.695 98.5399 143.905 98.8299C144.095 98.9899 144.345 99.3199 144.665 99.8199H144.655ZM138.935 93.6999V97.1399H141.415C142.855 97.1399 143.575 96.5699 143.575 95.4299C143.575 94.2899 142.855 93.6999 141.415 93.6999H138.935Z" fill="black"/>
<path d="M162.415 91.3799H165.245L160.615 103.8H157.505L152.895 91.3799H155.735L158.845 100.36L159.065 101.06C159.065 101.06 159.125 100.9 159.175 100.74C159.225 100.57 159.265 100.45 159.305 100.38L162.415 91.3799Z" fill="black"/>
<path d="M169.695 103.8H167.015V91.3799H169.695V103.8Z" fill="black"/>
<path d="M181.805 103.8H172.805V91.3799H181.715V93.7399H175.485V96.3299H180.745V98.6899H175.485V101.44H181.805V103.8Z" fill="black"/>
<path d="M186.525 103.8L183.305 91.3799H186.045L188.205 100.51C188.205 100.51 188.245 100.62 188.275 100.76C188.305 100.9 188.335 101.02 188.345 101.1C188.355 101.02 188.385 100.9 188.415 100.76C188.445 100.62 188.475 100.53 188.485 100.51L190.695 91.3799H194.275L196.455 100.51C196.525 100.85 196.565 101.04 196.585 101.1L196.725 100.51L198.955 91.3799H201.675L198.385 103.8H194.745L192.625 94.6899L192.495 94.1099C192.485 94.1699 192.465 94.2699 192.435 94.3999C192.405 94.5299 192.385 94.6299 192.375 94.6899L190.165 103.8H186.525Z" fill="black"/>
<path d="M207.745 103.98C206.685 103.98 205.705 103.8 204.805 103.45C203.895 103.1 203.175 102.6 202.615 101.97L204.345 100.21C205.245 101.23 206.395 101.74 207.805 101.74C209.215 101.74 209.965 101.27 209.965 100.34C209.965 99.94 209.825 99.64 209.535 99.42C209.245 99.2 208.755 99.01 208.055 98.84L206.885 98.59C205.555 98.31 204.575 97.89 203.955 97.31C203.335 96.73 203.015 95.97 203.015 95.01C203.015 93.83 203.445 92.91 204.305 92.23C205.165 91.55 206.345 91.21 207.845 91.21C209.685 91.21 211.215 91.82 212.455 93.03L210.765 94.79C210.325 94.29 209.855 93.94 209.365 93.74C208.875 93.54 208.305 93.44 207.645 93.44C207.025 93.44 206.535 93.56 206.185 93.81C205.835 94.06 205.665 94.39 205.665 94.83C205.665 95.2 205.815 95.5 206.105 95.71C206.395 95.93 206.885 96.11 207.575 96.27L208.745 96.5C210.085 96.79 211.075 97.23 211.695 97.81C212.315 98.4 212.635 99.18 212.635 100.17C212.635 101.33 212.195 102.26 211.325 102.95C210.455 103.64 209.265 103.99 207.755 103.99L207.745 103.98Z" fill="black"/>
<path d="M43.915 67.95C41.275 67.95 38.825 67.51 36.555 66.62C34.285 65.74 32.465 64.5 31.085 62.91L35.405 58.5C37.655 61.05 40.535 62.33 44.045 62.33C47.555 62.33 49.445 61.16 49.445 58.82C49.445 57.83 49.085 57.07 48.365 56.53C47.645 55.99 46.415 55.51 44.675 55.09L41.755 54.46C38.425 53.77 35.975 52.7 34.425 51.26C32.875 49.82 32.075 47.9 32.075 45.5C32.075 42.56 33.145 40.24 35.295 38.55C37.435 36.85 40.385 36 44.135 36C48.725 36 52.565 37.52 55.655 40.54L51.425 44.95C50.315 43.69 49.155 42.81 47.935 42.32C46.725 41.83 45.285 41.58 43.635 41.58C42.075 41.58 40.855 41.89 39.985 42.5C39.115 43.12 38.685 43.96 38.685 45.04C38.685 45.97 39.055 46.71 39.785 47.25C40.515 47.79 41.745 48.26 43.455 48.65L46.385 49.23C49.745 49.95 52.205 51.05 53.765 52.52C55.325 53.99 56.105 55.96 56.105 58.42C56.105 61.33 55.015 63.65 52.845 65.37C50.665 67.1 47.695 67.96 43.915 67.96V67.95Z" fill="black"/>
<path d="M75.815 67.5002H69.155V42.6202H59.665V36.4502H85.315V42.6202H75.815V67.5002Z" fill="black"/>
<path d="M103.175 67.9002C98.915 67.8702 95.5951 66.6902 93.2351 64.3702C90.8651 62.0502 89.675 58.8002 89.675 54.6302V36.4502H96.3851V53.9502C96.3851 56.4102 96.9751 58.3102 98.1651 59.6602C99.3451 61.0102 101.035 61.7002 103.225 61.7302C105.415 61.6702 107.085 60.9902 108.245 59.6802C109.395 58.3802 109.975 56.4902 109.975 54.0302V36.4502H116.685V54.5402C116.685 58.7402 115.495 62.0102 113.135 64.3502C110.765 66.6902 107.445 67.8702 103.185 67.9002H103.175Z" fill="black"/>
<path d="M130.485 67.5002H123.915V36.4502H131.425L144.255 56.1202C144.525 56.5102 144.865 57.1002 145.295 57.8702C145.265 57.4802 145.255 56.9002 145.255 56.1202V36.4502H151.825V67.5002H144.265L131.485 47.9202C130.915 47.0202 130.565 46.4402 130.445 46.1702C130.475 46.5902 130.485 47.1802 130.485 47.9202V67.5002Z" fill="black"/>
<path d="M165.855 67.5002H159.285V36.4502H166.795L179.625 56.1202C179.895 56.5102 180.235 57.1002 180.665 57.8702C180.635 57.4802 180.625 56.9002 180.625 56.1202V36.4502H187.195V67.5002H179.635L166.855 47.9202C166.285 47.0202 165.935 46.4402 165.815 46.1702C165.845 46.5902 165.855 47.1802 165.855 47.9202V67.5002Z" fill="black"/>
<path d="M201.365 67.5002H194.655V36.4502H201.365V67.5002Z" fill="black"/>
<path d="M215.355 67.5002H208.785V36.4502H216.295L229.125 56.1202C229.395 56.5102 229.735 57.1002 230.165 57.8702C230.135 57.4802 230.125 56.9002 230.125 56.1202V36.4502H236.695V67.5002H229.135L216.355 47.9202C215.785 47.0202 215.435 46.4402 215.315 46.1702C215.345 46.5902 215.355 47.1802 215.355 47.9202V67.5002Z" fill="black"/>
<path d="M258.245 55.7498V50.1698H272.915V67.4998H267.555V64.0398C265.695 66.6498 262.505 67.9598 257.975 67.9598C253.445 67.9598 249.815 66.5098 246.905 63.6198C243.995 60.7298 242.535 56.9198 242.535 52.2098C242.535 47.4998 244.075 43.5098 247.145 40.5098C250.225 37.5098 254.145 36.0098 258.915 36.0098C264.705 36.0098 269.175 37.8598 272.325 41.5498L267.375 45.6398C265.485 43.3298 262.665 42.1798 258.915 42.1798C256.125 42.1798 253.855 43.0898 252.125 44.8998C250.385 46.7198 249.515 49.1498 249.515 52.2098C249.515 55.4198 250.375 57.8998 252.105 59.6298C253.825 61.3698 256.115 62.2398 258.965 62.2398C261.335 62.2398 263.255 61.7498 264.725 60.7598C266.195 59.7698 266.935 58.3798 266.935 56.5698V55.7598H258.255L258.245 55.7498Z" fill="black"/>
</g>
<defs>
<clipPath id="clip0_1588_1278">
<rect width="241.83" height="67.98" fill="white" transform="translate(31.085 36)"/>
</clipPath>
</defs>
</svg>
