<svg width="304" height="140" viewBox="0 0 304 140" fill="none" xmlns="http://www.w3.org/2000/svg">
<g clip-path="url(#clip0_1581_926)">
<path d="M156.38 77.9302L159.42 81.7602V77.9902C159.42 77.8702 159.52 77.7702 159.64 77.7702H159.95C160.08 77.7702 160.18 77.8702 160.18 77.9902V82.9102C160.18 83.0302 160.08 83.1302 159.96 83.1302H159.69C159.58 83.1302 159.42 83.0602 159.35 82.9702L156.32 79.1402V82.9102C156.32 83.0302 156.21 83.1302 156.09 83.1302H155.78C155.66 83.1302 155.55 83.0302 155.55 82.9102V77.9902C155.54 77.8602 155.65 77.7602 155.77 77.7602H156.03C156.16 77.7602 156.3 77.8302 156.38 77.9302ZM173.3 57.8402H171.95C171.45 57.8402 171.04 58.2202 171.04 58.7602V71.9502C171.04 72.4602 171.44 72.8602 171.95 72.8602H180.67C181.18 72.8602 181.58 72.4602 181.58 71.9502V70.8402C181.58 70.3302 181.18 69.9502 180.67 69.9502H174.21V58.7602C174.21 58.2302 173.81 57.8502 173.3 57.8502M162.72 77.7702H162.38C162.26 77.7702 162.15 77.8702 162.15 77.9902V80.9802C162.15 82.2502 163.15 83.2202 164.45 83.2202C165.75 83.2202 166.75 82.2502 166.75 80.9802V77.9902C166.75 77.8702 166.65 77.7702 166.53 77.7702H166.19C166.06 77.7702 165.96 77.8702 165.96 77.9902V80.9802C165.96 81.8402 165.31 82.4802 164.46 82.4802C163.61 82.4802 162.95 81.8402 162.95 80.9802V77.9902C162.95 77.8702 162.85 77.7702 162.73 77.7702M169.31 77.7602H168.96C168.83 77.7602 168.72 77.8602 168.74 77.9802V82.9002C168.74 83.0202 168.85 83.1202 168.97 83.1202H169.31C169.43 83.1202 169.53 83.0202 169.53 82.9002V79.2802L171.27 82.3402C171.31 82.4202 171.42 82.4702 171.51 82.4702H171.71C171.8 82.4702 171.9 82.4202 171.95 82.3402L173.69 79.2702V82.9002C173.69 83.0202 173.8 83.1202 173.92 83.1202H174.26C174.39 83.1202 174.48 83.0202 174.48 82.9002V77.9802C174.48 77.8602 174.38 77.7602 174.26 77.7602H173.92C173.79 77.7602 173.64 77.8402 173.57 77.9602L171.6 81.4102L169.63 77.9602C169.57 77.8502 169.42 77.7602 169.3 77.7602M160.72 57.8402H159.37C158.86 57.8402 158.46 58.2202 158.46 58.7602V71.9502C158.46 72.4602 158.86 72.8602 159.37 72.8602H168.09C168.6 72.8602 169 72.4602 169 71.9502V70.8402C169 70.3302 168.6 69.9502 168.09 69.9502H161.63V58.7602C161.63 58.2302 161.23 57.8502 160.72 57.8502M136.06 77.7602H135.72C135.59 77.7602 135.49 77.8602 135.49 77.9802V82.9002C135.49 83.0202 135.6 83.1202 135.72 83.1202H138.9C139.02 83.1202 139.13 83.0202 139.13 82.9002V82.6202C139.13 82.5002 139.02 82.3902 138.9 82.3902H136.29V77.9802C136.29 77.8602 136.19 77.7602 136.07 77.7602M124.6 20.6902C124.17 20.9402 124.02 21.4902 124.27 21.9102L125.86 24.6702C126.1 25.0902 126.63 25.2402 127.05 25.0002C130.72 22.9602 134.64 21.3802 138.69 20.2902C143.01 19.1302 147.49 18.5502 152 18.5502C156.51 18.5502 160.99 19.1302 165.31 20.2902C169.64 21.4502 173.81 23.1802 177.7 25.4302C181.33 27.5302 184.71 30.0802 187.73 33.0002C188.07 33.3402 188.62 33.3402 188.97 32.9902L191.21 30.7402C191.56 30.3902 191.55 29.8202 191.2 29.4802C187.88 26.2702 184.17 23.4702 180.18 21.1502C175.91 18.6902 171.34 16.7802 166.59 15.5102C161.86 14.2502 156.95 13.6002 152.01 13.6002C147.07 13.6002 142.15 14.2402 137.43 15.5002C132.96 16.6902 128.66 18.4402 124.61 20.6902M131.88 77.7702C132.9 77.7702 133.66 78.5002 133.66 79.4502C133.66 80.4002 132.91 81.1402 131.88 81.1402H130.31V82.9302C130.31 83.0502 130.21 83.1502 130.09 83.1502H129.75C129.62 83.1502 129.52 83.0402 129.52 82.9202V78.0002C129.52 77.8802 129.63 77.7802 129.75 77.7802H131.89L131.88 77.7702ZM131.88 78.5002H130.31V80.3802H131.88C132.42 80.3802 132.84 79.9702 132.84 79.4402C132.84 78.9102 132.42 78.5002 131.88 78.5002ZM142.42 57.8602H141C140.47 57.8602 139.96 58.2102 139.83 58.7202L137.06 67.7002L134.3 58.6502C134.17 58.1802 133.7 57.8502 133.22 57.8502H132.28C131.81 57.8502 131.34 58.1902 131.21 58.6502L128.48 67.6902L125.68 58.7102C125.53 58.2002 125.02 57.8402 124.51 57.8402L123.08 57.8502C122.55 57.8502 122.29 58.2302 122.46 58.7102L126.95 72.0602C127.1 72.5102 127.57 72.8602 128.04 72.8602H128.98C129.47 72.8602 129.93 72.5202 130.07 72.0602L132.78 63.4102L135.46 72.0602C135.6 72.5302 136.06 72.8602 136.53 72.8602H137.47C137.97 72.8602 138.43 72.5002 138.58 72.0602L143.04 58.7102C143.22 58.2202 142.95 57.8502 142.44 57.8502M155.25 60.7802C155.78 60.7802 156.16 60.3802 156.16 59.8702V58.7602C156.16 58.2302 155.78 57.8502 155.25 57.8502H145.95C145.44 57.8502 145.04 58.2302 145.04 58.7702V71.9602C145.04 72.4702 145.44 72.8702 145.95 72.8702H155.36C155.89 72.8702 156.27 72.4702 156.27 71.9602V70.8502C156.27 70.3402 155.89 69.9602 155.36 69.9602H148.21V66.7502H154.05C154.56 66.7502 154.96 66.3702 154.96 65.8402V64.7302C154.96 64.2202 154.56 63.8402 154.05 63.8402H148.21V60.7902H155.25V60.7802ZM152 126.31C156.95 126.31 161.86 125.67 166.59 124.41C171.06 123.22 175.36 121.47 179.41 119.22C179.84 118.97 179.99 118.43 179.74 118L178.15 115.25C177.91 114.83 177.38 114.69 176.96 114.92C173.29 116.96 169.37 118.54 165.32 119.63C161 120.79 156.52 121.37 152.01 121.37C147.5 121.37 143.02 120.79 138.7 119.63C134.37 118.47 130.2 116.74 126.31 114.49C122.68 112.39 119.31 109.85 116.29 106.92C115.94 106.59 115.4 106.59 115.05 106.92L112.8 109.17C112.44 109.52 112.45 110.09 112.8 110.43C116.12 113.65 119.83 116.45 123.82 118.76C128.09 121.22 132.66 123.12 137.41 124.4C142.14 125.66 147.05 126.31 152 126.31ZM205.59 55.5902L202.52 56.4102C202.05 56.5302 201.78 57.0102 201.89 57.4802C202.9 61.5402 203.41 65.7302 203.41 69.9502C203.41 74.4602 202.83 78.9402 201.67 83.2602C200.59 87.3102 199 91.2302 196.96 94.9002C196.72 95.3202 196.87 95.8502 197.28 96.0902L200.04 97.6802C200.46 97.9302 201.01 97.7802 201.25 97.3302C203.5 93.2902 205.25 88.9802 206.45 84.5102C207.71 79.7902 208.36 74.8702 208.36 69.9302C208.36 65.2802 207.79 60.6702 206.68 56.2102C206.56 55.7302 206.07 55.4502 205.59 55.5702M205.92 101.1L203.16 99.5102C202.75 99.2602 202.21 99.4002 201.96 99.8202C199.51 103.93 196.54 107.72 193.14 111.12C189.55 114.72 185.49 117.83 181.09 120.38C176.68 122.93 171.96 124.89 167.05 126.2C162.17 127.51 157.09 128.17 151.98 128.17C147.16 128.17 142.38 127.59 137.75 126.42C137.28 126.31 136.81 126.58 136.68 127.05L135.86 130.13C135.73 130.6 136.02 131.09 136.5 131.21C141.54 132.47 146.75 133.12 151.98 133.12C157.52 133.12 163.02 132.41 168.32 130.99C173.65 129.57 178.77 127.44 183.56 124.67C188.33 121.92 192.73 118.53 196.63 114.63C200.32 110.93 203.55 106.8 206.22 102.33C206.47 101.91 206.33 101.36 205.9 101.11M152.92 77.7602C152.8 77.7602 152.69 77.8602 152.69 77.9802V82.9002C152.69 83.0202 152.79 83.1202 152.92 83.1202H153.26C153.38 83.1202 153.48 83.0202 153.48 82.9002V77.9802C153.48 77.8602 153.38 77.7602 153.26 77.7602H152.92ZM206.71 38.3802C203.95 33.6102 200.57 29.2102 196.67 25.3102C192.97 21.6202 188.83 18.4002 184.37 15.7202C183.95 15.4702 183.4 15.6102 183.15 16.0402L181.56 18.8002C181.31 19.2102 181.45 19.7502 181.87 20.0002C185.98 22.4502 189.78 25.4202 193.17 28.8102C196.76 32.4102 199.88 36.4602 202.43 40.8602C204.98 45.2702 206.94 49.9802 208.25 54.8902C209.48 59.5002 210.14 64.2802 210.21 69.0902C210.21 69.5702 210.61 69.9602 211.09 69.9602H214.27C214.76 69.9602 215.16 69.5502 215.16 69.0702C215.09 63.8302 214.37 58.6402 213.03 53.6202C211.61 48.2902 209.48 43.1702 206.71 38.3802ZM120.45 38.4102C123.22 35.6502 126.32 33.2702 129.69 31.3202C133.07 29.3702 136.69 27.8702 140.45 26.8602C144.21 25.8502 148.09 25.3502 152 25.3502C155.62 25.3502 159.23 25.7802 162.71 26.6402C163.18 26.7502 163.66 26.4802 163.78 26.0102L164.6 22.9402C164.73 22.4602 164.44 21.9702 163.96 21.8502C160.06 20.8902 156.05 20.4002 152 20.4002C147.66 20.4002 143.34 20.9702 139.18 22.0802C134.99 23.1902 130.97 24.8602 127.22 27.0402C123.48 29.2002 120.03 31.8502 116.96 34.9202C113.9 37.9802 111.25 41.4302 109.08 45.1802C107.06 48.6802 105.48 52.4002 104.36 56.2702C104.22 56.7502 104.5 57.2402 104.98 57.3702L108.05 58.1902C108.52 58.3102 109 58.0402 109.12 57.5802C110.12 54.1202 111.54 50.7902 113.35 47.6602C115.3 44.2902 117.69 41.1802 120.44 38.4202M221.96 69.9602C221.96 76.1002 221.16 82.1902 219.59 88.0702C218.01 93.9702 215.66 99.6502 212.6 104.95C209.54 110.23 205.8 115.11 201.47 119.43C197.14 123.76 192.27 127.5 186.99 130.56C181.69 133.62 176.01 135.98 170.11 137.56C164.24 139.13 158.14 139.92 152 139.92C145.86 139.92 139.77 139.13 133.89 137.56C127.99 135.98 122.31 133.63 117.01 130.56C111.73 127.5 106.85 123.76 102.53 119.43C98.2 115.1 94.46 110.24 91.4 104.95C88.34 99.6502 85.98 93.9702 84.41 88.0702C82.84 82.2002 82.04 76.1002 82.04 69.9602C82.04 63.8202 82.84 57.7302 84.41 51.8502C85.99 45.9502 88.34 40.2702 91.4 34.9702C94.46 29.6902 98.2 24.8102 102.53 20.4902C106.86 16.1602 111.73 12.4202 117.01 9.36023C122.31 6.29023 127.99 3.94023 133.89 2.36023C139.76 0.790234 145.86 -0.00976562 152 -0.00976562C158.14 -0.00976562 164.23 0.790234 170.11 2.36023C176.01 3.94023 181.69 6.29023 186.99 9.36023C192.27 12.4202 197.15 16.1602 201.47 20.4902C205.8 24.8202 209.54 29.6802 212.6 34.9702C215.66 40.2702 218.02 45.9502 219.59 51.8502C221.16 57.7302 221.96 63.8202 221.96 69.9602ZM217.02 69.9602C217.02 64.2402 216.28 58.5902 214.82 53.1202C213.35 47.6402 211.17 42.3602 208.32 37.4402C205.48 32.5302 202 28.0002 197.98 23.9802C193.96 19.9602 189.43 16.4802 184.52 13.6402C179.6 10.8002 174.33 8.60023 168.84 7.14023C163.36 5.69023 157.7 4.95023 152 4.95023C146.3 4.95023 140.63 5.69023 135.16 7.15023C129.68 8.62023 124.4 10.8002 119.48 13.6502C114.57 16.4902 110.04 19.9702 106.02 23.9902C102 28.0102 98.52 32.5402 95.68 37.4502C92.84 42.3702 90.65 47.6402 89.18 53.1302C87.72 58.5902 86.98 64.2502 86.98 69.9602C86.98 75.6702 87.72 81.3302 89.18 86.8002C90.65 92.2702 92.83 97.5602 95.68 102.48C98.52 107.39 102.01 111.92 106.02 115.94C110.04 119.96 114.57 123.44 119.48 126.29C124.4 129.13 129.67 131.32 135.16 132.79C140.62 134.25 146.28 134.99 152 134.99C157.72 134.99 163.37 134.25 168.83 132.79C174.31 131.32 179.59 129.14 184.51 126.29C189.42 123.45 193.95 119.96 197.97 115.94C201.99 111.92 205.47 107.39 208.31 102.48C211.15 97.5602 213.34 92.2902 214.81 86.8002C216.27 81.3402 217.01 75.6802 217.01 69.9602M148.49 83.1302H148.83C148.96 83.1302 149.06 83.0302 149.06 82.9102V78.5002H150.76C150.89 78.5002 150.99 78.3902 150.99 78.2702V77.9902C150.99 77.8702 150.89 77.7702 150.76 77.7702H146.55C146.42 77.7702 146.32 77.8702 146.33 77.9902V78.2702C146.33 78.3902 146.44 78.5002 146.56 78.5002H148.26V82.9102C148.26 83.0302 148.36 83.1302 148.49 83.1302ZM107.05 45.0002C107.29 44.5802 107.14 44.0502 106.72 43.8102L103.96 42.2202C103.53 41.9702 102.98 42.1202 102.74 42.5602C100.49 46.6102 98.74 50.9202 97.55 55.3802C96.29 60.1102 95.64 65.0202 95.64 69.9602C95.64 74.6102 96.21 79.2202 97.32 83.6802C97.44 84.1502 97.93 84.4402 98.4 84.3102L101.48 83.5002C101.95 83.3702 102.22 82.9002 102.1 82.4302C101.09 78.3702 100.58 74.1802 100.58 69.9602C100.58 65.4502 101.16 60.9702 102.33 56.6502C103.41 52.5902 105 48.6802 107.04 45.0102M143.46 77.9602L145.62 82.9202C145.67 83.0302 145.62 83.1202 145.49 83.1202H145.11C144.99 83.1202 144.84 83.0302 144.79 82.9202L144.38 81.9802H141.72L141.31 82.9202C141.27 83.0302 141.13 83.1202 141 83.1202H140.62C140.5 83.1202 140.43 83.0302 140.49 82.9202L142.66 77.9602C142.7 77.8502 142.83 77.7602 142.94 77.7602H143.17C143.28 77.7602 143.41 77.8402 143.45 77.9602M144.07 81.2502L143.06 78.8902L142.04 81.2502H144.06H144.07ZM95.99 54.0402C97.3 49.4402 99.18 45.0002 101.58 40.8402C104.12 36.4502 107.23 32.3902 110.84 28.7902C114.44 25.1902 118.5 22.0802 122.88 19.5302C127.29 16.9802 132.01 15.0202 136.92 13.7102C141.53 12.4802 146.31 11.8202 151.12 11.7502C151.59 11.7502 151.98 11.3502 151.98 10.8602V7.68023C151.98 7.19023 151.58 6.79023 151.09 6.80023C145.85 6.87023 140.66 7.59023 135.64 8.93023C130.31 10.3502 125.19 12.4802 120.4 15.2402C115.63 18.0002 111.23 21.3802 107.33 25.2802C103.43 29.1802 100.04 33.5802 97.29 38.3502C94.68 42.8702 92.64 47.7002 91.21 52.7202C91.08 53.2002 91.36 53.6902 91.84 53.8202L94.91 54.6402C95.38 54.7602 95.86 54.4902 95.99 54.0202M140.04 118.06C143.94 119.02 147.95 119.51 152 119.51C156.34 119.51 160.66 118.94 164.83 117.83C169.02 116.72 173.04 115.05 176.79 112.88C180.53 110.71 183.98 108.07 187.05 105C190.11 101.94 192.76 98.4902 194.93 94.7502C196.95 91.2502 198.53 87.5302 199.65 83.6602C199.79 83.1802 199.51 82.6902 199.03 82.5602L195.96 81.7402C195.49 81.6202 195.01 81.8902 194.88 82.3502C193.88 85.8102 192.46 89.1402 190.65 92.2702C188.71 95.6402 186.31 98.7602 183.56 101.51C180.79 104.27 177.68 106.65 174.32 108.6C170.94 110.55 167.33 112.05 163.56 113.06C159.81 114.06 155.92 114.57 152.01 114.57C148.39 114.57 144.79 114.14 141.3 113.28C140.83 113.16 140.35 113.44 140.23 113.91L139.41 116.98C139.28 117.46 139.57 117.95 140.05 118.07" fill="black"/>
</g>
<defs>
<clipPath id="clip0_1581_926">
<rect width="139.92" height="139.91" fill="white" transform="translate(82.04)"/>
</clipPath>
</defs>
</svg>
