<svg width="304" height="140" viewBox="0 0 304 140" fill="none" xmlns="http://www.w3.org/2000/svg">
<path d="M114.14 103.8H108.7V91.3799H113.87C115.18 91.3799 116.2 91.6599 116.94 92.2199C117.68 92.7799 118.05 93.5499 118.05 94.5499C118.05 95.8899 117.39 96.8199 116.07 97.3199C117.71 97.6799 118.54 98.6699 118.54 100.29C118.54 101.39 118.15 102.25 117.38 102.87C116.61 103.49 115.53 103.8 114.15 103.8H114.14ZM111.39 93.5499V96.3899H113.6C114.16 96.3899 114.6 96.2699 114.9 96.0199C115.21 95.7699 115.36 95.4199 115.36 94.9699C115.36 94.5199 115.21 94.1599 114.9 93.9199C114.59 93.6699 114.16 93.5499 113.6 93.5499H111.39ZM111.39 98.5799V101.62H113.82C114.44 101.62 114.92 101.49 115.25 101.22C115.58 100.96 115.75 100.58 115.75 100.09C115.75 99.5999 115.59 99.2199 115.26 98.9699C114.93 98.7199 114.47 98.5799 113.86 98.5799H111.39Z" fill="black"/>
<path d="M126.31 103.96C124.61 103.95 123.28 103.48 122.33 102.55C121.38 101.62 120.91 100.32 120.91 98.6499V91.3799H123.59V98.3799C123.59 99.3599 123.83 100.13 124.3 100.67C124.77 101.21 125.45 101.49 126.32 101.5C127.2 101.48 127.86 101.2 128.33 100.68C128.79 100.16 129.02 99.4099 129.02 98.4199V91.3799H131.7V98.6199C131.7 100.3 131.23 101.61 130.28 102.54C129.33 103.48 128.01 103.95 126.3 103.96H126.31Z" fill="black"/>
<path d="M137.43 103.8H134.75V91.3799H137.43V103.8Z" fill="black"/>
<path d="M148.9 103.8H140.55V91.3799H143.23V101.33H148.9V103.8Z" fill="black"/>
<path d="M155.61 103.8H150.86V91.3799H155.61C157.55 91.3799 159.16 91.9299 160.44 93.0499C161.72 94.1599 162.36 95.6699 162.36 97.5799C162.36 99.4899 161.72 101 160.43 102.12C159.14 103.24 157.54 103.8 155.61 103.8ZM153.54 93.8399V101.33H155.47C156.68 101.33 157.67 101.01 158.43 100.37C159.19 99.7299 159.57 98.7899 159.57 97.5699C159.57 96.3499 159.19 95.4299 158.44 94.7999C157.68 94.1599 156.69 93.8499 155.47 93.8499H153.54V93.8399Z" fill="black"/>
<path d="M167.49 103.8H164.81V91.3799H167.49V103.8Z" fill="black"/>
<path d="M173.24 103.8H170.61V91.3799H173.62L178.75 99.2499C178.86 99.4099 179 99.6399 179.16 99.9499C179.15 99.7899 179.14 99.5599 179.14 99.2499V91.3799H181.77V103.8H178.75L173.64 95.9699C173.41 95.6099 173.27 95.3799 173.23 95.2699C173.24 95.4399 173.25 95.6699 173.25 95.9699V103.8H173.24Z" fill="black"/>
<path d="M190.53 99.1002V96.8702H196.4V103.8H194.26V102.41C193.52 103.45 192.24 103.98 190.43 103.98C188.62 103.98 187.17 103.4 186 102.24C184.83 101.08 184.25 99.5602 184.25 97.6802C184.25 95.8002 184.86 94.2002 186.09 93.0002C187.32 91.8002 188.89 91.2002 190.8 91.2002C193.12 91.2002 194.9 91.9402 196.16 93.4102L194.18 95.0502C193.42 94.1302 192.3 93.6602 190.8 93.6602C189.68 93.6602 188.78 94.0202 188.08 94.7502C187.38 95.4802 187.04 96.4502 187.04 97.6702C187.04 98.9502 187.38 99.9402 188.07 100.64C188.76 101.34 189.68 101.68 190.82 101.68C191.77 101.68 192.54 101.48 193.12 101.09C193.71 100.69 194 100.14 194 99.4202V99.1002H190.53Z" fill="black"/>
<path d="M31.8049 67.5002H24.6949L22.2149 60.5702H10.0249L7.54486 67.5002H0.484863L12.4949 36.4502H19.8249L31.7949 67.5002H31.8049ZM15.6049 45.1302L12.0949 54.9002H20.1949L16.6849 45.1302C16.6549 45.0102 16.6049 44.8502 16.5249 44.6302C16.4449 44.4202 16.3849 44.2302 16.3249 44.0502C16.2649 43.8702 16.2049 43.6902 16.1449 43.5102L15.6049 45.1302Z" fill="black"/>
<path d="M54.9149 67.5002H34.0349V36.4502H40.7449V61.3302H54.9149V67.5002Z" fill="black"/>
<path d="M78.3348 67.5002H57.4548V36.4502H64.1648V61.3302H78.3348V67.5002Z" fill="black"/>
<path d="M118.925 67.5002H96.4248V36.4502H118.695V42.3402H103.125V48.8202H116.265V54.7102H103.125V61.6002H118.915V67.4902L118.925 67.5002Z" fill="black"/>
<path d="M145.015 67.5002H124.135V36.4502H130.845V61.3302H145.015V67.5002Z" fill="black"/>
<path d="M170.065 67.5002H147.565V36.4502H169.835V42.3402H154.265V48.8202H167.405V54.7102H154.265V61.6002H170.055V67.4902L170.065 67.5002Z" fill="black"/>
<path d="M188.045 67.95C183.395 67.95 179.545 66.45 176.505 63.45C173.465 60.45 171.935 56.61 171.935 51.93C171.935 47.25 173.455 43.46 176.505 40.48C179.545 37.5 183.395 36 188.045 36C193.235 36 197.385 37.84 200.505 41.54L195.555 45.63C193.665 43.32 191.155 42.17 188.045 42.17C185.375 42.17 183.185 43.07 181.475 44.87C179.765 46.67 178.905 49.03 178.905 51.93C178.905 54.83 179.745 57.29 181.425 59.09C183.105 60.89 185.305 61.79 188.045 61.79C189.725 61.79 191.175 61.5 192.405 60.91C193.635 60.32 194.835 59.37 196.005 58.05L200.865 62.19C197.835 66.03 193.565 67.95 188.045 67.95Z" fill="black"/>
<path d="M219.215 67.5002H212.555V42.6202H203.065V36.4502H228.715V42.6202H219.215V67.5002Z" fill="black"/>
<path d="M253.225 57.5502L259.475 67.5002H251.685L246.065 58.2302C245.615 57.4502 245.225 56.9602 244.895 56.7702C244.565 56.5802 243.995 56.4802 243.185 56.4802H238.915V67.5102H232.205V36.4502H246.245C249.605 36.4502 252.315 37.3302 254.385 39.1102C256.455 40.8802 257.495 43.2302 257.495 46.1702C257.495 48.3302 256.965 50.1702 255.895 51.7102C254.825 53.2402 253.305 54.3702 251.325 55.0902C251.805 55.4802 252.435 56.3002 253.215 57.5602L253.225 57.5502ZM238.915 42.2502V50.8402H245.125C248.725 50.8402 250.525 49.4202 250.525 46.5702C250.525 43.7202 248.725 42.2502 245.125 42.2502H238.915Z" fill="black"/>
<path d="M269.775 67.5002H263.065V36.4502H269.775V67.5002Z" fill="black"/>
<path d="M290.695 67.95C286.045 67.95 282.195 66.45 279.155 63.45C276.115 60.45 274.585 56.61 274.585 51.93C274.585 47.25 276.105 43.46 279.155 40.48C282.195 37.5 286.045 36 290.695 36C295.885 36 300.035 37.84 303.155 41.54L298.205 45.63C296.315 43.32 293.805 42.17 290.695 42.17C288.025 42.17 285.835 43.07 284.125 44.87C282.415 46.67 281.555 49.03 281.555 51.93C281.555 54.83 282.395 57.29 284.075 59.09C285.755 60.89 287.955 61.79 290.695 61.79C292.375 61.79 293.825 61.5 295.055 60.91C296.285 60.32 297.485 59.37 298.655 58.05L303.515 62.19C300.485 66.03 296.215 67.95 290.695 67.95Z" fill="black"/>
</svg>
