<svg width="304" height="140" viewBox="0 0 304 140" fill="none" xmlns="http://www.w3.org/2000/svg">
<g clip-path="url(#clip0_1588_1289)">
<path d="M106.58 103.8L103.36 91.3799H106.1L108.26 100.51C108.26 100.51 108.3 100.62 108.33 100.76C108.36 100.9 108.39 101.02 108.4 101.1C108.41 101.02 108.44 100.9 108.47 100.76C108.5 100.62 108.53 100.53 108.54 100.51L110.75 91.3799H114.33L116.51 100.51C116.58 100.85 116.62 101.04 116.64 101.1L116.78 100.51L119.01 91.3799H121.73L118.44 103.8H114.8L112.68 94.6899L112.55 94.1099C112.54 94.1699 112.52 94.2699 112.49 94.3999C112.46 94.5299 112.44 94.6299 112.43 94.6899L110.22 103.8H106.58Z" fill="black"/>
<path d="M126.29 103.8H123.61V91.3799H126.29V103.8Z" fill="black"/>
<path d="M132.01 103.8H129.38V91.3799H132.39L137.52 99.2499C137.63 99.4099 137.77 99.6399 137.93 99.9499C137.92 99.7899 137.91 99.5599 137.91 99.2499V91.3799H140.54V103.8H137.52L132.41 95.9699C132.18 95.6099 132.04 95.3799 132 95.2699C132.01 95.4399 132.02 95.6699 132.02 95.9699V103.8H132.01Z" fill="black"/>
<path d="M148.41 103.8H143.66V91.3799H148.41C150.35 91.3799 151.96 91.9399 153.24 93.0499C154.52 94.1599 155.16 95.6699 155.16 97.5799C155.16 99.4899 154.52 101 153.23 102.12C151.95 103.24 150.34 103.8 148.41 103.8ZM146.34 93.8399V101.33H148.27C149.48 101.33 150.47 101.01 151.23 100.37C151.99 99.7299 152.37 98.7999 152.37 97.5699C152.37 96.3399 151.99 95.4299 151.24 94.7999C150.48 94.1599 149.49 93.8499 148.27 93.8499H146.34V93.8399Z" fill="black"/>
<path d="M163.44 103.98C161.57 103.98 160.02 103.38 158.8 102.18C157.58 100.98 156.96 99.4502 156.96 97.5902C156.96 95.7302 157.57 94.2002 158.8 93.0002C160.02 91.8002 161.57 91.2002 163.44 91.2002C165.31 91.2002 166.84 91.8002 168.07 93.0002C169.29 94.2002 169.91 95.7302 169.91 97.5902C169.91 99.4502 169.3 100.98 168.07 102.18C166.85 103.38 165.3 103.98 163.44 103.98ZM163.44 101.51C164.52 101.51 165.4 101.15 166.09 100.43C166.77 99.7102 167.12 98.7602 167.12 97.5902C167.12 96.4202 166.78 95.4702 166.09 94.7502C165.41 94.0302 164.52 93.6702 163.44 93.6702C162.36 93.6702 161.46 94.0302 160.78 94.7502C160.1 95.4702 159.75 96.4202 159.75 97.5902C159.75 98.7602 160.09 99.7102 160.78 100.43C161.46 101.15 162.35 101.51 163.44 101.51Z" fill="black"/>
<path d="M174.13 103.8L170.91 91.3799H173.65L175.81 100.51C175.81 100.51 175.85 100.62 175.88 100.76C175.91 100.9 175.94 101.02 175.95 101.1C175.96 101.02 175.99 100.9 176.02 100.76C176.05 100.62 176.08 100.53 176.09 100.51L178.3 91.3799H181.88L184.06 100.51C184.13 100.85 184.17 101.04 184.19 101.1L184.33 100.51L186.56 91.3799H189.28L185.99 103.8H182.35L180.23 94.6899L180.1 94.1099C180.09 94.1699 180.07 94.2699 180.04 94.3999C180.01 94.5299 179.99 94.6299 179.98 94.6899L177.77 103.8H174.13Z" fill="black"/>
<path d="M195.36 103.98C194.3 103.98 193.32 103.8 192.42 103.45C191.51 103.1 190.79 102.6 190.23 101.97L191.96 100.21C192.86 101.23 194.01 101.74 195.42 101.74C196.83 101.74 197.58 101.27 197.58 100.34C197.58 99.94 197.44 99.64 197.15 99.42C196.86 99.2 196.37 99.01 195.67 98.84L194.5 98.59C193.17 98.31 192.19 97.89 191.57 97.31C190.95 96.73 190.63 95.97 190.63 95.01C190.63 93.83 191.06 92.91 191.92 92.23C192.78 91.55 193.96 91.21 195.46 91.21C197.3 91.21 198.83 91.82 200.07 93.03L198.38 94.79C197.94 94.29 197.47 93.94 196.98 93.74C196.49 93.54 195.92 93.44 195.26 93.44C194.64 93.44 194.15 93.56 193.8 93.81C193.45 94.06 193.28 94.39 193.28 94.83C193.28 95.2 193.43 95.5 193.72 95.71C194.01 95.93 194.5 96.11 195.19 96.27L196.36 96.5C197.7 96.79 198.69 97.23 199.31 97.81C199.93 98.4 200.25 99.18 200.25 100.17C200.25 101.33 199.81 102.26 198.94 102.95C198.07 103.64 196.88 103.99 195.37 103.99L195.36 103.98Z" fill="black"/>
<path d="M46.5899 67.95C41.9099 67.95 38.0399 66.45 34.9799 63.45C31.9199 60.45 30.3899 56.63 30.3899 51.98C30.3899 47.33 31.9199 43.5 34.9799 40.5C38.0399 37.5 41.9099 36 46.5899 36C51.2699 36 55.0899 37.5 58.1499 40.5C61.2099 43.5 62.7399 47.33 62.7399 51.98C62.7399 56.63 61.2099 60.46 58.1499 63.46C55.0899 66.46 51.2299 67.96 46.5899 67.96V67.95ZM46.5899 61.79C49.2899 61.79 51.4899 60.89 53.1999 59.09C54.9099 57.29 55.7699 54.92 55.7699 51.98C55.7699 49.04 54.9099 46.67 53.1999 44.87C51.4899 43.07 49.2799 42.17 46.5899 42.17C43.8999 42.17 41.6399 43.07 39.9299 44.87C38.2199 46.67 37.3599 49.04 37.3599 51.98C37.3599 54.92 38.2199 57.29 39.9299 59.09C41.6399 60.89 43.8599 61.79 46.5899 61.79Z" fill="black"/>
<path d="M81.4198 36.4502C85.1398 36.4502 88.0898 37.3902 90.2798 39.2802C92.4698 41.1702 93.5698 43.7202 93.5698 46.9302C93.5698 50.1402 92.4498 52.8702 90.2198 54.8502C87.9798 56.8302 84.9898 57.8202 81.2398 57.8202H75.2598V67.4902H68.5498V36.4502H81.4198ZM75.2498 51.8802H80.6898C82.5198 51.8802 83.9598 51.4502 85.0098 50.6002C86.0598 49.7502 86.5898 48.6002 86.5898 47.1602C86.5898 45.7202 86.0798 44.4902 85.0598 43.6502C84.0398 42.8102 82.6098 42.3902 80.7798 42.3902H75.2498V51.8802Z" fill="black"/>
<path d="M121.11 67.5002H98.6099V36.4502H120.88V42.3502H105.31V48.8302H118.45V54.7302H105.31V61.6102H121.1V67.5102L121.11 67.5002Z" fill="black"/>
<path d="M133.89 67.5002H127.32V36.4502H134.83L147.66 56.1202C147.93 56.5102 148.27 57.1002 148.7 57.8702C148.67 57.4802 148.66 56.9002 148.66 56.1202V36.4502H155.23V67.5002H147.67L134.89 47.9202C134.32 47.0202 133.97 46.4402 133.85 46.1702C133.88 46.5902 133.89 47.1802 133.89 47.9202V67.5002Z" fill="black"/>
<path d="M190.77 67.5002H183.66L181.18 60.5702H168.99L166.51 67.5002H159.45L171.46 36.4502H178.79L190.76 67.5002H190.77ZM174.57 45.1302L171.06 54.9002H179.16L175.65 45.1302C175.62 45.0102 175.57 44.8502 175.49 44.6402C175.41 44.4302 175.35 44.2302 175.29 44.0602C175.23 43.8802 175.17 43.7002 175.11 43.5202L174.57 45.1402V45.1302Z" fill="black"/>
<path d="M208.63 67.5002H195.04V36.4502H207.96C211.23 36.4502 213.79 37.1502 215.63 38.5402C217.48 39.9402 218.4 41.8802 218.4 44.3702C218.4 47.7302 216.75 50.0402 213.45 51.3002C217.56 52.2002 219.62 54.6802 219.62 58.7302C219.62 61.4902 218.65 63.6402 216.72 65.1902C214.79 66.7402 212.09 67.5102 208.64 67.5102L208.63 67.5002ZM201.75 41.9002V49.0102H207.28C208.69 49.0102 209.78 48.7002 210.54 48.0902C211.31 47.4802 211.69 46.6002 211.69 45.4602C211.69 44.3202 211.31 43.4402 210.54 42.8302C209.78 42.2202 208.69 41.9102 207.28 41.9102H201.75V41.9002ZM201.75 54.4502V62.0502H207.82C209.38 62.0502 210.57 61.7202 211.4 61.0602C212.22 60.4002 212.64 59.4602 212.64 58.2302C212.64 57.0002 212.23 56.0602 211.43 55.4202C210.62 54.7802 209.45 54.4502 207.92 54.4502H201.75Z" fill="black"/>
<path d="M246.57 67.5002H225.69V36.4502H232.4V61.3302H246.57V67.5002Z" fill="black"/>
<path d="M273.61 67.5002H251.11V36.4502H273.38V42.3502H257.81V48.8302H270.95V54.7302H257.81V61.6102H273.6V67.5102L273.61 67.5002Z" fill="black"/>
</g>
<defs>
<clipPath id="clip0_1588_1289">
<rect width="243.22" height="67.98" fill="white" transform="translate(30.3899 36)"/>
</clipPath>
</defs>
</svg>
