<svg width="304" height="140" viewBox="0 0 304 140" fill="none" xmlns="http://www.w3.org/2000/svg">
<g clip-path="url(#clip0_1586_940)">
<path d="M65.9101 103.35H63.0701L62.0801 100.58H57.2001L56.2101 103.35H53.3801L58.1901 90.9302H61.1201L65.9101 103.35ZM59.4301 94.4002L58.0301 98.3102H61.2701L59.8701 94.4002C59.8701 94.4002 59.8401 94.2902 59.8101 94.2002C59.7801 94.1102 59.7501 94.0402 59.7301 93.9702C59.7101 93.9002 59.6801 93.8302 59.6601 93.7502L59.4401 94.4002H59.4301Z" fill="black"/>
<path d="M70.37 103.35H67.74V90.9302H71.05L74.25 97.3402L77.45 90.9302H80.74V103.35H78.11V95.5202C78.11 95.2202 78.11 94.9902 78.13 94.8402C77.99 95.1502 77.87 95.3802 77.79 95.5202L75.36 100.43H73.15L70.68 95.5002L70.34 94.8302C70.35 94.9902 70.36 95.2202 70.36 95.5302V103.34L70.37 103.35Z" fill="black"/>
<path d="M92.8901 103.35H83.8901V90.9302H92.8001V93.2902H86.5701V95.8802H91.8301V98.2402H86.5701V100.99H92.8901V103.35Z" fill="black"/>
<path d="M98.13 103.35H95.5V90.9302H98.51L103.64 98.8002C103.75 98.9602 103.89 99.1902 104.05 99.5002C104.04 99.3402 104.03 99.1102 104.03 98.8002V90.9302H106.66V103.35H103.64L98.53 95.5202C98.3 95.1602 98.16 94.9302 98.12 94.8202C98.13 94.9902 98.14 95.2202 98.14 95.5202V103.35H98.13Z" fill="black"/>
<path d="M112.46 103.35H109.78V90.9302H112.46V103.35Z" fill="black"/>
<path d="M120.85 103.35H118.19V93.4002H114.39V90.9302H124.65V93.4002H120.85V103.35Z" fill="black"/>
<path d="M130.67 98.6102L126.01 90.9202H129.12L132.09 96.1602C132.19 96.3302 132.25 96.4502 132.27 96.5202C132.28 96.5002 132.3 96.4602 132.32 96.4102C132.34 96.3602 132.36 96.3202 132.38 96.2702C132.4 96.2302 132.42 96.1902 132.44 96.1502L135.39 90.9102H138.49L133.83 98.6002C133.67 98.8902 133.6 99.1502 133.6 99.3702V103.33H130.92V99.3702C130.92 99.1302 130.84 98.8702 130.67 98.6002V98.6102Z" fill="black"/>
<path d="M150.6 90.9302C152.09 90.9302 153.27 91.3102 154.15 92.0602C155.03 92.8102 155.46 93.8402 155.46 95.1202C155.46 96.4002 155.01 97.5002 154.12 98.2902C153.23 99.0802 152.03 99.4802 150.53 99.4802H148.14V103.35H145.46V90.9302H150.61H150.6ZM148.13 97.1002H150.31C151.04 97.1002 151.62 96.9302 152.04 96.5902C152.46 96.2502 152.67 95.7902 152.67 95.2102C152.67 94.6302 152.47 94.1402 152.06 93.8102C151.65 93.4802 151.08 93.3102 150.35 93.3102H148.14V97.1102L148.13 97.1002Z" fill="black"/>
<path d="M166.04 99.3702L168.54 103.35H165.43L163.18 99.6402C163 99.3302 162.84 99.1302 162.71 99.0602C162.58 98.9802 162.35 98.9402 162.03 98.9402H160.32V103.35H157.64V90.9302H163.26C164.6 90.9302 165.69 91.2802 166.52 91.9902C167.35 92.7002 167.76 93.6402 167.76 94.8202C167.76 95.6802 167.55 96.4202 167.12 97.0302C166.69 97.6402 166.08 98.0902 165.29 98.3802C165.48 98.5402 165.73 98.8702 166.05 99.3702H166.04ZM160.32 93.2502V96.6902H162.8C164.24 96.6902 164.96 96.1202 164.96 94.9802C164.96 93.8402 164.24 93.2502 162.8 93.2502H160.32Z" fill="black"/>
<path d="M176.14 103.53C174.27 103.53 172.72 102.93 171.5 101.73C170.28 100.53 169.66 99 169.66 97.14C169.66 95.28 170.27 93.75 171.5 92.55C172.72 91.35 174.27 90.75 176.14 90.75C178.01 90.75 179.54 91.35 180.77 92.55C182 93.75 182.61 95.28 182.61 97.14C182.61 99 182 100.53 180.77 101.73C179.55 102.93 178 103.53 176.14 103.53ZM176.14 101.06C177.22 101.06 178.1 100.7 178.79 99.98C179.47 99.26 179.82 98.31 179.82 97.14C179.82 95.97 179.48 95.02 178.79 94.3C178.11 93.58 177.22 93.22 176.14 93.22C175.06 93.22 174.16 93.58 173.48 94.3C172.8 95.02 172.45 95.97 172.45 97.14C172.45 98.31 172.79 99.26 173.48 99.98C174.16 100.7 175.05 101.06 176.14 101.06Z" fill="black"/>
<path d="M192.72 90.9302H195.55L190.92 103.35H187.81L183.2 90.9302H186.04L189.15 99.9102L189.37 100.61C189.37 100.61 189.43 100.45 189.48 100.29C189.53 100.13 189.57 100 189.61 99.9302L192.72 90.9302Z" fill="black"/>
<path d="M199.99 103.35H197.31V90.9302H199.99V103.35Z" fill="black"/>
<path d="M207.41 103.53C206.35 103.53 205.37 103.35 204.47 103C203.56 102.65 202.84 102.15 202.28 101.51L204.01 99.75C204.91 100.77 206.06 101.28 207.47 101.28C208.88 101.28 209.63 100.81 209.63 99.88C209.63 99.48 209.49 99.18 209.2 98.96C208.91 98.74 208.42 98.55 207.72 98.38L206.55 98.13C205.22 97.85 204.24 97.43 203.62 96.85C203 96.27 202.68 95.51 202.68 94.55C202.68 93.37 203.11 92.45 203.97 91.77C204.83 91.09 206.01 90.75 207.51 90.75C209.35 90.75 210.88 91.36 212.12 92.57L210.43 94.33C209.99 93.83 209.52 93.47 209.03 93.28C208.54 93.08 207.97 92.98 207.31 92.98C206.69 92.98 206.2 93.1 205.85 93.35C205.5 93.6 205.33 93.93 205.33 94.37C205.33 94.74 205.48 95.04 205.77 95.25C206.06 95.47 206.55 95.65 207.24 95.81L208.41 96.04C209.75 96.33 210.74 96.77 211.36 97.35C211.98 97.93 212.3 98.72 212.3 99.71C212.3 100.87 211.86 101.8 210.99 102.49C210.12 103.18 208.93 103.53 207.42 103.53H207.41Z" fill="black"/>
<path d="M217.47 103.35H214.79V90.9302H217.47V103.35Z" fill="black"/>
<path d="M226.4 103.53C224.53 103.53 222.98 102.93 221.76 101.73C220.54 100.53 219.92 99 219.92 97.14C219.92 95.28 220.53 93.75 221.76 92.55C222.98 91.35 224.53 90.75 226.4 90.75C228.27 90.75 229.8 91.35 231.03 92.55C232.26 93.75 232.87 95.28 232.87 97.14C232.87 99 232.26 100.53 231.03 101.73C229.81 102.93 228.26 103.53 226.4 103.53ZM226.4 101.06C227.48 101.06 228.36 100.7 229.05 99.98C229.73 99.26 230.08 98.31 230.08 97.14C230.08 95.97 229.74 95.02 229.05 94.3C228.37 93.58 227.48 93.22 226.4 93.22C225.32 93.22 224.42 93.58 223.74 94.3C223.06 95.02 222.71 95.97 222.71 97.14C222.71 98.31 223.05 99.26 223.74 99.98C224.42 100.7 225.31 101.06 226.4 101.06Z" fill="black"/>
<path d="M237.95 103.35H235.32V90.9302H238.33L243.46 98.8002C243.57 98.9602 243.71 99.1902 243.87 99.5002C243.86 99.3402 243.85 99.1102 243.85 98.8002V90.9302H246.48V103.35H243.46L238.35 95.5202C238.12 95.1602 237.98 94.9302 237.94 94.8202C237.95 94.9902 237.96 95.2202 237.96 95.5202V103.35H237.95Z" fill="black"/>
<path d="M35.8101 67.05H13.3101V36H35.5801V41.9H20.0201V48.38H33.1601V54.28H20.0201V61.16H35.8101V67.06V67.05Z" fill="black"/>
<path d="M47.51 67.05H39.55L50.13 51.43L39.72 36H47.73L53.9 45.58C53.99 45.7 54.0901 45.86 54.2101 46.05C54.3301 46.25 54.4101 46.37 54.4401 46.43C54.5001 46.34 54.5801 46.2 54.6901 46C54.7901 45.81 54.8801 45.66 54.9401 45.57L61.1401 36H69.1L58.66 51.39L69.1901 67.05H61.18L54.93 57.28C54.81 57.1 54.6301 56.8 54.3901 56.38C54.1501 56.8 53.97 57.1 53.85 57.28L47.5 67.05H47.51Z" fill="black"/>
<path d="M96.1501 67.05H73.6501V36H95.9201V41.9H80.3501V48.38H93.4901V54.28H80.3501V61.16H96.1401V67.06L96.1501 67.05Z" fill="black"/>
<path d="M108.93 67.05H102.36V36H110.64L118.65 52.02L126.66 36H134.9V67.05H128.33V47.47C128.33 46.72 128.34 46.15 128.37 45.76C128.01 46.54 127.72 47.11 127.51 47.47L121.44 59.76H115.9L109.73 47.43L108.87 45.76C108.9 46.15 108.91 46.74 108.91 47.52V67.05H108.93Z" fill="black"/>
<path d="M155.28 36C159 36 161.95 36.94 164.14 38.83C166.33 40.72 167.43 43.27 167.43 46.48C167.43 49.69 166.31 52.42 164.08 54.4C161.84 56.38 158.85 57.37 155.1 57.37H149.12V67.04H142.41V36H155.28ZM149.12 51.43H154.56C156.39 51.43 157.83 51 158.88 50.15C159.93 49.3 160.46 48.15 160.46 46.71C160.46 45.27 159.95 44.04 158.93 43.2C157.91 42.36 156.48 41.94 154.65 41.94H149.12V51.43Z" fill="black"/>
<path d="M193.35 67.05H172.47V36H179.18V60.88H193.35V67.05Z" fill="black"/>
<path d="M227.87 67.05H220.76L218.28 60.12H206.09L203.61 67.05H196.55L208.56 36H215.89L227.86 67.05H227.87ZM211.67 44.68L208.16 54.45H216.26L212.75 44.68C212.72 44.56 212.67 44.4 212.59 44.19C212.51 43.98 212.45 43.78 212.39 43.61C212.33 43.43 212.27 43.25 212.21 43.07L211.67 44.69V44.68Z" fill="black"/>
<path d="M253.11 57.1L259.36 67.04H251.57L245.95 57.77C245.5 56.99 245.11 56.5 244.78 56.31C244.45 56.12 243.88 56.02 243.07 56.02H238.8V67.04H232.09V36H246.13C249.49 36 252.2 36.89 254.27 38.65C256.34 40.42 257.38 42.78 257.38 45.71C257.38 47.87 256.85 49.71 255.78 51.25C254.71 52.78 253.19 53.9 251.21 54.63C251.69 55.02 252.32 55.84 253.1 57.11L253.11 57.1ZM238.8 41.8V50.4H245.01C248.61 50.4 250.41 48.98 250.41 46.13C250.41 43.28 248.61 41.81 245.01 41.81H238.8V41.8Z" fill="black"/>
<path d="M271.11 55.21L259.46 36H267.25L274.67 49.09C274.91 49.51 275.06 49.81 275.12 49.99C275.15 49.93 275.2 49.84 275.25 49.72C275.31 49.6 275.36 49.49 275.41 49.38C275.45 49.28 275.51 49.18 275.57 49.09L282.95 36H290.69L279.03 55.21C278.64 55.93 278.45 56.58 278.45 57.15V67.05H271.74V57.15C271.74 56.55 271.53 55.91 271.11 55.21Z" fill="black"/>
</g>
<defs>
<clipPath id="clip0_1586_940">
<rect width="277.38" height="67.53" fill="white" transform="translate(13.3101 36)"/>
</clipPath>
</defs>
</svg>
