<svg width="304" height="140" viewBox="0 0 304 140" fill="none" xmlns="http://www.w3.org/2000/svg">
<g clip-path="url(#clip0_1581_904)">
<path d="M90.7698 132.37C88.8998 132.37 87.3498 131.77 86.1298 130.57C84.9098 129.37 84.2898 127.84 84.2898 125.98C84.2898 124.12 84.8998 122.59 86.1298 121.39C87.3498 120.19 88.8998 119.59 90.7698 119.59C92.6398 119.59 94.1698 120.19 95.3998 121.39C96.6198 122.59 97.2398 124.12 97.2398 125.98C97.2398 127.84 96.6298 129.37 95.3998 130.57C94.1798 131.77 92.6298 132.37 90.7698 132.37ZM90.7698 129.9C91.8498 129.9 92.7298 129.54 93.4198 128.82C94.0998 128.1 94.4498 127.15 94.4498 125.98C94.4498 124.81 94.1098 123.86 93.4198 123.14C92.7398 122.42 91.8498 122.06 90.7698 122.06C89.6898 122.06 88.7898 122.42 88.1098 123.14C87.4298 123.86 87.0798 124.81 87.0798 125.98C87.0798 127.15 87.4198 128.1 88.1098 128.82C88.7898 129.54 89.6798 129.9 90.7698 129.9Z" fill="black"/>
<path d="M104.91 132.35C103.21 132.34 101.88 131.87 100.93 130.94C99.98 130.01 99.51 128.71 99.51 127.04V119.77H102.19V126.77C102.19 127.75 102.43 128.52 102.9 129.06C103.37 129.6 104.05 129.88 104.92 129.89C105.8 129.87 106.46 129.59 106.93 129.07C107.39 128.55 107.62 127.8 107.62 126.81V119.77H110.3V127.01C110.3 128.69 109.83 130 108.88 130.93C107.93 131.87 106.61 132.34 104.9 132.35H104.91Z" fill="black"/>
<path d="M118.67 132.19H116.01V122.24H112.21V119.77H122.47V122.24H118.67V132.19Z" fill="black"/>
<path d="M128.93 132.37C127.87 132.37 126.89 132.19 125.99 131.84C125.08 131.49 124.35 130.99 123.8 130.36L125.53 128.6C126.43 129.62 127.58 130.13 128.99 130.13C130.4 130.13 131.15 129.66 131.15 128.73C131.15 128.33 131.01 128.03 130.72 127.81C130.43 127.59 129.94 127.4 129.24 127.23L128.07 126.98C126.74 126.7 125.76 126.28 125.14 125.7C124.52 125.12 124.2 124.36 124.2 123.4C124.2 122.22 124.63 121.3 125.49 120.62C126.35 119.94 127.53 119.6 129.03 119.6C130.87 119.6 132.4 120.21 133.64 121.42L131.95 123.18C131.51 122.68 131.04 122.33 130.55 122.13C130.06 121.93 129.49 121.83 128.83 121.83C128.21 121.83 127.72 121.95 127.37 122.2C127.02 122.45 126.85 122.78 126.85 123.22C126.85 123.59 127 123.89 127.29 124.1C127.58 124.32 128.07 124.5 128.76 124.66L129.93 124.89C131.27 125.18 132.26 125.62 132.88 126.2C133.5 126.79 133.82 127.57 133.82 128.56C133.82 129.72 133.38 130.65 132.52 131.34C131.65 132.03 130.46 132.38 128.95 132.38L128.93 132.37Z" fill="black"/>
<path d="M141.85 132.19H139.19V122.24H135.39V119.77H145.65V122.24H141.85V132.19Z" fill="black"/>
<path d="M157.67 132.19H154.83L153.84 129.42H148.96L147.97 132.19H145.14L149.95 119.77H152.88L157.67 132.19ZM151.19 123.24L149.79 127.15H153.03L151.63 123.24C151.63 123.24 151.6 123.13 151.57 123.04C151.54 122.96 151.51 122.88 151.49 122.81C151.47 122.74 151.44 122.67 151.42 122.59L151.2 123.24H151.19Z" fill="black"/>
<path d="M162.14 132.19H159.51V119.77H162.52L167.65 127.64C167.76 127.8 167.9 128.03 168.06 128.34C168.05 128.18 168.04 127.95 168.04 127.64V119.77H170.67V132.19H167.65L162.54 124.36C162.31 124 162.17 123.77 162.13 123.66C162.14 123.83 162.15 124.06 162.15 124.36V132.19H162.14Z" fill="black"/>
<path d="M178.53 132.19H173.78V119.77H178.53C180.47 119.77 182.09 120.33 183.36 121.44C184.64 122.55 185.28 124.06 185.28 125.97C185.28 127.88 184.64 129.39 183.35 130.51C182.07 131.63 180.46 132.19 178.53 132.19ZM176.46 122.24V129.73H178.39C179.6 129.73 180.59 129.41 181.35 128.77C182.11 128.13 182.49 127.2 182.49 125.97C182.49 124.74 182.11 123.83 181.36 123.2C180.6 122.56 179.61 122.25 178.39 122.25H176.46V122.24Z" fill="black"/>
<path d="M190.41 132.19H187.73V119.77H190.41V132.19Z" fill="black"/>
<path d="M196.16 132.19H193.53V119.77H196.54L201.67 127.64C201.78 127.8 201.92 128.03 202.08 128.34C202.07 128.18 202.06 127.95 202.06 127.64V119.77H204.69V132.19H201.67L196.56 124.36C196.33 124 196.19 123.77 196.15 123.66C196.16 123.83 196.17 124.06 196.17 124.36V132.19H196.16Z" fill="black"/>
<path d="M213.45 127.49V125.26H219.32V132.19H217.18V130.8C216.44 131.84 215.16 132.37 213.35 132.37C211.54 132.37 210.09 131.79 208.92 130.63C207.76 129.47 207.17 127.95 207.17 126.07C207.17 124.19 207.78 122.59 209.02 121.39C210.25 120.19 211.82 119.59 213.73 119.59C216.05 119.59 217.83 120.33 219.09 121.8L217.11 123.44C216.35 122.52 215.23 122.05 213.73 122.05C212.61 122.05 211.71 122.41 211.01 123.14C210.31 123.87 209.97 124.84 209.97 126.06C209.97 127.34 210.31 128.33 211.01 129.03C211.7 129.73 212.61 130.07 213.75 130.07C214.7 130.07 215.47 129.87 216.05 129.48C216.63 129.09 216.93 128.53 216.93 127.81V127.49H213.46H213.45Z" fill="black"/>
<path d="M105.29 19.6002H102.63V9.65018H98.8298V7.18018H109.09V9.65018H105.29V19.6002Z" fill="black"/>
<path d="M121.11 19.6002H118.27L117.28 16.8302H112.4L111.41 19.6002H108.58L113.39 7.18018H116.32L121.11 19.6002ZM114.63 10.6502L113.23 14.5602H116.47L115.07 10.6502C115.07 10.6502 115.04 10.5402 115.01 10.4502C114.98 10.3702 114.95 10.2902 114.93 10.2202C114.91 10.1502 114.88 10.0802 114.86 10.0002L114.64 10.6502H114.63Z" fill="black"/>
<path d="M131.36 15.6202L133.86 19.6002H130.75L128.5 15.8902C128.32 15.5802 128.16 15.3802 128.03 15.3102C127.9 15.2302 127.67 15.1902 127.35 15.1902H125.64V19.6002H122.96V7.18018H128.58C129.92 7.18018 131.01 7.53018 131.84 8.24018C132.67 8.95018 133.08 9.89018 133.08 11.0702C133.08 11.9302 132.87 12.6702 132.44 13.2802C132.01 13.8902 131.41 14.3402 130.61 14.6302C130.8 14.7902 131.05 15.1202 131.37 15.6202H131.36ZM125.63 9.50018V12.9402H128.11C129.55 12.9402 130.27 12.3702 130.27 11.2302C130.27 10.0902 129.55 9.50018 128.11 9.50018H125.63Z" fill="black"/>
<path d="M141.33 14.9V12.67H147.2V19.6H145.06V18.21C144.32 19.25 143.04 19.78 141.23 19.78C139.42 19.78 137.97 19.2 136.8 18.04C135.64 16.88 135.05 15.36 135.05 13.48C135.05 11.6 135.66 10 136.9 8.8C138.13 7.6 139.7 7 141.61 7C143.93 7 145.71 7.74 146.97 9.21L144.99 10.85C144.23 9.93 143.11 9.46 141.61 9.46C140.49 9.46 139.59 9.82 138.89 10.55C138.19 11.28 137.85 12.25 137.85 13.47C137.85 14.75 138.19 15.74 138.89 16.44C139.58 17.14 140.49 17.48 141.63 17.48C142.58 17.48 143.35 17.28 143.93 16.89C144.51 16.5 144.81 15.94 144.81 15.22V14.9H141.34H141.33Z" fill="black"/>
<path d="M159.11 19.6002H150.11V7.18018H159.02V9.54018H152.79V12.1302H158.05V14.4902H152.79V17.2402H159.11V19.6002Z" fill="black"/>
<path d="M167.18 19.6002H164.52V9.65018H160.72V7.18018H170.98V9.65018H167.18V19.6002Z" fill="black"/>
<path d="M175.6 19.6002H172.92V7.18018H175.6V19.6002Z" fill="black"/>
<path d="M181.32 19.6002H178.69V7.18018H181.7L186.83 15.0502C186.94 15.2102 187.08 15.4402 187.24 15.7502C187.23 15.5902 187.22 15.3602 187.22 15.0502V7.18018H189.85V19.6002H186.83L181.72 11.7702C181.49 11.4102 181.35 11.1802 181.31 11.0702C181.32 11.2402 181.33 11.4702 181.33 11.7702V19.6002H181.32Z" fill="black"/>
<path d="M198.62 14.9V12.67H204.49V19.6H202.35V18.21C201.61 19.25 200.33 19.78 198.52 19.78C196.71 19.78 195.26 19.2 194.09 18.04C192.93 16.88 192.34 15.36 192.34 13.48C192.34 11.6 192.95 10 194.19 8.8C195.42 7.6 196.99 7 198.9 7C201.22 7 203 7.74 204.26 9.21L202.28 10.85C201.52 9.93 200.4 9.46 198.9 9.46C197.78 9.46 196.88 9.82 196.18 10.55C195.48 11.28 195.14 12.25 195.14 13.47C195.14 14.75 195.48 15.74 196.18 16.44C196.87 17.14 197.78 17.48 198.92 17.48C199.87 17.48 200.64 17.28 201.22 16.89C201.8 16.5 202.1 15.94 202.1 15.22V14.9H198.63H198.62Z" fill="black"/>
<path d="M225.68 92.8301V56.9901L234.89 72.4601C235.6 73.6401 236.32 74.9301 238.02 74.9301C239.72 74.9301 240.46 73.6501 241.15 72.4601L250.35 56.9901V92.8301C250.35 94.8701 251.14 95.7201 253.18 95.7201C255.22 95.7201 256.1 94.8701 256.1 92.8301V46.2101C256.1 44.2101 255.22 43.3101 253.18 43.3101C251.14 43.3101 250.97 44.2501 249.81 46.2101L238.03 66.4201L226.25 46.2101C225.06 44.2501 224.84 43.3101 222.86 43.3101C220.88 43.3101 219.93 44.2001 219.93 46.2101V92.8301C219.93 94.8701 220.82 95.7201 222.86 95.7201C224.9 95.7201 225.69 94.8701 225.69 92.8301M76.6999 70.9801C75.8599 70.0401 74.2199 68.8601 73.9499 68.7101C74.1999 68.4601 74.4599 68.1801 74.7099 67.9201C78.5299 63.6601 78.0299 57.3701 78.0299 57.3701C78.0299 48.9701 72.5599 43.3201 64.4099 43.3201H50.7499C49.1799 43.3201 47.8999 44.6101 47.8999 46.1801V92.7101C47.8999 94.2901 49.1799 95.5601 50.7499 95.5601H66.4199C74.5399 95.5601 80.0299 89.9401 80.0299 81.5201C80.0299 81.5201 80.5899 75.2901 76.6999 70.9701M70.3399 64.1901C68.9599 65.7701 67.2199 66.5801 64.9099 66.5801H53.6299V49.0601H64.4199C69.4199 49.0601 72.2999 52.1001 72.2999 57.3601C72.2999 57.3601 72.7199 61.4801 70.3399 64.1801M74.2999 81.5301C74.2999 86.8001 71.4299 89.8401 66.4299 89.8401H53.6299V72.3301H66.9299C69.2099 72.3301 70.9799 73.0701 72.3399 74.7101C74.2999 77.0101 74.2999 81.5301 74.2999 81.5301ZM87.6999 95.8501C89.7299 95.8501 90.5299 94.9901 90.5299 92.9401V72.3401H98.2199L110.23 94.2101C111.2 95.9901 112.4 96.3501 114.15 95.3301C115.96 94.3401 116.24 93.2401 115.26 91.4301L104.61 72.1201C107.38 71.5701 109.76 70.1501 111.63 68.0101C115.48 63.5301 114.93 57.4501 114.93 57.4501C114.93 49.0501 109.47 43.4201 101.35 43.4201C101.35 43.4201 87.2999 43.4501 87.1299 43.4801C85.4999 43.6201 84.8099 44.5001 84.8099 46.3501V92.9401C84.8099 94.9901 85.6599 95.8501 87.7099 95.8501M90.5399 49.1701H101.35C106.34 49.1701 109.22 52.1901 109.22 57.4501C109.22 57.4501 109.8 61.2301 107.28 64.3001C105.93 65.9201 104.12 66.5701 101.84 66.5701H90.5399V49.1601V49.1701ZM120.02 46.2101V92.8301C120.02 94.8701 120.88 95.7201 122.9 95.7201H143.05C144.76 95.7201 145.78 94.6901 145.78 92.8301C145.78 90.9701 144.75 89.9801 143.05 89.9801H125.77V72.3201H137.99C139.74 72.3201 140.7 71.4001 140.7 69.4701C140.7 67.5401 139.75 66.5701 137.99 66.5701H125.77V49.0501H143.05C144.76 49.0501 145.78 48.1101 145.78 46.2101C145.78 44.3101 144.75 43.3101 143.05 43.3101H122.9C120.89 43.3101 120.02 44.2001 120.02 46.2101ZM150.44 46.2101V92.8301C150.44 94.8701 151.31 95.7201 153.36 95.7201H173.46C175.19 95.7201 176.21 94.6901 176.21 92.8301C176.21 90.9701 175.19 89.9801 173.46 89.9801H156.17V72.3201H168.43C170.18 72.3201 171.13 71.4001 171.13 69.4701C171.13 67.5401 170.19 66.5701 168.43 66.5701H156.17V49.0501H173.46C175.19 49.0501 176.21 48.1101 176.21 46.2101C176.21 44.3101 175.19 43.3101 173.46 43.3101H153.36C151.31 43.3101 150.44 44.2001 150.44 46.2101ZM179.81 92.0301C179.48 93.0601 179.1 94.7801 181.64 95.5801C183.87 96.3201 184.97 94.8701 185.3 93.9201L188.59 83.5401H206.82L210.12 93.9201C210.42 94.8701 211.47 96.4801 213.93 95.6701C216.23 94.9101 215.93 92.9701 215.68 92.1201L200.87 46.0701C200.22 44.1101 199.59 43.3201 197.72 43.3201C195.85 43.3201 195.18 44.1101 194.57 46.0701L179.82 92.0401L179.81 92.0301ZM190.64 77.8001L197.71 56.2101L204.79 77.8001H190.64Z" fill="black"/>
</g>
<defs>
<clipPath id="clip0_1581_904">
<rect width="208.2" height="125.37" fill="white" transform="translate(47.8999 7)"/>
</clipPath>
</defs>
</svg>
