<svg width="304" height="140" viewBox="0 0 304 140" fill="none" xmlns="http://www.w3.org/2000/svg">
<g clip-path="url(#clip0_1632_484)">
<g clip-path="url(#clip1_1632_484)">
<path d="M96.75 133.92H87.75V121.5H96.66V123.86H90.43V126.45H95.69V128.81H90.43V131.56H96.75V133.92Z" fill="black"/>
<path d="M104.51 121.5C106 121.5 107.18 121.88 108.06 122.63C108.94 123.39 109.37 124.41 109.37 125.69C109.37 126.97 108.92 128.07 108.03 128.86C107.14 129.65 105.94 130.05 104.44 130.05H102.05V133.92H99.3701V121.5H104.52H104.51ZM102.04 127.67H104.22C104.95 127.67 105.53 127.5 105.95 127.16C106.37 126.82 106.58 126.36 106.58 125.78C106.58 125.2 106.38 124.71 105.97 124.38C105.56 124.04 104.99 123.88 104.26 123.88H102.05V127.68L102.04 127.67Z" fill="black"/>
<path d="M117.52 134.1C115.66 134.1 114.12 133.5 112.9 132.3C111.68 131.1 111.07 129.56 111.07 127.69C111.07 125.82 111.68 124.3 112.9 123.11C114.12 121.92 115.66 121.32 117.52 121.32C119.6 121.32 121.26 122.06 122.51 123.53L120.53 125.17C119.77 124.25 118.77 123.78 117.52 123.78C116.45 123.78 115.58 124.14 114.89 124.86C114.21 125.58 113.86 126.52 113.86 127.69C113.86 128.86 114.2 129.83 114.87 130.55C115.54 131.27 116.42 131.63 117.52 131.63C118.19 131.63 118.77 131.51 119.27 131.28C119.76 131.05 120.24 130.66 120.71 130.14L122.65 131.8C121.44 133.34 119.73 134.1 117.52 134.1Z" fill="black"/>
<path d="M141.21 133.92H138.37L137.38 131.15H132.5L131.51 133.92H128.68L133.49 121.5H136.42L141.21 133.92ZM134.73 124.97L133.33 128.88H136.57L135.17 124.97C135.17 124.97 135.14 124.86 135.11 124.77C135.08 124.69 135.05 124.61 135.03 124.54C135.01 124.47 134.98 124.4 134.96 124.32L134.74 124.97H134.73Z" fill="black"/>
<path d="M156.6 129.94L159.1 133.92H155.99L153.74 130.21C153.56 129.9 153.4 129.7 153.27 129.63C153.14 129.55 152.91 129.51 152.59 129.51H150.88V133.92H148.2V121.5H153.82C155.16 121.5 156.25 121.85 157.08 122.56C157.91 123.27 158.32 124.21 158.32 125.39C158.32 126.25 158.11 126.99 157.68 127.6C157.25 128.21 156.65 128.66 155.85 128.95C156.04 129.11 156.29 129.44 156.61 129.94H156.6ZM150.88 123.82V127.26H153.36C154.8 127.26 155.52 126.69 155.52 125.55C155.52 124.41 154.8 123.82 153.36 123.82H150.88Z" fill="black"/>
<path d="M172.96 133.92H170.12L169.13 131.15H164.25L163.26 133.92H160.43L165.24 121.5H168.17L172.96 133.92ZM166.48 124.97L165.08 128.88H168.32L166.92 124.97C166.92 124.97 166.89 124.86 166.86 124.77C166.83 124.69 166.8 124.61 166.78 124.54C166.76 124.47 166.73 124.4 166.71 124.32L166.49 124.97H166.48Z" fill="black"/>
<path d="M178.92 133.92H176.26V123.97H172.46V121.5H182.72V123.97H178.92V133.92Z" fill="black"/>
<path d="M187.34 133.92H184.66V121.5H187.34V133.92Z" fill="black"/>
<path d="M193.08 133.92H190.45V121.5H193.46L198.59 129.37C198.7 129.53 198.84 129.76 199 130.07C198.99 129.91 198.98 129.68 198.98 129.37V121.5H201.61V133.92H198.59L193.48 126.09C193.25 125.73 193.11 125.5 193.07 125.39C193.08 125.56 193.09 125.79 193.09 126.09V133.92H193.08Z" fill="black"/>
<path d="M210.38 129.22V126.99H216.25V133.92H214.11V132.53C213.37 133.57 212.09 134.1 210.28 134.1C208.47 134.1 207.02 133.52 205.85 132.36C204.69 131.2 204.1 129.68 204.1 127.8C204.1 125.92 204.71 124.32 205.95 123.12C207.18 121.92 208.75 121.32 210.66 121.32C212.98 121.32 214.76 122.06 216.02 123.53L214.04 125.17C213.28 124.25 212.16 123.78 210.66 123.78C209.54 123.78 208.64 124.14 207.94 124.87C207.24 125.6 206.9 126.57 206.9 127.79C206.9 129.07 207.24 130.06 207.94 130.76C208.63 131.46 209.54 131.8 210.68 131.8C211.63 131.8 212.4 131.6 212.98 131.21C213.57 130.81 213.86 130.26 213.86 129.54V129.22H210.39H210.38Z" fill="black"/>
<path d="M155.27 6.08984H104.24V31.2998V42.9398V92.7098H199.51V79.7898H192.14V67.5098H184.77V55.2298H177.39V42.9498H172.06V30.6798H162.64V18.3798H155.26V6.09984L155.27 6.08984ZM104.88 80.4298H198.86V92.0698H104.88V80.4298ZM104.88 68.1498H191.49V79.7898H104.88V68.1498ZM104.88 55.8598H184.12V67.4998H104.88V55.8598ZM104.88 43.5798H176.74V55.2198H104.88V43.5798ZM104.88 31.3098H171.42V42.9398H104.88V31.3098ZM104.88 19.0098H162V30.6498H104.88V19.0098ZM150.21 15.9898H148.66L148.05 14.3898H145.24L144.66 15.9898H143.15L145.89 8.95984H147.39L150.21 15.9898ZM145.68 13.2098H147.6L146.63 10.5998L145.68 13.2098ZM155.3 21.3098C155.03 21.2598 154.61 21.2398 154.06 21.2398H151.25V28.2698H153.64C154.54 28.2698 155.12 28.2498 155.35 28.2198C155.73 28.1798 156.04 28.0698 156.3 27.8898C156.56 27.7098 156.76 27.4698 156.91 27.1698C157.06 26.8698 157.13 26.5598 157.13 26.2398C157.13 25.8298 157.02 25.4798 156.78 25.1798C156.55 24.8798 156.22 24.6698 155.79 24.5398C156.09 24.3998 156.33 24.1998 156.51 23.9198C156.69 23.6498 156.78 23.3398 156.78 23.0098C156.78 22.7098 156.71 22.4298 156.57 22.1898C156.43 21.9498 156.25 21.7498 156.03 21.5998C155.81 21.4498 155.57 21.3598 155.29 21.3098M152.67 25.2098H153.82C154.47 25.2098 154.89 25.2398 155.08 25.3098C155.27 25.3798 155.42 25.4798 155.52 25.6298C155.62 25.7798 155.67 25.9598 155.67 26.1698C155.67 26.4198 155.6 26.6198 155.47 26.7698C155.34 26.9198 155.17 27.0098 154.95 27.0498C154.81 27.0798 154.49 27.0898 153.98 27.0898H152.66V25.2098H152.67ZM155.23 22.6798C155.35 22.8198 155.41 22.9898 155.41 23.2098C155.41 23.4298 155.34 23.6198 155.2 23.7598C155.06 23.8998 154.87 23.9798 154.63 24.0098C154.49 24.0298 154.15 24.0298 153.6 24.0298H152.67V22.4098H153.49C154.16 22.4098 154.56 22.4098 154.7 22.4298C154.94 22.4598 155.12 22.5398 155.24 22.6798M160.31 38.8998C159.99 38.5198 159.83 37.8898 159.83 36.9998C159.83 36.1598 159.99 35.5598 160.31 35.1798C160.64 34.8098 161.06 34.6198 161.58 34.6198C161.96 34.6198 162.28 34.7298 162.54 34.9398C162.8 35.1498 162.98 35.4398 163.06 35.7998L164.46 35.4698C164.3 34.8998 164.06 34.4798 163.74 34.1798C163.2 33.6698 162.5 33.4098 161.64 33.4098C160.66 33.4098 159.86 33.7398 159.25 34.3798C158.64 35.0298 158.34 35.9398 158.34 37.1098C158.34 38.2098 158.64 39.0898 159.25 39.7298C159.85 40.3698 160.61 40.6898 161.55 40.6898C162.3 40.6898 162.93 40.5098 163.42 40.1398C163.91 39.7598 164.26 39.1998 164.47 38.4198L163.09 37.9898C162.98 38.5098 162.78 38.8798 162.5 39.1298C162.23 39.3598 161.91 39.4898 161.52 39.4898C161.01 39.4898 160.6 39.2998 160.28 38.9198M171.67 50.8898C171.81 50.4698 171.89 49.9698 171.89 49.3898C171.89 48.7298 171.81 48.1798 171.66 47.7298C171.51 47.2798 171.28 46.8998 170.99 46.5898C170.69 46.2798 170.34 46.0598 169.93 45.9398C169.62 45.8498 169.18 45.7998 168.59 45.7998H165.99V52.8398H168.66C169.18 52.8398 169.6 52.7898 169.92 52.6898C170.34 52.5598 170.67 52.3698 170.92 52.1298C171.25 51.8198 171.5 51.3998 171.67 50.8898ZM170.41 49.3298C170.41 49.8698 170.36 50.2998 170.27 50.6198C170.17 50.9298 170.05 51.1598 169.9 51.2998C169.75 51.4398 169.56 51.5298 169.33 51.5898C169.15 51.6298 168.87 51.6598 168.47 51.6598H167.41V46.9998H168.05C168.63 46.9998 169.02 47.0198 169.22 47.0698C169.49 47.1298 169.7 47.2398 169.88 47.3998C170.05 47.5598 170.19 47.7898 170.28 48.0798C170.38 48.3698 170.42 48.7898 170.42 49.3298M178.58 58.0898H173.36V65.1198H178.71V63.9298H174.78V62.0198H178.31V60.8398H174.78V59.2798H178.58V58.0898ZM185.57 70.3698H180.74V77.3998H182.16V74.4099H185.1V73.2198H182.16V71.5598H185.56V70.3698H185.57ZM193.4 83.0898C192.91 82.7198 192.23 82.5398 191.35 82.5398C190.68 82.5398 190.12 82.6598 189.67 82.8898C189.08 83.1898 188.63 83.6298 188.32 84.1998C188.01 84.7698 187.86 85.4198 187.86 86.1498C187.86 86.8198 188 87.4498 188.27 88.0198C188.54 88.5898 188.96 89.0398 189.5 89.3398C190.05 89.6498 190.69 89.7999 191.42 89.7999C192 89.7999 192.57 89.6898 193.14 89.4698C193.71 89.2498 194.14 88.9998 194.43 88.7098V85.9099H191.37V87.0998H193V87.9898C192.78 88.1598 192.53 88.2999 192.23 88.4099C191.93 88.5299 191.63 88.5798 191.33 88.5798C190.73 88.5798 190.24 88.3698 189.87 87.9498C189.5 87.5298 189.31 86.9098 189.31 86.0698C189.31 85.2998 189.49 84.7098 189.86 84.3198C190.23 83.9298 190.72 83.7298 191.34 83.7298C191.75 83.7298 192.09 83.8298 192.37 84.0298C192.64 84.2298 192.83 84.4998 192.93 84.8498L194.34 84.5898C194.2 83.9398 193.88 83.4398 193.39 83.0698" fill="black"/>
</g>
</g>
<defs>
<clipPath id="clip0_1632_484">
<rect width="304" height="140" fill="white"/>
</clipPath>
<clipPath id="clip1_1632_484">
<rect width="128.5" height="140.1" fill="white" transform="translate(87.75 -6)"/>
</clipPath>
</defs>
</svg>
