<svg width="304" height="140" viewBox="0 0 304 140" fill="none" xmlns="http://www.w3.org/2000/svg">
<path d="M284.915 73.4799L274.555 56.3999H281.475L288.075 68.0399C288.289 68.4132 288.422 68.6799 288.475 68.8399C288.502 68.7866 288.542 68.7066 288.595 68.5999C288.649 68.4932 288.689 68.3999 288.715 68.3199C288.769 68.2132 288.822 68.1199 288.875 68.0399L295.435 56.3999H302.315L291.955 73.4799C291.609 74.1199 291.435 74.6932 291.435 75.1999V83.9999H285.475V75.1999C285.475 74.6666 285.289 74.0932 284.915 73.4799Z" fill="black"/>
<path d="M264.71 83.9999H258.79V61.8799H250.35V56.3999H273.15V61.8799H264.71V83.9999Z" fill="black"/>
<path d="M246.71 83.9999H240.75V56.3999H246.71V83.9999Z" fill="black"/>
<path d="M231.763 56.3999H238.043L227.763 83.9999H220.843L210.603 56.3999H216.923L223.843 76.3599L224.323 77.9199C224.376 77.8132 224.456 77.5732 224.563 77.1999C224.669 76.8266 224.763 76.5599 224.843 76.3999L231.763 56.3999Z" fill="black"/>
<path d="M207.843 83.9999H201.883V56.3999H207.843V83.9999Z" fill="black"/>
<path d="M189.827 83.9999H183.907V61.8799H175.467V56.3999H198.267V61.8799H189.827V83.9999Z" fill="black"/>
<path d="M162.537 84.4C158.404 84.4 154.977 83.0667 152.257 80.4C149.564 77.7333 148.217 74.32 148.217 70.16C148.217 66.0267 149.564 62.64 152.257 60C154.977 57.3333 158.404 56 162.537 56C167.151 56 170.844 57.64 173.617 60.92L169.217 64.56C167.537 62.5067 165.311 61.48 162.537 61.48C160.164 61.48 158.217 62.28 156.697 63.88C155.177 65.48 154.417 67.5733 154.417 70.16C154.417 72.8 155.164 74.92 156.657 76.52C158.151 78.12 160.111 78.92 162.537 78.92C164.031 78.92 165.324 78.6667 166.417 78.16C167.511 77.6267 168.577 76.7733 169.617 75.6L173.937 79.28C171.244 82.6933 167.444 84.4 162.537 84.4Z" fill="black"/>
<path d="M145.438 83.9999H125.438V56.3999H145.238V61.6399H131.398V67.3999H143.077V72.6399H131.398V78.7599H145.438V83.9999Z" fill="black"/>
<path d="M100.809 83.9999H94.9688V56.3999H101.649L113.049 73.8799C113.289 74.2266 113.595 74.7466 113.969 75.4399C113.942 75.0932 113.929 74.5732 113.929 73.8799V56.3999H119.769V83.9999H113.049L101.689 66.5999C101.182 65.7999 100.875 65.2799 100.769 65.0399C100.795 65.4132 100.809 65.9332 100.809 66.5999V83.9999Z" fill="black"/>
<path d="M70.34 83.9999H64.5V56.3999H71.18L82.58 73.8799C82.82 74.2266 83.1267 74.7466 83.5 75.4399C83.4733 75.0932 83.46 74.5732 83.46 73.8799V56.3999H89.3V83.9999H82.58L71.22 66.5999C70.7133 65.7999 70.4067 65.2799 70.3 65.0399C70.3267 65.4132 70.34 65.9332 70.34 66.5999V83.9999Z" fill="black"/>
<path d="M45.8595 84.4C41.6995 84.4 38.2595 83.0667 35.5395 80.4C32.8195 77.7333 31.4595 74.3333 31.4595 70.2C31.4595 66.0667 32.8195 62.6667 35.5395 60C38.2595 57.3333 41.6995 56 45.8595 56C49.9928 56 53.4195 57.3333 56.1395 60C58.8595 62.6667 60.2195 66.0667 60.2195 70.2C60.2195 74.3333 58.8595 77.7333 56.1395 80.4C53.4195 83.0667 49.9928 84.4 45.8595 84.4ZM45.8595 78.92C48.2595 78.92 50.2195 78.12 51.7395 76.52C53.2595 74.92 54.0195 72.8133 54.0195 70.2C54.0195 67.5867 53.2595 65.48 51.7395 63.88C50.2195 62.28 48.2595 61.48 45.8595 61.48C43.4328 61.48 41.4595 62.28 39.9395 63.88C38.4195 65.48 37.6595 67.5867 37.6595 70.2C37.6595 72.8133 38.4195 74.92 39.9395 76.52C41.4595 78.12 43.4328 78.92 45.8595 78.92Z" fill="black"/>
<path d="M18.2404 84.4C14.1071 84.4 10.6804 83.0667 7.96041 80.4C5.26708 77.7333 3.92041 74.32 3.92041 70.16C3.92041 66.0267 5.26708 62.64 7.96041 60C10.6804 57.3333 14.1071 56 18.2404 56C22.8537 56 26.5471 57.64 29.3204 60.92L24.9204 64.56C23.2404 62.5067 21.0137 61.48 18.2404 61.48C15.8671 61.48 13.9204 62.28 12.4004 63.88C10.8804 65.48 10.1204 67.5733 10.1204 70.16C10.1204 72.8 10.8671 74.92 12.3604 76.52C13.8537 78.12 15.8137 78.92 18.2404 78.92C19.7337 78.92 21.0271 78.6667 22.1204 78.16C23.2137 77.6267 24.2804 76.7733 25.3204 75.6L29.6404 79.28C26.9471 82.6933 23.1471 84.4 18.2404 84.4Z" fill="black"/>
<path d="M200.24 32.029L195.837 24.77H198.778L201.583 29.717C201.674 29.8757 201.73 29.989 201.753 30.057C201.764 30.0344 201.781 30.0004 201.804 29.955C201.827 29.9097 201.844 29.87 201.855 29.836C201.878 29.7907 201.9 29.751 201.923 29.717L204.711 24.77H207.635L203.232 32.029C203.085 32.301 203.011 32.5447 203.011 32.76V36.5H200.478V32.76C200.478 32.5334 200.399 32.2897 200.24 32.029Z" fill="black"/>
<path d="M192.809 32.743L195.172 36.5H192.231L190.106 32.998C189.936 32.7034 189.788 32.522 189.664 32.454C189.539 32.3747 189.324 32.335 189.018 32.335H187.403V36.5H184.87V24.77H190.174C191.443 24.77 192.469 25.1044 193.251 25.773C194.033 26.4417 194.424 27.3314 194.424 28.442C194.424 29.258 194.22 29.955 193.812 30.533C193.415 31.111 192.843 31.536 192.095 31.808C192.276 31.9554 192.514 32.267 192.809 32.743ZM187.403 26.963V30.21H189.749C191.109 30.21 191.789 29.6717 191.789 28.595C191.789 27.507 191.109 26.963 189.749 26.963H187.403Z" fill="black"/>
<path d="M182.694 36.5H180.008L179.073 33.882H174.466L173.531 36.5H170.862L175.401 24.77H178.172L182.694 36.5ZM176.574 28.051L175.248 31.74H178.308L176.982 28.051C176.971 28.0057 176.948 27.9434 176.914 27.864C176.892 27.7847 176.869 27.711 176.846 27.643C176.824 27.575 176.801 27.507 176.778 27.439L176.574 28.051Z" fill="black"/>
<path d="M169.011 36.5H161.123V24.77H163.656V34.171H169.011V36.5Z" fill="black"/>
<path d="M153.912 24.77C155.317 24.77 156.434 25.127 157.261 25.841C158.088 26.555 158.502 27.5184 158.502 28.731C158.502 29.9777 158.077 30.975 157.227 31.723C156.388 32.471 155.261 32.845 153.844 32.845H151.583V36.5H149.05V24.77H153.912ZM151.583 30.601H153.64C154.331 30.601 154.875 30.4424 155.272 30.125C155.669 29.7964 155.867 29.36 155.867 28.816C155.867 28.2494 155.674 27.8074 155.289 27.49C154.904 27.1727 154.365 27.014 153.674 27.014H151.583V30.601Z" fill="black"/>
<path d="M135.973 36.5H133.491V24.77H136.619L139.645 30.822L142.671 24.77H145.782V36.5H143.3V29.105C143.3 28.8217 143.306 28.6064 143.317 28.459C143.181 28.7537 143.074 28.969 142.994 29.105L140.699 33.746H138.608L136.279 29.088L135.956 28.459C135.968 28.6064 135.973 28.8274 135.973 29.122V36.5Z" fill="black"/>
<path d="M130.798 36.5H122.298V24.77H130.713V26.997H124.831V29.445H129.795V31.672H124.831V34.273H130.798V36.5Z" fill="black"/>
<path d="M111.752 36.5H108.743L112.738 30.601L108.811 24.77H111.837L114.166 28.391C114.2 28.4364 114.24 28.4987 114.285 28.578C114.33 28.646 114.359 28.6914 114.37 28.714C114.393 28.68 114.421 28.629 114.455 28.561C114.5 28.4817 114.534 28.425 114.557 28.391L116.903 24.77H119.912L115.968 30.584L119.946 36.5H116.92L114.557 32.811C114.512 32.743 114.444 32.6297 114.353 32.471C114.262 32.6297 114.194 32.743 114.149 32.811L111.752 36.5Z" fill="black"/>
<path d="M106.985 36.5H98.4851V24.77H106.9V26.997H101.018V29.445H105.982V31.672H101.018V34.273H106.985V36.5Z" fill="black"/>
<path d="M210.166 116.17C209.169 116.17 208.24 116.006 207.378 115.677C206.528 115.337 205.843 114.867 205.321 114.266L206.953 112.6C207.803 113.563 208.891 114.045 210.217 114.045C211.577 114.045 212.257 113.603 212.257 112.719C212.257 112.345 212.121 112.056 211.849 111.852C211.577 111.648 211.113 111.467 210.455 111.308L209.35 111.07C208.092 110.809 207.169 110.407 206.579 109.863C205.99 109.319 205.695 108.594 205.695 107.687C205.695 106.576 206.098 105.704 206.902 105.069C207.718 104.423 208.835 104.1 210.251 104.1C211.985 104.1 213.436 104.672 214.603 105.817L213.005 107.483C212.586 107.007 212.144 106.678 211.679 106.497C211.226 106.304 210.688 106.208 210.064 106.208C209.475 106.208 209.016 106.327 208.687 106.565C208.359 106.792 208.194 107.109 208.194 107.517C208.194 107.868 208.33 108.146 208.602 108.35C208.886 108.554 209.35 108.73 209.996 108.877L211.101 109.098C212.371 109.37 213.3 109.784 213.889 110.339C214.479 110.894 214.773 111.637 214.773 112.566C214.773 113.665 214.36 114.544 213.532 115.201C212.716 115.847 211.594 116.17 210.166 116.17Z" fill="black"/>
<path d="M203.61 116H195.722V104.27H198.255V113.671H203.61V116Z" fill="black"/>
<path d="M193.547 116H190.861L189.926 113.382H185.319L184.384 116H181.715L186.254 104.27H189.025L193.547 116ZM187.427 107.551L186.101 111.24H189.161L187.835 107.551C187.824 107.506 187.801 107.443 187.767 107.364C187.744 107.285 187.722 107.211 187.699 107.143C187.676 107.075 187.654 107.007 187.631 106.939L187.427 107.551Z" fill="black"/>
<path d="M179.522 116H176.989V104.27H179.522V116Z" fill="black"/>
<path d="M171.015 116H168.499V106.599H164.912V104.27H174.602V106.599H171.015V116Z" fill="black"/>
<path d="M154.479 116H151.997V104.27H154.836L159.681 111.699C159.783 111.846 159.913 112.067 160.072 112.362C160.061 112.215 160.055 111.994 160.055 111.699V104.27H162.537V116H159.681L154.853 108.605C154.638 108.265 154.507 108.044 154.462 107.942C154.473 108.101 154.479 108.322 154.479 108.605V116Z" fill="black"/>
<path d="M149.304 116H140.804V104.27H149.219V106.497H143.337V108.945H148.301V111.172H143.337V113.773H149.304V116Z" fill="black"/>
<path d="M131.759 116H127.271V104.27H131.759C133.595 104.27 135.113 104.797 136.315 105.851C137.527 106.894 138.134 108.316 138.134 110.118C138.134 111.92 137.527 113.354 136.315 114.419C135.102 115.473 133.583 116 131.759 116ZM129.804 106.599V113.671H131.623C132.767 113.671 133.697 113.371 134.411 112.77C135.136 112.158 135.499 111.274 135.499 110.118C135.499 108.973 135.142 108.101 134.428 107.5C133.714 106.899 132.779 106.599 131.623 106.599H129.804Z" fill="black"/>
<path d="M124.578 116H116.078V104.27H124.493V106.497H118.611V108.945H123.575V111.172H118.611V113.773H124.578V116Z" fill="black"/>
<path d="M111.43 112.243L113.793 116H110.852L108.727 112.498C108.557 112.203 108.409 112.022 108.285 111.954C108.16 111.875 107.945 111.835 107.639 111.835H106.024V116H103.491V104.27H108.795C110.064 104.27 111.09 104.604 111.872 105.273C112.654 105.942 113.045 106.831 113.045 107.942C113.045 108.758 112.841 109.455 112.433 110.033C112.036 110.611 111.464 111.036 110.716 111.308C110.897 111.455 111.135 111.767 111.43 112.243ZM106.024 106.463V109.71H108.37C109.73 109.71 110.41 109.172 110.41 108.095C110.41 107.007 109.73 106.463 108.37 106.463H106.024Z" fill="black"/>
<path d="M96.2615 116.17C94.5049 116.17 93.0485 115.603 91.8925 114.47C90.7479 113.337 90.1755 111.886 90.1755 110.118C90.1755 108.361 90.7479 106.922 91.8925 105.8C93.0485 104.667 94.5049 104.1 96.2615 104.1C98.2222 104.1 99.7919 104.797 100.971 106.191L99.1005 107.738C98.3865 106.865 97.4402 106.429 96.2615 106.429C95.2529 106.429 94.4255 106.769 93.7795 107.449C93.1335 108.129 92.8105 109.019 92.8105 110.118C92.8105 111.24 93.1279 112.141 93.7625 112.821C94.3972 113.501 95.2302 113.841 96.2615 113.841C96.8962 113.841 97.4459 113.733 97.9105 113.518C98.3752 113.291 98.8285 112.929 99.2705 112.43L101.107 113.994C99.9619 115.445 98.3469 116.17 96.2615 116.17Z" fill="black"/>
</svg>
