<svg width="304" height="140" viewBox="0 0 304 140" fill="none" xmlns="http://www.w3.org/2000/svg">
<g clip-path="url(#clip0_1586_968)">
<path d="M70.605 103.98C68.745 103.98 67.205 103.38 65.985 102.18C64.765 100.98 64.155 99.4402 64.155 97.5702C64.155 95.7002 64.765 94.1802 65.985 92.9902C67.205 91.8002 68.745 91.2002 70.605 91.2002C72.685 91.2002 74.345 91.9402 75.595 93.4102L73.615 95.0502C72.855 94.1302 71.855 93.6602 70.605 93.6602C69.535 93.6602 68.665 94.0202 67.975 94.7402C67.295 95.4602 66.945 96.4002 66.945 97.5702C66.945 98.7402 67.285 99.7102 67.955 100.43C68.625 101.15 69.505 101.51 70.605 101.51C71.275 101.51 71.855 101.39 72.355 101.16C72.845 100.93 73.325 100.54 73.795 100.02L75.735 101.68C74.525 103.22 72.815 103.98 70.605 103.98Z" fill="black"/>
<path d="M89.2849 103.8H86.4449L85.4549 101.03H80.5749L79.5849 103.8H76.7549L81.5649 91.3799H84.4949L89.2849 103.8ZM82.8049 94.8499L81.4049 98.7599H84.6449L83.2449 94.8499C83.2449 94.8499 83.2149 94.7399 83.1849 94.6499C83.1549 94.5699 83.1249 94.4899 83.1049 94.4199C83.0849 94.3499 83.0549 94.2799 83.0349 94.1999L82.8149 94.8499H82.8049Z" fill="black"/>
<path d="M99.525 99.8199L102.025 103.8H98.915L96.665 100.09C96.485 99.7799 96.325 99.5799 96.195 99.5099C96.065 99.4299 95.835 99.3899 95.515 99.3899H93.805V103.8H91.125V91.3799H96.745C98.085 91.3799 99.175 91.7299 100.005 92.4399C100.835 93.1499 101.245 94.0899 101.245 95.2699C101.245 96.1299 101.035 96.8699 100.605 97.4799C100.175 98.0899 99.575 98.5399 98.775 98.8299C98.965 98.9899 99.215 99.3199 99.535 99.8199H99.525ZM93.805 93.6999V97.1399H96.285C97.725 97.1399 98.445 96.5699 98.445 95.4299C98.445 94.2899 97.725 93.6999 96.285 93.6999H93.805Z" fill="black"/>
<path d="M109.465 103.8H104.025V91.3799H109.195C110.505 91.3799 111.525 91.6599 112.265 92.2199C113.005 92.7799 113.375 93.5499 113.375 94.5499C113.375 95.8899 112.715 96.8199 111.395 97.3199C113.035 97.6799 113.865 98.6699 113.865 100.29C113.865 101.39 113.475 102.25 112.705 102.87C111.935 103.49 110.855 103.8 109.475 103.8H109.465ZM106.705 93.5499V96.3899H108.915C109.475 96.3899 109.915 96.2699 110.225 96.0199C110.535 95.7699 110.685 95.4199 110.685 94.9699C110.685 94.5199 110.535 94.1599 110.225 93.9199C109.915 93.6799 109.485 93.5499 108.915 93.5499H106.705ZM106.705 98.5799V101.62H109.135C109.755 101.62 110.235 101.49 110.565 101.22C110.895 100.96 111.065 100.58 111.065 100.09C111.065 99.5999 110.905 99.2199 110.575 98.9699C110.255 98.7099 109.785 98.5799 109.175 98.5799H106.705Z" fill="black"/>
<path d="M122.115 103.98C120.245 103.98 118.695 103.38 117.475 102.18C116.255 100.98 115.635 99.4502 115.635 97.5902C115.635 95.7302 116.245 94.2002 117.475 93.0002C118.705 91.8002 120.245 91.2002 122.115 91.2002C123.985 91.2002 125.515 91.8002 126.745 93.0002C127.975 94.2002 128.585 95.7302 128.585 97.5902C128.585 99.4502 127.975 100.98 126.745 102.18C125.525 103.38 123.975 103.98 122.115 103.98ZM122.115 101.51C123.195 101.51 124.075 101.15 124.765 100.43C125.455 99.7102 125.795 98.7602 125.795 97.5902C125.795 96.4202 125.455 95.4702 124.765 94.7502C124.085 94.0302 123.195 93.6702 122.115 93.6702C121.035 93.6702 120.135 94.0302 119.455 94.7502C118.775 95.4702 118.425 96.4202 118.425 97.5902C118.425 98.7602 118.765 99.7102 119.455 100.43C120.145 101.15 121.025 101.51 122.115 101.51Z" fill="black"/>
<path d="M133.675 103.8H131.045V91.3799H134.055L139.185 99.2499C139.295 99.4099 139.435 99.6399 139.595 99.9499C139.585 99.7899 139.575 99.5599 139.575 99.2499V91.3799H142.205V103.8H139.185L134.075 95.9699C133.845 95.6099 133.705 95.3799 133.665 95.2699C133.675 95.4399 133.685 95.6699 133.685 95.9699V103.8H133.675Z" fill="black"/>
<path d="M155.755 103.8H150.315V91.3799H155.485C156.795 91.3799 157.815 91.6599 158.555 92.2199C159.295 92.7799 159.665 93.5499 159.665 94.5499C159.665 95.8899 159.005 96.8199 157.685 97.3199C159.325 97.6799 160.155 98.6699 160.155 100.29C160.155 101.39 159.765 102.25 158.995 102.87C158.225 103.49 157.145 103.8 155.765 103.8H155.755ZM153.005 93.5499V96.3899H155.215C155.775 96.3899 156.215 96.2699 156.525 96.0199C156.835 95.7699 156.985 95.4199 156.985 94.9699C156.985 94.5199 156.835 94.1599 156.525 93.9199C156.215 93.6799 155.785 93.5499 155.215 93.5499H153.005ZM153.005 98.5799V101.62H155.435C156.055 101.62 156.535 101.49 156.865 101.22C157.195 100.96 157.365 100.58 157.365 100.09C157.365 99.5999 157.205 99.2199 156.875 98.9699C156.555 98.7099 156.085 98.5799 155.475 98.5799H153.005Z" fill="black"/>
<path d="M167.925 103.96C166.225 103.95 164.895 103.48 163.945 102.55C162.995 101.62 162.525 100.32 162.525 98.6499V91.3799H165.205V98.3799C165.205 99.3599 165.445 100.13 165.915 100.67C166.385 101.21 167.065 101.49 167.935 101.5C168.815 101.48 169.475 101.2 169.945 100.68C170.405 100.16 170.635 99.4099 170.635 98.4199V91.3799H173.315V98.6199C173.315 100.3 172.845 101.61 171.895 102.54C170.945 103.48 169.625 103.95 167.915 103.96H167.925Z" fill="black"/>
<path d="M179.055 103.8H176.375V91.3799H179.055V103.8Z" fill="black"/>
<path d="M190.515 103.8H182.165V91.3799H184.845V101.33H190.515V103.8Z" fill="black"/>
<path d="M197.225 103.8H192.475V91.3799H197.225C199.165 91.3799 200.785 91.9299 202.055 93.0499C203.335 94.1599 203.975 95.6699 203.975 97.5799C203.975 99.4899 203.335 101 202.045 102.12C200.765 103.24 199.155 103.8 197.225 103.8ZM195.155 93.8399V101.33H197.085C198.295 101.33 199.285 101.01 200.045 100.37C200.805 99.7299 201.185 98.7899 201.185 97.5699C201.185 96.3499 200.805 95.4299 200.055 94.7999C199.305 94.1699 198.305 93.8499 197.085 93.8499H195.155V93.8399Z" fill="black"/>
<path d="M209.105 103.8H206.425V91.3799H209.105V103.8Z" fill="black"/>
<path d="M214.855 103.8H212.225V91.3799H215.235L220.365 99.2499C220.475 99.4099 220.615 99.6399 220.775 99.9499C220.765 99.7899 220.755 99.5599 220.755 99.2499V91.3799H223.385V103.8H220.365L215.255 95.9699C215.025 95.6099 214.885 95.3799 214.845 95.2699C214.855 95.4399 214.865 95.6699 214.865 95.9699V103.8H214.855Z" fill="black"/>
<path d="M232.145 99.1002V96.8702H238.015V103.8H235.875V102.41C235.135 103.45 233.855 103.98 232.045 103.98C230.235 103.98 228.785 103.4 227.615 102.24C226.455 101.08 225.865 99.5602 225.865 97.6802C225.865 95.8002 226.475 94.2002 227.715 93.0002C228.945 91.8002 230.515 91.2002 232.425 91.2002C234.745 91.2002 236.525 91.9402 237.785 93.4102L235.805 95.0502C235.045 94.1302 233.925 93.6602 232.425 93.6602C231.305 93.6602 230.405 94.0202 229.705 94.7502C229.005 95.4802 228.665 96.4502 228.665 97.6702C228.665 98.9502 229.005 99.9402 229.705 100.64C230.395 101.34 231.305 101.68 232.445 101.68C233.395 101.68 234.165 101.48 234.745 101.09C235.335 100.69 235.625 100.14 235.625 99.4202V99.1002H232.155H232.145Z" fill="black"/>
<path d="M45.1049 67.5002H38.5349V36.4502H46.0549L58.8849 56.1202C59.1549 56.5102 59.4949 57.0902 59.9149 57.8702C59.8849 57.4802 59.8749 56.9002 59.8749 56.1202V36.4502H66.4449V67.5002H58.8849L46.0949 47.9202C45.5249 47.0202 45.1749 46.4402 45.0649 46.1702C45.0949 46.5902 45.1049 47.1802 45.1049 47.9202V67.5002Z" fill="black"/>
<path d="M96.405 67.5002H73.905V36.4502H96.185V42.3402H80.615V48.8202H93.755V54.7102H80.615V61.6002H96.405V67.4902V67.5002Z" fill="black"/>
<path d="M116.205 67.5002H109.545V42.6202H100.045V36.4502H125.695V42.6202H116.195V67.5002H116.205Z" fill="black"/>
<path d="M168.765 67.5002H142.255V62.7802L158.995 42.6202H142.745V36.4502H168.665V41.5302L152.245 61.3302H168.765V67.5002Z" fill="black"/>
<path d="M197.205 67.5002H174.705V36.4502H196.985V42.3402H181.415V48.8202H194.555V54.7102H181.415V61.6002H197.205V67.4902V67.5002Z" fill="black"/>
<path d="M224.425 57.5502L230.675 67.5002H222.895L217.275 58.2302C216.825 57.4502 216.435 56.9602 216.105 56.7702C215.775 56.5802 215.205 56.4802 214.395 56.4802H210.125V67.5102H203.415V36.4502H217.455C220.815 36.4502 223.535 37.3302 225.605 39.1102C227.675 40.8802 228.705 43.2302 228.705 46.1702C228.705 48.3302 228.175 50.1702 227.105 51.7102C226.035 53.2402 224.515 54.3702 222.535 55.0902C223.015 55.4802 223.645 56.3002 224.425 57.5602V57.5502ZM210.115 42.2502V50.8402H216.325C219.925 50.8402 221.725 49.4202 221.725 46.5702C221.725 43.7202 219.925 42.2502 216.325 42.2502H210.115Z" fill="black"/>
<path d="M249.315 67.95C244.635 67.95 240.765 66.45 237.705 63.45C234.645 60.45 233.115 56.62 233.115 51.97C233.115 47.32 234.645 43.5 237.705 40.5C240.765 37.5 244.635 36 249.315 36C253.995 36 257.825 37.5 260.875 40.5C263.935 43.5 265.465 47.33 265.465 51.97C265.465 56.61 263.935 60.45 260.875 63.45C257.815 66.45 253.955 67.95 249.315 67.95ZM249.315 61.79C252.015 61.79 254.225 60.89 255.935 59.09C257.645 57.29 258.495 54.92 258.495 51.98C258.495 49.04 257.645 46.67 255.935 44.87C254.225 43.07 252.015 42.17 249.315 42.17C246.615 42.17 244.365 43.07 242.655 44.87C240.945 46.67 240.095 49.04 240.095 51.98C240.095 54.92 240.945 57.29 242.655 59.09C244.365 60.89 246.585 61.79 249.315 61.79Z" fill="black"/>
</g>
<defs>
<clipPath id="clip0_1586_968">
<rect width="226.93" height="67.98" fill="white" transform="translate(38.5349 36)"/>
</clipPath>
</defs>
</svg>
