<svg width="304" height="140" viewBox="0 0 304 140" fill="none" xmlns="http://www.w3.org/2000/svg">
<g clip-path="url(#clip0_1586_954)">
<path d="M72.69 119.77C74.18 119.77 75.3601 120.15 76.2401 120.9C77.1201 121.66 77.55 122.68 77.55 123.96C77.55 125.24 77.1 126.34 76.21 127.13C75.32 127.92 74.12 128.32 72.62 128.32H70.23V132.19H67.55V119.77H72.7001H72.69ZM70.2201 125.94H72.4001C73.1301 125.94 73.7101 125.77 74.1301 125.43C74.5501 125.09 74.7601 124.63 74.7601 124.05C74.7601 123.47 74.5601 122.98 74.1501 122.65C73.7401 122.31 73.17 122.15 72.44 122.15H70.23V125.95L70.2201 125.94Z" fill="black"/>
<path d="M88.08 132.19H79.73V119.77H82.41V129.72H88.08V132.19Z" fill="black"/>
<path d="M101.99 132.19H99.15L98.16 129.42H93.28L92.29 132.19H89.46L94.27 119.77H97.2L101.99 132.19ZM95.51 123.24L94.11 127.15H97.35L95.95 123.24C95.95 123.24 95.92 123.13 95.89 123.04C95.86 122.96 95.83 122.88 95.81 122.81C95.79 122.74 95.76 122.67 95.74 122.59L95.52 123.24H95.51Z" fill="black"/>
<path d="M107.97 132.19H105.31V122.24H101.51V119.77H111.77V122.24H107.97V132.19Z" fill="black"/>
<path d="M116.39 132.19H113.71V119.77H116.39V132.19Z" fill="black"/>
<path d="M122.13 132.19H119.5V119.77H122.51L127.64 127.64C127.75 127.8 127.89 128.03 128.05 128.34C128.04 128.18 128.03 127.95 128.03 127.64V119.77H130.66V132.19H127.64L122.53 124.36C122.3 124 122.16 123.77 122.12 123.66C122.13 123.83 122.14 124.06 122.14 124.36V132.19H122.13Z" fill="black"/>
<path d="M139.09 132.35C137.39 132.34 136.06 131.87 135.11 130.94C134.16 130.01 133.69 128.71 133.69 127.04V119.77H136.37V126.77C136.37 127.75 136.61 128.52 137.08 129.06C137.55 129.6 138.23 129.88 139.1 129.89C139.98 129.87 140.64 129.59 141.11 129.07C141.57 128.55 141.8 127.8 141.8 126.81V119.77H144.48V127.01C144.48 128.69 144.01 130 143.06 130.93C142.11 131.87 140.79 132.34 139.08 132.35H139.09Z" fill="black"/>
<path d="M150.14 132.19H147.51V119.77H150.82L154.02 126.18L157.22 119.77H160.51V132.19H157.88V124.36C157.88 124.06 157.88 123.83 157.9 123.68C157.76 123.99 157.64 124.22 157.56 124.36L155.13 129.27H152.92L150.45 124.34L150.11 123.67C150.12 123.83 150.13 124.06 150.13 124.37V132.18L150.14 132.19Z" fill="black"/>
<path d="M177.07 128.21L179.57 132.19H176.46L174.21 128.48C174.03 128.17 173.87 127.97 173.74 127.9C173.61 127.82 173.38 127.78 173.06 127.78H171.35V132.19H168.67V119.77H174.29C175.63 119.77 176.72 120.12 177.55 120.83C178.38 121.54 178.79 122.48 178.79 123.66C178.79 124.52 178.58 125.26 178.15 125.87C177.72 126.48 177.12 126.93 176.32 127.22C176.51 127.38 176.76 127.71 177.08 128.21H177.07ZM171.34 122.09V125.53H173.82C175.26 125.53 175.98 124.96 175.98 123.82C175.98 122.68 175.26 122.09 173.82 122.09H171.34Z" fill="black"/>
<path d="M193.43 132.19H190.59L189.6 129.42H184.72L183.73 132.19H180.9L185.71 119.77H188.64L193.43 132.19ZM186.95 123.24L185.55 127.15H188.79L187.39 123.24C187.39 123.24 187.36 123.13 187.33 123.04C187.3 122.96 187.27 122.88 187.25 122.81C187.23 122.74 187.2 122.67 187.18 122.59L186.96 123.24H186.95Z" fill="black"/>
<path d="M199.41 132.19H196.75V122.24H192.95V119.77H203.21V122.24H199.41V132.19Z" fill="black"/>
<path d="M207.83 132.19H205.15V119.77H207.83V132.19Z" fill="black"/>
<path d="M213.57 132.19H210.94V119.77H213.95L219.08 127.64C219.19 127.8 219.33 128.03 219.49 128.34C219.48 128.18 219.47 127.95 219.47 127.64V119.77H222.1V132.19H219.08L213.97 124.36C213.74 124 213.6 123.77 213.56 123.66C213.57 123.83 213.58 124.06 213.58 124.36V132.19H213.57Z" fill="black"/>
<path d="M230.87 127.49V125.26H236.74V132.19H234.6V130.8C233.86 131.84 232.58 132.37 230.77 132.37C228.96 132.37 227.51 131.79 226.34 130.63C225.18 129.47 224.59 127.95 224.59 126.07C224.59 124.19 225.2 122.59 226.44 121.39C227.67 120.19 229.24 119.59 231.15 119.59C233.47 119.59 235.25 120.33 236.51 121.8L234.53 123.44C233.77 122.52 232.65 122.05 231.15 122.05C230.03 122.05 229.13 122.41 228.43 123.14C227.73 123.87 227.39 124.84 227.39 126.06C227.39 127.34 227.73 128.33 228.43 129.03C229.12 129.73 230.03 130.07 231.17 130.07C232.12 130.07 232.89 129.87 233.47 129.48C234.06 129.08 234.35 128.53 234.35 127.81V127.49H230.88H230.87Z" fill="black"/>
<path d="M105.29 19.6002H102.63V9.65018H98.8298V7.18018H109.09V9.65018H105.29V19.6002Z" fill="black"/>
<path d="M121.11 19.6002H118.27L117.28 16.8302H112.4L111.41 19.6002H108.58L113.39 7.18018H116.32L121.11 19.6002ZM114.63 10.6502L113.23 14.5602H116.47L115.07 10.6502C115.07 10.6502 115.04 10.5402 115.01 10.4502C114.98 10.3702 114.95 10.2902 114.93 10.2202C114.91 10.1502 114.88 10.0802 114.86 10.0002L114.64 10.6502H114.63Z" fill="black"/>
<path d="M131.35 15.6202L133.85 19.6002H130.74L128.49 15.8902C128.31 15.5802 128.15 15.3802 128.02 15.3102C127.89 15.2302 127.66 15.1902 127.34 15.1902H125.63V19.6002H122.95V7.18018H128.57C129.91 7.18018 131 7.53018 131.83 8.24018C132.66 8.95018 133.07 9.89018 133.07 11.0702C133.07 11.9302 132.86 12.6702 132.43 13.2802C132 13.8902 131.4 14.3402 130.6 14.6302C130.79 14.7902 131.04 15.1202 131.36 15.6202H131.35ZM125.63 9.50018V12.9402H128.11C129.55 12.9402 130.27 12.3702 130.27 11.2302C130.27 10.0902 129.55 9.50018 128.11 9.50018H125.63Z" fill="black"/>
<path d="M141.32 14.9V12.67H147.19V19.6H145.05V18.21C144.31 19.25 143.03 19.78 141.22 19.78C139.41 19.78 137.96 19.2 136.79 18.04C135.63 16.88 135.04 15.36 135.04 13.48C135.04 11.6 135.65 10 136.89 8.8C138.12 7.6 139.69 7 141.6 7C143.92 7 145.7 7.74 146.96 9.21L144.98 10.85C144.22 9.93 143.1 9.46 141.6 9.46C140.48 9.46 139.58 9.82 138.88 10.55C138.18 11.28 137.84 12.25 137.84 13.47C137.84 14.75 138.18 15.74 138.88 16.44C139.57 17.14 140.48 17.48 141.62 17.48C142.57 17.48 143.34 17.28 143.92 16.89C144.51 16.49 144.8 15.94 144.8 15.22V14.9H141.33H141.32Z" fill="black"/>
<path d="M159.11 19.6002H150.11V7.18018H159.02V9.54018H152.79V12.1302H158.05V14.4902H152.79V17.2402H159.11V19.6002Z" fill="black"/>
<path d="M167.17 19.6002H164.51V9.65018H160.71V7.18018H170.97V9.65018H167.17V19.6002Z" fill="black"/>
<path d="M175.59 19.6002H172.91V7.18018H175.59V19.6002Z" fill="black"/>
<path d="M181.32 19.6002H178.69V7.18018H181.7L186.83 15.0502C186.94 15.2102 187.08 15.4402 187.24 15.7502C187.23 15.5902 187.22 15.3602 187.22 15.0502V7.18018H189.85V19.6002H186.83L181.72 11.7702C181.49 11.4102 181.35 11.1802 181.31 11.0702C181.32 11.2402 181.33 11.4702 181.33 11.7702V19.6002H181.32Z" fill="black"/>
<path d="M198.62 14.9V12.67H204.49V19.6H202.35V18.21C201.61 19.25 200.33 19.78 198.52 19.78C196.71 19.78 195.26 19.2 194.09 18.04C192.93 16.88 192.34 15.36 192.34 13.48C192.34 11.6 192.95 10 194.19 8.8C195.42 7.6 196.99 7 198.9 7C201.22 7 203 7.74 204.26 9.21L202.28 10.85C201.52 9.93 200.4 9.46 198.9 9.46C197.78 9.46 196.88 9.82 196.18 10.55C195.48 11.28 195.14 12.25 195.14 13.47C195.14 14.75 195.48 15.74 196.18 16.44C196.87 17.14 197.78 17.48 198.92 17.48C199.87 17.48 200.64 17.28 201.22 16.89C201.81 16.49 202.1 15.94 202.1 15.22V14.9H198.63H198.62Z" fill="black"/>
<path d="M79.7999 52.8102C79.7699 51.1202 78.3999 49.7702 76.7199 49.7902C75.0199 49.8102 73.7499 51.1602 73.7799 52.9102C73.8099 54.6402 75.0299 55.8302 76.7599 55.8102C78.5399 55.8002 79.8299 54.5202 79.7999 52.8102ZM74.3499 84.0202H79.3599V68.6502C79.3599 65.9002 79.3799 63.1402 79.3299 60.3902C79.3299 60.0702 78.9799 59.4902 78.7599 59.4802C77.3199 59.4002 75.8799 59.4402 74.3499 59.4402V84.0202ZM237.65 84.1202C238.95 84.1202 240.17 84.0702 241.39 84.1402C242.31 84.1902 242.59 83.9102 242.59 82.9602C242.57 77.3102 242.63 71.6502 242.66 66.0002C242.66 65.4602 242.72 64.9202 242.76 64.3102C245.44 64.3102 248.01 64.3302 250.57 64.2902C250.92 64.2902 251.51 64.0202 251.58 63.7702C251.95 62.3902 252.19 60.9702 252.47 59.5302C248.55 59.1502 245.08 59.6502 242.79 63.3102C242.71 63.2502 242.62 63.1902 242.54 63.1302V59.5102H237.65V84.1402V84.1202ZM88.0299 84.1402C88.9699 84.1902 89.2099 83.8502 89.2099 82.9402C89.1799 77.2502 89.2099 71.5602 89.2299 65.8602C89.2299 64.8202 89.7533 64.2968 90.7999 64.2902C93.2099 64.2902 95.6199 64.2902 98.0699 64.2902C98.4199 62.6302 98.7399 61.0902 99.0699 59.5102C95.1499 59.1402 91.6699 59.6102 89.2999 63.2102C89.1899 62.1902 89.2299 61.2302 89.1699 60.2902C89.1499 60.0002 88.8899 59.4902 88.7199 59.4802C87.2099 59.4202 85.6999 59.4402 84.1699 59.4402V84.1102C85.5299 84.1102 86.7799 84.0602 88.0399 84.1302M201.62 60.5702C194.35 56.4702 183.45 60.1902 183.03 71.2002C182.84 76.1602 184.57 80.3302 189 82.8902C193.17 85.3002 197.55 85.2902 201.76 82.9002C204.52 81.3302 206.28 78.9002 207.13 75.6802C205.71 75.6802 204.41 75.7202 203.11 75.6602C202.39 75.6302 202 75.8502 201.65 76.5102C199.47 80.5702 193.47 81.2502 190.42 77.7902C188.42 75.5202 188.04 72.8102 188.48 69.9402C188.99 66.6302 191.22 64.1602 194.17 63.6802C196.67 63.2802 199.98 63.8602 201.67 67.4202C201.77 67.6302 202.1 67.8402 202.33 67.8502C203.88 67.8902 205.44 67.8702 207 67.8702C206.69 65.3102 204.34 62.1002 201.62 60.5702ZM224.08 79.7502C218.62 81.0802 214.08 76.9402 214.61 71.1202C214.97 67.2202 216.97 64.5702 220.11 63.8202C225.41 62.5702 229.56 66.0702 229.56 71.7802C229.56 75.8902 227.48 78.9202 224.08 79.7402M222.03 58.9502C214.93 58.9602 209.3 64.6002 209.27 71.7402C209.24 78.9202 214.89 84.6102 222.04 84.6102C229.32 84.6102 234.88 79.0302 234.88 71.7202C234.88 64.5302 229.24 58.9402 222.03 58.9502ZM111.75 63.6002C115.06 63.7202 117.99 66.2502 118.23 69.2802H104.05C104.57 65.8002 107.78 63.4602 111.75 63.6002ZM118.73 76.6202C118.39 76.6302 117.98 76.8802 117.74 77.1402C115.33 79.8802 112.28 80.5002 108.91 79.6402C106.1 78.9202 103.77 75.9502 103.85 73.4202H123.53C124.49 66.6802 120.06 60.4102 113.58 59.1802C106.87 57.9102 100.49 62.0402 98.9299 68.6602C97.3399 75.4102 101.11 82.2002 107.48 84.0502C114.06 85.9702 121.35 82.6002 123.38 76.5802C121.77 76.5802 120.24 76.5502 118.72 76.6002M257.57 69.2802C257.38 66.8302 260.43 63.9702 263.61 63.6202C267.69 63.1702 271.19 65.5902 271.68 69.2802H257.57ZM265.85 59.0202C259.36 58.2202 253.33 62.8702 252.16 69.5802C250.98 76.3502 255.24 82.8402 261.81 84.3002C268.1 85.7002 275.24 82.0602 276.77 76.5902C275.16 76.5902 273.57 76.5702 271.99 76.6102C271.72 76.6102 271.39 76.8702 271.19 77.1002C269.18 79.4902 266.54 80.2002 263.57 79.9102C260.29 79.5902 257.27 76.4902 257.27 73.4502H277.04C277.6 65.7002 273.05 59.9002 265.86 59.0102M131.14 69.5302C131.98 65.3902 134.61 63.3802 138.85 63.6002C142.18 63.7702 144.76 66.4102 145.05 70.2102C145.17 71.7802 145.08 73.4302 144.71 74.9502C143.89 78.2702 141.33 80.0702 137.99 79.9902C134.45 79.8902 132.02 77.9902 131.25 74.6302C131.04 73.7002 130.99 72.7202 130.88 71.8902C130.97 71.0102 130.98 70.2602 131.13 69.5402M146.3 50.2502C145.33 50.1902 145.13 50.5802 145.14 51.4702C145.19 54.7402 145.16 58.0202 145.16 61.2902C145.16 61.6802 145.12 62.0602 145.09 62.6202C144.78 62.3502 144.61 62.2202 144.46 62.0802C139.82 57.5402 132.36 58.0402 128.35 63.2102C125.63 66.7202 125.18 70.7602 125.93 74.9702C127.14 81.8502 133.79 86.1602 140.17 84.1102C141.94 83.5402 143.49 82.3002 145.16 81.3502C145.16 81.8902 145.11 82.6602 145.19 83.4102C145.22 83.6602 145.57 84.0802 145.78 84.0902C147.22 84.1502 148.66 84.1202 150.17 84.1202V50.2802C148.81 50.2802 147.55 50.3402 146.3 50.2602M175.09 51.2702C172.03 49.4202 168.66 49.0602 165.18 49.4502C162.17 49.7902 159.52 50.9202 157.37 53.1202C153.7 56.8802 153.36 63.8702 159.5 66.9302C161.61 67.9802 163.93 68.6202 166.17 69.4002C168.27 70.1302 170.44 70.6702 172.5 71.5002C174.05 72.1302 175.14 73.3202 175.04 75.1902C174.94 77.1402 173.88 78.4402 172.14 79.2002C166.7 81.5902 161.26 79.4402 159.05 74.0302H153.34C154.04 77.5102 155.56 80.4402 158.44 82.3502C163.87 85.9602 169.66 85.9702 175.4 83.2302C179.09 81.4602 181 78.3102 180.82 74.1202C180.65 70.1502 178.05 68.0402 174.73 66.6202C173.16 65.9502 171.5 65.5102 169.89 64.9602C167.58 64.1702 165.22 63.4902 162.96 62.5602C161.48 61.9502 160.47 60.7202 160.56 58.9902C160.67 57.1602 161.68 55.8702 163.36 55.1402C165.33 54.2802 167.4 54.2202 169.49 54.6002C171.88 55.0302 173.67 56.2402 174.61 58.5802C174.71 58.8402 175.03 59.1902 175.26 59.1902C177 59.2402 178.74 59.2202 180.59 59.2202C179.75 55.7502 178.06 53.0602 175.1 51.2802M45.1299 50.2802C47.7499 50.2802 50.2799 50.3002 52.8099 50.2602C53.4999 50.2602 53.5999 50.6602 53.6899 51.1502C55.2599 58.8302 56.8299 66.5202 58.3999 74.2002C58.6699 75.5502 58.9399 76.9002 59.2599 78.2302C59.3499 78.6002 59.6399 78.9202 59.8399 79.2602C60.0099 78.9302 60.2699 78.6202 60.3399 78.2702C61.5799 72.0002 62.7999 65.7202 64.0299 59.4502C64.5699 56.6802 65.0999 53.9002 65.6299 51.1302C65.7399 50.5602 65.9399 50.2302 66.6399 50.2502C68.1599 50.3102 69.6799 50.2702 71.3899 50.2702C69.0499 61.5902 66.7199 72.8002 64.3799 84.1002C61.5299 84.1002 58.7399 84.1202 55.9599 84.0602C55.7199 84.0602 55.3399 83.5202 55.2699 83.1702C54.3699 79.0302 53.5199 74.8802 52.6499 70.7302C51.6999 66.2202 50.7599 61.7102 49.7899 57.2002C49.7199 56.8902 49.4699 56.6202 49.2999 56.3402C49.1299 56.6202 48.8499 56.8802 48.7899 57.1802C47.0799 65.6302 45.3799 74.0802 43.6899 82.5302C43.5899 83.0002 43.4899 83.4702 43.3699 84.0202H34.1499C31.7499 72.8102 29.3499 61.6002 26.9299 50.3102H32.7199C33.1599 52.4402 33.6099 54.5802 34.0399 56.7102C35.4799 63.8102 36.9199 70.9102 38.3499 78.0202C38.3899 78.2002 38.4099 78.4002 38.4999 78.5602C38.6499 78.8102 38.8499 79.0202 39.0299 79.2402C39.1699 79.0102 39.3999 78.8002 39.4499 78.5502C40.4299 73.6302 41.3999 68.7102 42.3699 63.7802C43.1999 59.5502 44.0299 55.3202 44.8599 51.0902C44.9099 50.8402 45.0099 50.6002 45.1199 50.2602" fill="black"/>
</g>
<defs>
<clipPath id="clip0_1586_954">
<rect width="250.14" height="125.37" fill="white" transform="translate(26.9299 7)"/>
</clipPath>
</defs>
</svg>
