<svg width="33" height="26" viewBox="0 0 33 26" fill="none" xmlns="http://www.w3.org/2000/svg">
<path d="M16.9311 21.5446C13.0962 21.5446 9.90308 19.0322 9.05266 15.0292H24.7935C23.9591 19.049 20.75 21.5446 16.915 21.5446M16.9311 4.628C20.7018 4.628 23.8789 7.79358 24.7614 10.9927H9.08475C9.96726 7.77683 13.1443 4.628 16.915 4.628M32.6238 11.0094H29.1258C28.1791 5.38171 23.0766 0.172729 16.9311 0.172729C10.7856 0.172729 5.6991 5.38171 4.73636 11.0094H0.339844V15.0292H4.72032C5.61888 21.4441 10.7535 25.9999 16.9311 25.9999C23.1087 25.9999 28.2594 21.4441 29.1419 15.0292H32.6238V11.0094Z" fill="black"/>
</svg>
