<svg width="34" height="27" viewBox="0 0 34 27" fill="none" xmlns="http://www.w3.org/2000/svg">
<path d="M17.2413 22.4617C13.3349 22.4617 10.0823 19.9025 9.21605 15.8248H25.2503C24.4004 19.9195 21.1314 22.4617 17.225 22.4617M17.2413 5.22972C21.0824 5.22972 24.3186 8.45432 25.2176 11.713H9.24874C10.1477 8.43726 13.384 5.22972 17.225 5.22972M33.2266 11.7301H29.6634C28.6991 5.99748 23.5014 0.691406 17.2413 0.691406C10.9813 0.691406 5.79998 5.99748 4.8193 11.7301H0.34082V15.8248H4.80295C5.71826 22.3593 10.9486 27 17.2413 27C23.5341 27 28.7808 22.3593 29.6797 15.8248H33.2266V11.7301Z" fill="#00089A"/>
</svg>
