<svg width="12" height="19" viewBox="0 0 12 19" fill="none" xmlns="http://www.w3.org/2000/svg">
<path d="M7.34532 0.212036C8.28361 0.212036 9.04905 1.03217 9.04905 2.04426C9.04905 3.05635 8.28361 3.87648 7.34532 3.87648C6.40704 3.87648 5.6416 3.05635 5.6416 2.04426C5.6416 1.03217 6.40704 0.212036 7.34532 0.212036ZM7.8227 8.60537L7.84739 8.65772C8.02023 9.13759 8.29184 9.53893 8.61283 9.86175C8.95028 10.202 9.35358 10.4376 9.77334 10.6034H9.7898L11.3371 11.1618L11.8804 9.43423L10.3659 8.89329H10.3412C10.0861 8.77114 9.8968 8.64899 9.75688 8.50939C9.6005 8.36107 9.4935 8.1953 9.41943 7.95973L9.40296 7.93355L8.90913 6.78187L8.88444 6.72079C8.45645 5.54294 7.38648 4.8275 6.25066 4.83622C6.00374 4.83622 5.75683 4.8624 5.51814 4.92347H5.50168L3.69919 5.48186C2.90905 5.71743 2.2753 6.2671 1.85554 6.95637C1.34525 7.78523 0.662109 8.88456 0.662109 8.88456L2.07777 9.90537C2.07777 9.90537 2.7609 8.80604 3.2712 7.9859C3.53457 7.57583 3.7568 7.39261 4.1601 7.26174L5.05723 6.99127L4.43994 10.045C4.26709 10.6819 4.52224 11.3275 4.86793 11.7812L7.30417 14.6343L7.42763 14.8088L8.7116 18.5692H10.5059C10.1684 17.6531 9.31243 15.3584 8.96674 14.2591L6.97495 11.1618L6.91733 10.8651L7.51817 7.92483L7.8227 8.63154V8.60537ZM3.33704 15.0531L0.777337 18.5343H2.73621L4.69508 16.1524L5.37822 13.9537L4.09425 12.392L3.32881 15.0531H3.33704Z" fill="white"/>
</svg>
