<svg width="47" height="53" viewBox="0 0 47 53" fill="none" xmlns="http://www.w3.org/2000/svg">
<path d="M32.5807 14.5894C29.9852 12.1263 26.5776 10.8594 22.9978 11.0669C16.253 11.42 10.7757 17.2157 10.7881 23.9828C10.7969 28.1277 12.823 32.0473 16.213 34.4618C16.8354 34.9032 17.2062 35.5962 17.2062 36.3112V40.3015C17.2062 41.0475 17.8109 41.6522 18.5569 41.6522H28.8329C29.5788 41.6522 30.1835 41.0474 30.1835 40.3015V36.3112C30.1835 35.5962 30.5543 34.9031 31.1767 34.4618C34.5755 32.0429 36.6016 28.1143 36.6016 23.9563C36.6016 20.3808 35.1715 17.0526 32.576 14.5896L32.5807 14.5894ZM29.6101 32.2592C28.277 33.2082 27.4825 34.7266 27.4825 36.3112V38.9508H19.9124V36.3112C19.9124 34.7222 19.1179 33.2081 17.7848 32.2592C15.1055 30.3523 13.5032 27.2536 13.4943 23.974C13.4855 18.6285 17.8113 14.0467 23.1435 13.7598C25.9862 13.6451 28.6699 14.5985 30.7224 16.5496C32.775 18.4918 33.905 21.1226 33.905 23.9564C33.905 27.2449 32.2982 30.3434 29.6101 32.2592Z" fill="white"/>
<path d="M23.7003 8.23241C24.4463 8.23241 25.051 7.62768 25.051 6.88172V2.29991C25.051 1.55835 24.4463 0.949219 23.7003 0.949219C22.9543 0.949219 22.3496 1.55395 22.3496 2.29991V6.88172C22.3496 7.6277 22.9543 8.23241 23.7003 8.23241Z" fill="white"/>
<path d="M10.67 12.8372C10.926 13.0932 11.2659 13.23 11.6234 13.23C11.9854 13.23 12.3253 13.0888 12.5813 12.8372C13.1066 12.3075 13.1066 11.4511 12.5813 10.9259L9.34137 7.68594C8.81168 7.16067 7.95531 7.16067 7.43008 7.68594C6.90482 8.21121 6.90482 9.06759 7.43008 9.59722L10.67 12.8372Z" fill="white"/>
<path d="M7.97264 23.9562C7.97264 23.2102 7.36791 22.6055 6.62195 22.6055H2.04014C1.29416 22.6055 0.689453 23.2102 0.689453 23.9562C0.689453 24.7021 1.29419 25.3068 2.04014 25.3068H6.62195C7.36793 25.3068 7.97264 24.7021 7.97264 23.9562Z" fill="white"/>
<path d="M10.67 35.0747L7.43008 38.3147C6.90482 38.8399 6.90482 39.6963 7.43008 40.2259C7.6861 40.482 8.02598 40.6188 8.38794 40.6188C8.74989 40.6188 9.08977 40.4775 9.34138 40.2259L12.5813 36.986C13.1066 36.4563 13.1066 35.5999 12.5813 35.0747C12.056 34.5495 11.1952 34.5495 10.67 35.0747Z" fill="white"/>
<path d="M36.73 35.0749C36.2048 34.5541 35.344 34.5496 34.8188 35.0749C34.2935 35.6046 34.2935 36.461 34.8188 36.9862L38.0587 40.2261C38.3147 40.4822 38.6546 40.619 39.0121 40.619C39.3741 40.619 39.714 40.4777 39.97 40.2217C40.4953 39.6965 40.4953 38.8401 39.97 38.3104L36.73 35.0705L36.73 35.0749Z" fill="white"/>
<path d="M45.3602 22.6055H40.7784C40.0324 22.6055 39.4277 23.2102 39.4277 23.9562C39.4277 24.7021 40.0325 25.3068 40.7784 25.3068H45.3602C46.1062 25.3068 46.7109 24.7021 46.7109 23.9562C46.7109 23.2102 46.1062 22.6055 45.3602 22.6055Z" fill="white"/>
<path d="M35.7776 13.2335C36.1395 13.2335 36.4794 13.0922 36.731 12.8406L39.9709 9.6007C40.4962 9.07544 40.4962 8.21905 39.9709 7.68942C39.4457 7.16856 38.5893 7.16415 38.0597 7.68942L34.8197 10.9294C34.2945 11.459 34.2945 12.3154 34.8197 12.8406C35.0757 13.0967 35.4156 13.2335 35.7776 13.2335Z" fill="white"/>
<path d="M28.8376 44.1854H18.5616C17.8156 44.1854 17.2109 44.7902 17.2109 45.5361C17.2109 46.2821 17.8157 46.8868 18.5616 46.8868H28.8376C29.5836 46.8868 30.1883 46.2821 30.1883 45.5361C30.1883 44.7902 29.5836 44.1854 28.8376 44.1854Z" fill="white"/>
<path d="M25.8852 49.416H21.5108C20.7649 49.416 20.1602 50.0207 20.1602 50.7667C20.1602 51.5083 20.7649 52.1174 21.5108 52.1174H25.8852C26.6312 52.1174 27.2359 51.5127 27.2359 50.7667C27.2359 50.0207 26.6311 49.416 25.8852 49.416Z" fill="white"/>
</svg>
