<svg width="65" height="74" viewBox="0 0 65 74" fill="none" xmlns="http://www.w3.org/2000/svg">
<g clip-path="url(#clip0_1422_971)">
<path d="M51.0492 0.349487C58.7074 0.349487 64.9206 6.51347 64.9206 14.1173V50.8316C64.9206 57.5865 59.8344 63.4091 53.2022 64.4417L59.8489 71.0388C60.8603 72.0427 60.1378 73.7781 58.5773 73.7781H52.971C51.7428 73.7781 50.5579 73.2904 49.691 72.43L41.8016 64.5995H23.3065L15.4171 72.43C14.5458 73.2904 13.3696 73.7781 12.1443 73.7781H6.4065C4.96445 73.7781 4.24199 72.0427 5.26211 71.0388L11.9117 64.4417C5.27078 63.4091 0.1875 57.5865 0.1875 50.8316V14.1173C0.1875 6.51347 6.39783 0.349487 14.0589 0.349487H51.0492ZM9.43508 32.4745C9.43508 35.0129 11.5057 37.0638 14.0589 37.0638H25.6184C28.1759 37.0638 30.2421 35.0129 30.2421 32.4745V18.7066C30.2421 16.1682 28.1759 14.1173 25.6184 14.1173H14.0589C11.5057 14.1173 9.43508 16.1682 9.43508 18.7066V32.4745ZM39.4897 14.1173C36.9322 14.1173 34.8659 16.1682 34.8659 18.7066V32.4745C34.8659 35.0129 36.9322 37.0638 39.4897 37.0638H51.0492C53.6067 37.0638 55.673 35.0129 55.673 32.4745V18.7066C55.673 16.1682 53.6067 14.1173 51.0492 14.1173H39.4897ZM14.0589 46.2423C11.5057 46.2423 9.43508 48.2932 9.43508 50.8316C9.43508 53.3701 11.5057 55.4209 14.0589 55.4209C16.6164 55.4209 18.6827 53.3701 18.6827 50.8316C18.6827 48.2932 16.6164 46.2423 14.0589 46.2423ZM51.0492 55.4209C53.6067 55.4209 55.673 53.3701 55.673 50.8316C55.673 48.2932 53.6067 46.2423 51.0492 46.2423C48.4917 46.2423 46.4254 48.2932 46.4254 50.8316C46.4254 53.3701 48.4917 55.4209 51.0492 55.4209Z" fill="black"/>
</g>
<defs>
<clipPath id="clip0_1422_971">
<rect width="64.7331" height="73.4286" fill="white" transform="translate(0.1875 0.349487)"/>
</clipPath>
</defs>
</svg>
